<svg width="4400" height="1919" xmlns="http://www.w3.org/2000/svg" xmlns:xlink="http://www.w3.org/1999/xlink" overflow="hidden"><defs><clipPath id="clip0"><rect x="0" y="471" width="4400" height="1919"/></clipPath></defs><g clip-path="url(#clip0)" transform="matrix(1 0 0 1 0 -471)"><rect x="3377" y="471" width="1023" height="1753" fill="#80F9C0"/><rect x="0" y="471" width="3303" height="1753" fill="#66CCFF"/><path d="M74.5001 1257.5C74.5001 1185.7 132.703 1127.5 204.5 1127.5 276.297 1127.5 334.5 1185.7 334.5 1257.5 334.5 1329.3 276.297 1387.5 204.5 1387.5 132.703 1387.5 74.5001 1329.3 74.5001 1257.5Z" stroke="#000000" stroke-width="4.58333" stroke-miterlimit="8" fill="none" fill-rule="evenodd"/><path d="M181.621 1226.26 186.2 1226.26 179.959 1251.03 180.486 1251.19C182.674 1248.54 184.876 1246.59 187.092 1245.33 189.307 1244.08 191.766 1243.45 194.468 1243.45 197.224 1243.45 199.385 1244.23 200.952 1245.8 202.519 1247.36 203.303 1249.5 203.303 1252.2 203.303 1253.07 203.215 1254.15 203.039 1255.44 202.864 1256.74 202.654 1257.89 202.411 1258.89L199.21 1271.53C198.75 1273.34 198.521 1274.92 198.521 1276.27 198.521 1277.33 198.696 1278.06 199.047 1278.46 199.399 1278.87 199.898 1279.07 200.547 1279.07 201.33 1279.07 202.202 1278.71 203.161 1277.98 204.12 1277.25 205.275 1276.11 206.626 1274.57L209.544 1277.49C206.896 1280.19 204.525 1282.11 202.431 1283.25 200.338 1284.38 198.034 1284.95 195.522 1284.95 192.766 1284.95 190.699 1284.27 189.321 1282.92 187.943 1281.57 187.254 1279.5 187.254 1276.72 187.254 1274.59 187.619 1272.11 188.348 1269.3L190.212 1262.25C190.672 1260.5 191.064 1258.77 191.388 1257.08 191.712 1255.4 191.874 1254.03 191.874 1252.97 191.874 1251.81 191.631 1250.92 191.145 1250.3 190.658 1249.68 189.929 1249.36 188.956 1249.36 187.578 1249.36 185.971 1250.24 184.133 1251.98 182.296 1253.72 180.925 1255.44 180.02 1257.15 179.115 1258.85 178.405 1260.97 177.892 1263.51L173.434 1284.3 161.803 1284.3 172.056 1238.5C172.651 1235.86 172.948 1233.92 172.948 1232.71 172.948 1232.11 172.887 1231.65 172.765 1231.31 172.644 1230.97 172.461 1230.69 172.218 1230.48 171.975 1230.26 171.651 1230.09 171.246 1229.97 170.84 1229.85 170.043 1229.71 168.855 1229.55L169.503 1226.91Z" fill-rule="evenodd"/><text fill="#000000" fill-opacity="0" font-family="Arial,Arial_MSFontService,sans-serif" font-size="58.6836" x="161.803" y="1277.61">𝒉</text><path d="M230.642 1260.01 234.455 1260.01C234.336 1261.92 234.276 1264.56 234.276 1267.93L234.276 1292.83C234.276 1293.98 234.341 1294.85 234.47 1295.44 234.599 1296.02 234.827 1296.5 235.155 1296.87 235.482 1297.24 235.954 1297.52 236.57 1297.73 237.185 1297.94 237.96 1298.1 238.893 1298.21 239.826 1298.32 241.057 1298.39 242.586 1298.43L242.586 1301.14 216.882 1301.14 216.882 1298.43C219.086 1298.33 220.659 1298.2 221.603 1298.03 222.546 1297.86 223.266 1297.61 223.762 1297.27 224.258 1296.93 224.621 1296.46 224.849 1295.84 225.077 1295.23 225.192 1294.22 225.192 1292.83L225.192 1271.3C225.192 1270.48 225.038 1269.9 224.73 1269.54 224.422 1269.18 224 1269 223.464 1269 222.968 1269 222.268 1269.23 221.364 1269.69 220.461 1270.15 218.976 1271.08 216.911 1272.49L215.094 1269.33Z" fill-rule="evenodd"/><text fill="#000000" fill-opacity="0" font-family="Arial,Arial_MSFontService,sans-serif" font-size="41.1333" x="215.094" y="1296">𝟏</text><path d="M1.14583-1.27315e-06 1.14617 301.887-1.1455 301.887-1.14583 1.27315e-06ZM13.7503 297.303 0.000360892 324.803-13.7497 297.303Z" transform="matrix(1 0 0 -1 203 1126.8)"/><path d="M247.94 936.012 268.892 936.012 268.285 938.687C267.096 938.768 266.17 939.065 265.508 939.578 264.846 940.092 264.374 940.781 264.09 941.645 263.806 942.51 263.664 943.807 263.664 945.536L263.664 947.278C263.664 947.873 263.678 948.508 263.705 949.183L263.989 963.408C264.097 968.839 264.151 973.797 264.151 978.282L264.637 978.282 277.727 953.722C279.835 949.778 281.125 947.123 281.598 945.759 282.071 944.394 282.307 943.158 282.307 942.05 282.307 940.105 281.159 938.984 278.862 938.687L279.47 936.012 296.735 936.012 296.127 938.687C295.154 938.903 294.31 939.274 293.594 939.801 292.878 940.328 292.209 941.017 291.588 941.868 290.966 942.719 290.048 944.225 288.832 946.387L263.664 991.615 253.492 991.615 251.749 948.292C251.695 946.752 251.587 945.367 251.425 944.138 251.263 942.908 251.006 941.902 250.655 941.118 250.304 940.335 249.865 939.761 249.338 939.396 248.811 939.031 248.142 938.795 247.332 938.687Z" fill-rule="evenodd"/><text fill="#000000" fill-opacity="0" font-family="Arial,Arial_MSFontService,sans-serif" font-size="55.6035" x="247.332" y="984.665">𝑽</text><path d="M202.854 1711.8 202.854 1409.92 205.145 1409.92 205.146 1711.8ZM190.249 1414.5 203.999 1387 217.749 1414.5Z"/><path d="M241.2 1520.66 261.95 1520.66 261.342 1523.33C260.504 1523.44 259.815 1523.63 259.275 1523.9 258.735 1524.17 258.296 1524.54 257.958 1525.01 257.62 1525.49 257.37 1526.07 257.208 1526.78 257.046 1527.48 256.958 1528.13 256.945 1528.72 256.931 1529.32 256.911 1531.02 256.884 1533.83L256.722 1549.07C256.695 1551.74 256.56 1556.05 256.316 1562L256.843 1562C257.762 1559.91 259.734 1555.85 262.76 1549.8L277.391 1520.66 286.266 1520.66 286.307 1547.2 286.347 1550.81C286.347 1554.59 286.253 1558.32 286.064 1562L286.59 1562C287.86 1559.35 290.143 1554.77 293.44 1548.26L299.478 1536.46C300.667 1534.17 301.545 1532.29 302.112 1530.83 302.68 1529.37 302.963 1528.16 302.963 1527.18 302.963 1526.37 302.869 1525.72 302.68 1525.24 302.491 1524.75 302.139 1524.35 301.626 1524.02 301.113 1523.7 300.41 1523.47 299.519 1523.33L300.127 1520.66 317.351 1520.66 316.743 1523.33C315.851 1523.49 315.061 1523.82 314.372 1524.3 313.683 1524.79 313.028 1525.44 312.406 1526.25 311.785 1527.06 311.177 1527.99 310.583 1529.03 309.988 1530.07 309.191 1531.52 308.191 1533.38L284.969 1576.26 275.243 1576.26 275.162 1550.16 275.162 1543.27C275.162 1541.52 275.175 1539.68 275.202 1537.76L274.675 1537.76C273.784 1539.76 272.892 1541.62 272.001 1543.35L255.465 1576.26 245.739 1576.26 244.928 1533.14C244.874 1530.57 244.678 1528.63 244.341 1527.3 244.003 1525.98 243.55 1525.03 242.983 1524.45 242.416 1523.87 241.619 1523.49 240.592 1523.33Z" fill-rule="evenodd"/><text fill="#000000" fill-opacity="0" font-family="Arial,Arial_MSFontService,sans-serif" font-size="55.6035" x="240.592" y="1569.31">𝑾</text><path d="M81.5 1842C81.5 1770.48 139.479 1712.5 211 1712.5 282.521 1712.5 340.5 1770.48 340.5 1842 340.5 1913.52 282.521 1971.5 211 1971.5 139.479 1971.5 81.5 1913.52 81.5 1842Z" stroke="#000000" stroke-width="4.58333" stroke-miterlimit="8" fill="none" fill-rule="evenodd"/><path d="M185.491 1828.09C187.652 1828.09 189.3 1828.42 190.435 1829.07 191.57 1829.71 192.502 1830.84 193.231 1832.45 193.961 1834.06 194.65 1836.63 195.298 1840.17L195.704 1840.17C197.703 1837.36 199.256 1835.25 200.364 1833.83 201.472 1832.41 202.499 1831.27 203.444 1830.42 204.39 1829.57 205.309 1828.97 206.2 1828.62 207.092 1828.27 208.145 1828.09 209.361 1828.09 210.712 1828.09 212.077 1828.34 213.454 1828.82L211.55 1837.58 207.902 1837.58C207.767 1836.44 207.267 1835.87 206.403 1835.87 206.024 1835.87 205.626 1835.97 205.207 1836.16 204.788 1836.35 204.235 1836.77 203.546 1837.43 202.857 1838.1 201.999 1839.06 200.972 1840.31 199.945 1841.57 198.405 1843.48 196.352 1846.05 197.298 1851.75 198.074 1855.83 198.682 1858.31 199.29 1860.78 199.918 1862.38 200.567 1863.11 200.945 1863.51 201.404 1863.72 201.945 1863.72 202.62 1863.72 203.248 1863.45 203.829 1862.93 204.41 1862.4 205.16 1861.22 206.079 1859.38L209.767 1861.08C208.199 1863.95 206.423 1866.08 204.437 1867.49 202.451 1868.89 200.121 1869.59 197.446 1869.59 195.798 1869.59 194.481 1869.38 193.495 1868.96 192.509 1868.55 191.671 1867.85 190.982 1866.88 190.293 1865.91 189.685 1864.53 189.158 1862.76 188.632 1860.99 188.138 1858.68 187.679 1855.81L187.274 1855.81C184.977 1859.11 183.14 1861.62 181.762 1863.35 180.384 1865.08 179.202 1866.38 178.216 1867.24 177.23 1868.11 176.284 1868.72 175.379 1869.07 174.474 1869.42 173.386 1869.59 172.117 1869.59 171.522 1869.59 170.799 1869.52 169.948 1869.37 169.097 1869.22 168.456 1869.07 168.023 1868.9L169.928 1860.11 173.576 1860.11C173.603 1860.68 173.744 1861.1 174.001 1861.39 174.258 1861.67 174.589 1861.81 174.994 1861.81 175.48 1861.81 175.933 1861.71 176.352 1861.51 176.77 1861.31 177.351 1860.85 178.094 1860.15 178.837 1859.45 179.776 1858.41 180.911 1857.05 182.046 1855.69 183.964 1853.29 186.666 1849.86 186.099 1846.67 185.565 1843.92 185.065 1841.61 184.565 1839.3 184.113 1837.62 183.707 1836.58 183.302 1835.54 182.917 1834.85 182.552 1834.5 182.188 1834.15 181.776 1833.97 181.316 1833.97 180.776 1833.97 180.303 1834.11 179.898 1834.4 179.493 1834.68 179.067 1835.14 178.621 1835.77 178.175 1836.41 177.696 1837.25 177.183 1838.31L173.495 1836.6C175.062 1833.74 176.825 1831.61 178.783 1830.2 180.742 1828.8 182.978 1828.09 185.491 1828.09Z" fill-rule="evenodd"/><text fill="#000000" fill-opacity="0" font-family="Arial,Arial_MSFontService,sans-serif" font-size="41.5" x="168.023" y="1864.41">𝒙</text><path d="M234.792 1844.66 238.605 1844.66C238.486 1846.56 238.426 1849.2 238.426 1852.58L238.426 1877.48C238.426 1878.63 238.491 1879.5 238.62 1880.08 238.749 1880.67 238.977 1881.15 239.305 1881.51 239.632 1881.88 240.104 1882.17 240.719 1882.38 241.335 1882.59 242.109 1882.75 243.043 1882.85 243.976 1882.96 245.207 1883.04 246.736 1883.08L246.736 1885.79 221.031 1885.79 221.031 1883.08C223.236 1882.98 224.809 1882.84 225.752 1882.68 226.696 1882.51 227.415 1882.25 227.912 1881.92 228.408 1881.58 228.771 1881.1 228.999 1880.49 229.227 1879.87 229.342 1878.87 229.342 1877.48L229.342 1855.94C229.342 1855.13 229.188 1854.54 228.88 1854.19 228.572 1853.83 228.15 1853.65 227.614 1853.65 227.118 1853.65 226.418 1853.88 225.514 1854.34 224.611 1854.79 223.126 1855.73 221.061 1857.14L219.244 1853.98Z" fill-rule="evenodd"/><text fill="#000000" fill-opacity="0" font-family="Arial,Arial_MSFontService,sans-serif" font-size="41.1333" x="219.244" y="1880.65">𝟏</text><path d="M79.4999 672.5C79.4999 600.703 137.703 542.5 209.5 542.5 281.297 542.5 339.5 600.703 339.5 672.5 339.5 744.297 281.297 802.5 209.5 802.5 137.703 802.5 79.4999 744.297 79.4999 672.5Z" stroke="#000000" stroke-width="4.58333" stroke-miterlimit="8" fill="none" fill-rule="evenodd"/><path d="M196.616 664.76C194.833 664.76 193.016 665.631 191.165 667.374 189.315 669.116 187.835 671.136 186.728 673.433 185.62 675.729 184.607 678.971 183.688 683.159L183.364 684.659C182.932 686.658 182.715 688.617 182.715 690.535 182.715 692.507 183.046 693.926 183.708 694.79 184.37 695.655 185.485 696.087 187.052 696.087 188.403 696.087 189.632 695.783 190.74 695.175 191.848 694.568 192.895 693.575 193.881 692.197 194.867 690.819 195.826 689.042 196.758 686.867 197.69 684.692 198.494 682.092 199.169 679.066 199.845 676.04 200.183 673.23 200.183 670.636 200.183 668.637 199.892 667.158 199.311 666.198 198.73 665.239 197.832 664.76 196.616 664.76ZM178.744 658.802C180.986 658.802 182.776 659.43 184.114 660.687 185.451 661.943 186.12 663.598 186.12 665.651 186.12 666.327 186.039 666.975 185.877 667.597L186.282 667.921C188.767 664.76 191.172 662.45 193.496 660.991 195.819 659.532 198.508 658.802 201.561 658.802 204.614 658.802 206.985 659.91 208.673 662.125 210.362 664.341 211.206 667.543 211.206 671.73 211.206 675.378 210.679 678.998 209.626 682.592 208.572 686.185 207.059 689.286 205.086 691.893 203.114 694.5 200.635 696.553 197.65 698.053 194.664 699.552 191.294 700.302 187.538 700.302 185.134 700.302 182.81 699.883 180.567 699.046L179.027 706.26C178.784 707.448 178.609 708.374 178.501 709.036 178.392 709.698 178.338 710.312 178.338 710.88 178.338 712.042 178.642 712.879 179.25 713.393 179.858 713.906 180.905 714.244 182.391 714.406L181.945 717.081 165.086 717.081 175.339 671.487C175.745 669.677 175.947 668.34 175.947 667.475 175.947 666.583 175.799 665.894 175.502 665.408 175.204 664.922 174.691 664.679 173.961 664.679 173.124 664.679 172.219 665.057 171.246 665.813 170.273 666.57 169.139 667.691 167.842 669.177L164.924 666.259C167.626 663.503 170.024 661.572 172.117 660.464 174.211 659.356 176.42 658.802 178.744 658.802Z" fill-rule="evenodd"/><text fill="#000000" fill-opacity="0" font-family="Arial,Arial_MSFontService,sans-serif" font-size="58.2783" x="164.924" y="709.796">𝒑</text><path d="M235.373 675.364 239.186 675.364C239.067 677.27 239.007 679.911 239.007 683.287L239.007 708.187C239.007 709.339 239.072 710.208 239.201 710.794 239.33 711.379 239.558 711.856 239.886 712.223 240.214 712.591 240.685 712.879 241.301 713.087 241.916 713.296 242.691 713.454 243.624 713.564 244.557 713.673 245.788 713.747 247.317 713.787L247.317 716.497 221.613 716.497 221.613 713.787C223.817 713.688 225.39 713.554 226.334 713.385 227.277 713.216 227.997 712.963 228.493 712.625 228.989 712.288 229.352 711.811 229.58 711.196 229.809 710.58 229.923 709.577 229.923 708.187L229.923 686.653C229.923 685.839 229.769 685.253 229.461 684.895 229.153 684.538 228.731 684.359 228.195 684.359 227.699 684.359 226.999 684.588 226.095 685.044 225.192 685.501 223.708 686.434 221.642 687.844L219.826 684.687Z" fill-rule="evenodd"/><text fill="#000000" fill-opacity="0" font-family="Arial,Arial_MSFontService,sans-serif" font-size="41.1333" x="219.826" y="711.356">𝟏</text><path d="M1501.5 1253.5C1501.5 1181.7 1559.7 1123.5 1631.5 1123.5 1703.3 1123.5 1761.5 1181.7 1761.5 1253.5 1761.5 1325.3 1703.3 1383.5 1631.5 1383.5 1559.7 1383.5 1501.5 1325.3 1501.5 1253.5Z" stroke="#000000" stroke-width="4.58333" stroke-miterlimit="8" fill="none" fill-rule="evenodd"/><path d="M1613.64 1222.83 1618.22 1222.83 1611.98 1247.59 1612.51 1247.75C1614.7 1245.1 1616.9 1243.15 1619.11 1241.89 1621.33 1240.64 1623.79 1240.01 1626.49 1240.01 1629.25 1240.01 1631.41 1240.79 1632.97 1242.36 1634.54 1243.93 1635.33 1246.06 1635.33 1248.76 1635.33 1249.63 1635.24 1250.71 1635.06 1252.01 1634.89 1253.3 1634.68 1254.45 1634.43 1255.45L1631.23 1268.1C1630.77 1269.91 1630.54 1271.49 1630.54 1272.84 1630.54 1273.89 1630.72 1274.62 1631.07 1275.03 1631.42 1275.43 1631.92 1275.63 1632.57 1275.63 1633.35 1275.63 1634.22 1275.27 1635.18 1274.54 1636.14 1273.81 1637.3 1272.67 1638.65 1271.13L1641.57 1274.05C1638.92 1276.75 1636.55 1278.67 1634.45 1279.81 1632.36 1280.94 1630.06 1281.51 1627.54 1281.51 1624.79 1281.51 1622.72 1280.83 1621.34 1279.48 1619.97 1278.13 1619.28 1276.07 1619.28 1273.28 1619.28 1271.15 1619.64 1268.68 1620.37 1265.87L1622.23 1258.81C1622.69 1257.06 1623.09 1255.34 1623.41 1253.65 1623.73 1251.96 1623.9 1250.59 1623.9 1249.53 1623.9 1248.37 1623.65 1247.48 1623.17 1246.86 1622.68 1246.24 1621.95 1245.93 1620.98 1245.93 1619.6 1245.93 1617.99 1246.8 1616.16 1248.54 1614.32 1250.28 1612.95 1252.01 1612.04 1253.71 1611.14 1255.41 1610.43 1257.53 1609.91 1260.07L1605.46 1280.86 1593.83 1280.86 1604.08 1235.07C1604.67 1232.42 1604.97 1230.49 1604.97 1229.27 1604.97 1228.68 1604.91 1228.21 1604.79 1227.87 1604.67 1227.53 1604.48 1227.26 1604.24 1227.04 1604 1226.82 1603.67 1226.66 1603.27 1226.53 1602.86 1226.41 1602.07 1226.27 1600.88 1226.11L1601.53 1223.47Z" fill-rule="evenodd"/><text fill="#000000" fill-opacity="0" font-family="Arial,Arial_MSFontService,sans-serif" font-size="58.6836" x="1593.83" y="1274.17">𝒉</text><path d="M1654.27 1260.71 1661.41 1260.71 1659.69 1268.16 1666.92 1268.16 1666.12 1271.88 1658.82 1271.88 1655.93 1283.8C1655.44 1285.84 1655.09 1287.39 1654.91 1288.46 1654.72 1289.52 1654.62 1290.42 1654.62 1291.15 1654.62 1292.09 1654.79 1292.77 1655.13 1293.19 1655.47 1293.62 1655.96 1293.83 1656.62 1293.83 1657.51 1293.83 1658.43 1293.52 1659.37 1292.88 1660.32 1292.24 1661.33 1291.26 1662.43 1289.93L1664.72 1292.28C1662.71 1294.49 1660.87 1296.02 1659.19 1296.89 1657.52 1297.75 1655.54 1298.18 1653.25 1298.18 1650.99 1298.18 1649.25 1297.6 1648.04 1296.44 1646.83 1295.28 1646.22 1293.67 1646.22 1291.63 1646.22 1290.7 1646.29 1289.81 1646.43 1288.96 1646.57 1288.12 1646.86 1286.73 1647.3 1284.81L1650.36 1271.88 1645.72 1271.88 1646.28 1269.47C1647.67 1269.47 1648.73 1269.34 1649.44 1269.08 1650.16 1268.82 1650.76 1268.44 1651.24 1267.92 1651.73 1267.4 1652.2 1266.62 1652.66 1265.57 1653.11 1264.51 1653.65 1262.9 1654.27 1260.71Z" fill-rule="evenodd"/><text fill="#000000" fill-opacity="0" font-family="Arial,Arial_MSFontService,sans-serif" font-size="37.4697" x="1645.72" y="1293.5">𝒕</text><path d="M1.14583-1.27315e-06 1.14617 301.887-1.1455 301.887-1.14583 1.27315e-06ZM13.7503 297.303 0.000360892 324.803-13.7497 297.303Z" transform="matrix(1 0 0 -1 1630 1123.8)"/><path d="M1674.53 932.574 1695.48 932.574 1694.88 935.249C1693.69 935.33 1692.76 935.627 1692.1 936.141 1691.44 936.654 1690.96 937.343 1690.68 938.208 1690.4 939.072 1690.26 940.369 1690.26 942.098L1690.26 943.841C1690.26 944.435 1690.27 945.07 1690.3 945.746L1690.58 959.971C1690.69 965.401 1690.74 970.359 1690.74 974.844L1691.23 974.844 1704.32 950.285C1706.43 946.34 1707.72 943.686 1708.19 942.321 1708.66 940.957 1708.9 939.721 1708.9 938.613 1708.9 936.668 1707.75 935.546 1705.45 935.249L1706.06 932.574 1723.33 932.574 1722.72 935.249C1721.75 935.465 1720.9 935.837 1720.19 936.364 1719.47 936.891 1718.8 937.579 1718.18 938.431 1717.56 939.282 1716.64 940.788 1715.42 942.949L1690.26 988.178 1680.08 988.178 1678.34 944.854C1678.29 943.314 1678.18 941.929 1678.02 940.7 1677.85 939.471 1677.6 938.464 1677.25 937.681 1676.9 936.897 1676.46 936.323 1675.93 935.958 1675.4 935.594 1674.73 935.357 1673.92 935.249Z" fill-rule="evenodd"/><text fill="#000000" fill-opacity="0" font-family="Arial,Arial_MSFontService,sans-serif" font-size="55.6035" x="1673.92" y="981.227">𝑽</text><path d="M1629.85 1707.8 1629.85 1405.92 1632.15 1405.92 1632.15 1707.8ZM1617.25 1410.5 1631 1383 1644.75 1410.5Z"/><path d="M1667.79 1517.22 1688.54 1517.22 1687.93 1519.89C1687.1 1520 1686.41 1520.19 1685.87 1520.46 1685.33 1520.73 1684.89 1521.1 1684.55 1521.58 1684.21 1522.05 1683.96 1522.64 1683.8 1523.34 1683.64 1524.04 1683.55 1524.69 1683.54 1525.28 1683.52 1525.88 1683.5 1527.58 1683.48 1530.39L1683.31 1545.63C1683.29 1548.3 1683.15 1552.61 1682.91 1558.56L1683.43 1558.56C1684.35 1556.48 1686.33 1552.41 1689.35 1546.36L1703.98 1517.22 1712.86 1517.22 1712.9 1543.77 1712.94 1547.37C1712.94 1551.15 1712.84 1554.88 1712.65 1558.56L1713.18 1558.56C1714.45 1555.91 1716.73 1551.33 1720.03 1544.82L1726.07 1533.03C1727.26 1530.73 1728.14 1528.85 1728.7 1527.39 1729.27 1525.93 1729.55 1524.72 1729.55 1523.74 1729.55 1522.93 1729.46 1522.29 1729.27 1521.8 1729.08 1521.31 1728.73 1520.91 1728.22 1520.58 1727.7 1520.26 1727 1520.03 1726.11 1519.89L1726.72 1517.22 1743.94 1517.22 1743.33 1519.89C1742.44 1520.06 1741.65 1520.38 1740.96 1520.87 1740.27 1521.35 1739.62 1522 1739 1522.81 1738.38 1523.62 1737.77 1524.55 1737.17 1525.59 1736.58 1526.63 1735.78 1528.08 1734.78 1529.95L1711.56 1572.82 1701.83 1572.82 1701.75 1546.72 1701.75 1539.83C1701.75 1538.08 1701.77 1536.24 1701.79 1534.32L1701.27 1534.32C1700.38 1536.32 1699.48 1538.19 1698.59 1539.92L1682.06 1572.82 1672.33 1572.82 1671.52 1529.7C1671.47 1527.14 1671.27 1525.19 1670.93 1523.87 1670.59 1522.54 1670.14 1521.59 1669.57 1521.01 1669.01 1520.43 1668.21 1520.06 1667.18 1519.89Z" fill-rule="evenodd"/><text fill="#000000" fill-opacity="0" font-family="Arial,Arial_MSFontService,sans-serif" font-size="55.6035" x="1667.18" y="1565.87">𝑾</text><path d="M1507.5 1838.5C1507.5 1766.7 1565.7 1708.5 1637.5 1708.5 1709.3 1708.5 1767.5 1766.7 1767.5 1838.5 1767.5 1910.3 1709.3 1968.5 1637.5 1968.5 1565.7 1968.5 1507.5 1910.3 1507.5 1838.5Z" stroke="#000000" stroke-width="4.58333" stroke-miterlimit="8" fill="none" fill-rule="evenodd"/><path d="M1617.51 1824.66C1619.67 1824.66 1621.32 1824.98 1622.46 1825.63 1623.59 1826.28 1624.52 1827.4 1625.25 1829.01 1625.98 1830.62 1626.67 1833.19 1627.32 1836.73L1627.73 1836.73C1629.73 1833.92 1631.28 1831.81 1632.39 1830.39 1633.49 1828.97 1634.52 1827.84 1635.47 1826.99 1636.41 1826.13 1637.33 1825.53 1638.22 1825.18 1639.11 1824.83 1640.17 1824.66 1641.38 1824.66 1642.73 1824.66 1644.1 1824.9 1645.48 1825.39L1643.57 1834.14 1639.92 1834.14C1639.79 1833 1639.29 1832.44 1638.43 1832.44 1638.05 1832.44 1637.65 1832.53 1637.23 1832.72 1636.81 1832.91 1636.26 1833.34 1635.57 1834 1634.88 1834.66 1634.02 1835.62 1632.99 1836.87 1631.97 1838.13 1630.43 1840.04 1628.37 1842.61 1629.32 1848.31 1630.1 1852.4 1630.7 1854.87 1631.31 1857.34 1631.94 1858.94 1632.59 1859.67 1632.97 1860.08 1633.43 1860.28 1633.97 1860.28 1634.64 1860.28 1635.27 1860.02 1635.85 1859.49 1636.43 1858.96 1637.18 1857.78 1638.1 1855.94L1641.79 1857.64C1640.22 1860.51 1638.45 1862.64 1636.46 1864.05 1634.47 1865.45 1632.14 1866.16 1629.47 1866.16 1627.82 1866.16 1626.5 1865.95 1625.52 1865.53 1624.53 1865.11 1623.69 1864.41 1623 1863.44 1622.32 1862.47 1621.71 1861.1 1621.18 1859.33 1620.65 1857.56 1620.16 1855.24 1619.7 1852.38L1619.3 1852.38C1617 1855.67 1615.16 1858.19 1613.78 1859.91 1612.41 1861.64 1611.22 1862.94 1610.24 1863.81 1609.25 1864.67 1608.31 1865.28 1607.4 1865.63 1606.5 1865.98 1605.41 1866.16 1604.14 1866.16 1603.54 1866.16 1602.82 1866.08 1601.97 1865.93 1601.12 1865.78 1600.48 1865.63 1600.05 1865.47L1601.95 1856.67 1605.6 1856.67C1605.63 1857.24 1605.77 1857.67 1606.02 1857.95 1606.28 1858.23 1606.61 1858.37 1607.02 1858.37 1607.5 1858.37 1607.96 1858.27 1608.37 1858.07 1608.79 1857.87 1609.37 1857.42 1610.12 1856.71 1610.86 1856.01 1611.8 1854.98 1612.93 1853.61 1614.07 1852.25 1615.99 1849.85 1618.69 1846.42 1618.12 1843.23 1617.59 1840.48 1617.09 1838.17 1616.59 1835.86 1616.14 1834.19 1615.73 1833.15 1615.32 1832.11 1614.94 1831.41 1614.57 1831.06 1614.21 1830.71 1613.8 1830.53 1613.34 1830.53 1612.8 1830.53 1612.33 1830.67 1611.92 1830.96 1611.52 1831.24 1611.09 1831.7 1610.64 1832.34 1610.2 1832.97 1609.72 1833.81 1609.21 1834.87L1605.52 1833.17C1607.08 1830.3 1608.85 1828.17 1610.81 1826.76 1612.76 1825.36 1615 1824.66 1617.51 1824.66Z" fill-rule="evenodd"/><text fill="#000000" fill-opacity="0" font-family="Arial,Arial_MSFontService,sans-serif" font-size="41.5" x="1600.05" y="1860.97">𝒙</text><path d="M1658.42 1845.36 1665.56 1845.36 1663.84 1852.8 1671.07 1852.8 1670.27 1856.53 1662.97 1856.53 1660.08 1868.44C1659.59 1870.49 1659.24 1872.04 1659.06 1873.1 1658.87 1874.17 1658.77 1875.06 1658.77 1875.8 1658.77 1876.73 1658.94 1877.41 1659.28 1877.84 1659.62 1878.27 1660.11 1878.48 1660.77 1878.48 1661.66 1878.48 1662.58 1878.16 1663.52 1877.53 1664.47 1876.89 1665.48 1875.91 1666.58 1874.58L1668.87 1876.93C1666.86 1879.13 1665.02 1880.67 1663.34 1881.53 1661.67 1882.4 1659.69 1882.83 1657.4 1882.83 1655.14 1882.83 1653.4 1882.25 1652.19 1881.09 1650.98 1879.92 1650.37 1878.32 1650.37 1876.27 1650.37 1875.34 1650.44 1874.45 1650.58 1873.61 1650.72 1872.77 1651.01 1871.38 1651.45 1869.45L1654.51 1856.53 1649.87 1856.53 1650.43 1854.11C1651.82 1854.11 1652.88 1853.99 1653.59 1853.73 1654.31 1853.47 1654.91 1853.08 1655.39 1852.57 1655.88 1852.05 1656.35 1851.27 1656.81 1850.21 1657.26 1849.16 1657.8 1847.54 1658.42 1845.36Z" fill-rule="evenodd"/><text fill="#000000" fill-opacity="0" font-family="Arial,Arial_MSFontService,sans-serif" font-size="37.4697" x="1649.87" y="1878.14">𝒕</text><path d="M1506.5 669.5C1506.5 597.703 1564.7 539.5 1636.5 539.5 1708.3 539.5 1766.5 597.703 1766.5 669.5 1766.5 741.297 1708.3 799.5 1636.5 799.5 1564.7 799.5 1506.5 741.297 1506.5 669.5Z" stroke="#000000" stroke-width="4.58333" stroke-miterlimit="8" fill="none" fill-rule="evenodd"/><path d="M1628.64 661.322C1626.86 661.322 1625.04 662.194 1623.19 663.936 1621.34 665.679 1619.86 667.698 1618.75 669.995 1617.64 672.292 1616.63 675.534 1615.71 679.722L1615.39 681.221C1614.95 683.22 1614.74 685.179 1614.74 687.098 1614.74 689.07 1615.07 690.488 1615.73 691.353 1616.39 692.218 1617.51 692.65 1619.07 692.65 1620.43 692.65 1621.65 692.346 1622.76 691.738 1623.87 691.13 1624.92 690.137 1625.9 688.759 1626.89 687.381 1627.85 685.605 1628.78 683.43 1629.71 681.255 1630.52 678.654 1631.19 675.628 1631.87 672.602 1632.21 669.792 1632.21 667.199 1632.21 665.199 1631.91 663.72 1631.33 662.761 1630.75 661.802 1629.85 661.322 1628.64 661.322ZM1610.77 655.365C1613.01 655.365 1614.8 655.993 1616.14 657.249 1617.47 658.506 1618.14 660.16 1618.14 662.214 1618.14 662.889 1618.06 663.538 1617.9 664.159L1618.3 664.483C1620.79 661.322 1623.19 659.012 1625.52 657.553 1627.84 656.094 1630.53 655.365 1633.58 655.365 1636.64 655.365 1639.01 656.472 1640.7 658.688 1642.38 660.903 1643.23 664.105 1643.23 668.293 1643.23 671.94 1642.7 675.561 1641.65 679.154 1640.59 682.748 1639.08 685.848 1637.11 688.455 1635.14 691.062 1632.66 693.116 1629.67 694.615 1626.69 696.115 1623.32 696.865 1619.56 696.865 1617.16 696.865 1614.83 696.446 1612.59 695.608L1611.05 702.822C1610.81 704.011 1610.63 704.936 1610.52 705.598 1610.42 706.26 1610.36 706.875 1610.36 707.442 1610.36 708.604 1610.66 709.442 1611.27 709.955 1611.88 710.468 1612.93 710.806 1614.41 710.968L1613.97 713.643 1597.11 713.643 1607.36 668.05C1607.77 666.24 1607.97 664.902 1607.97 664.038 1607.97 663.146 1607.82 662.457 1607.52 661.971 1607.23 661.484 1606.71 661.241 1605.98 661.241 1605.15 661.241 1604.24 661.619 1603.27 662.376 1602.3 663.132 1601.16 664.254 1599.86 665.74L1596.95 662.822C1599.65 660.066 1602.05 658.134 1604.14 657.026 1606.23 655.919 1608.44 655.365 1610.77 655.365Z" fill-rule="evenodd"/><text fill="#000000" fill-opacity="0" font-family="Arial,Arial_MSFontService,sans-serif" font-size="58.2783" x="1596.95" y="706.358">𝒑</text><path d="M1659 676.067 1666.15 676.067 1664.42 683.513 1671.66 683.513 1670.85 687.236 1663.55 687.236 1660.66 699.15C1660.17 701.196 1659.83 702.749 1659.64 703.812 1659.45 704.874 1659.35 705.773 1659.35 706.507 1659.35 707.441 1659.52 708.121 1659.86 708.548 1660.2 708.974 1660.69 709.188 1661.35 709.188 1662.24 709.188 1663.16 708.87 1664.1 708.235 1665.05 707.599 1666.07 706.616 1667.16 705.286L1669.45 707.639C1667.45 709.843 1665.6 711.377 1663.93 712.241 1662.25 713.105 1660.27 713.537 1657.98 713.537 1655.72 713.537 1653.98 712.956 1652.77 711.794 1651.56 710.633 1650.95 709.029 1650.95 706.984 1650.95 706.051 1651.02 705.162 1651.16 704.318 1651.3 703.474 1651.59 702.089 1652.03 700.163L1655.09 687.236 1650.45 687.236 1651.01 684.824C1652.4 684.824 1653.46 684.695 1654.17 684.436 1654.89 684.178 1655.49 683.791 1655.97 683.275 1656.46 682.759 1656.93 681.974 1657.39 680.922 1657.84 679.869 1658.38 678.251 1659 676.067Z" fill-rule="evenodd"/><text fill="#000000" fill-opacity="0" font-family="Arial,Arial_MSFontService,sans-serif" font-size="37.4697" x="1650.45" y="708.853">𝒕</text><path d="M1107 1258.85 1473.85 1258.85 1473.85 1261.15 1107 1261.15ZM1469.26 1246.25 1496.76 1260 1469.26 1273.75Z"/><path d="M1290.26 1168.4 1310.65 1168.4 1310.08 1171.07C1308.54 1171.5 1307.41 1172.26 1306.68 1173.34 1305.95 1174.42 1305.26 1176.42 1304.61 1179.34L1299.14 1204.18C1298.73 1205.99 1298.46 1207.5 1298.33 1208.7 1298.19 1209.9 1298.13 1211.06 1298.13 1212.17 1298.13 1214.6 1298.73 1216.45 1299.93 1217.72 1301.13 1218.99 1302.89 1219.62 1305.22 1219.62 1307.51 1219.62 1309.43 1219.12 1310.97 1218.12 1312.51 1217.12 1313.75 1215.7 1314.68 1213.85 1315.61 1212 1316.4 1209.61 1317.05 1206.7L1323.09 1179.34C1323.33 1178.29 1323.48 1177.39 1323.54 1176.64 1323.59 1175.9 1323.62 1175.22 1323.62 1174.6 1323.62 1173.46 1323.35 1172.63 1322.83 1172.11 1322.3 1171.58 1321.44 1171.23 1320.25 1171.07L1320.82 1168.4 1338.09 1168.4 1337.52 1171.07C1335.95 1171.5 1334.8 1172.27 1334.05 1173.38 1333.31 1174.49 1332.64 1176.48 1332.05 1179.34L1326.58 1204.43C1325.79 1208.07 1324.75 1211.19 1323.44 1213.79 1322.12 1216.38 1320.55 1218.44 1318.71 1219.97 1316.88 1221.49 1314.74 1222.61 1312.31 1223.31 1309.88 1224.01 1306.91 1224.37 1303.39 1224.37 1301.1 1224.37 1298.93 1224.07 1296.89 1223.49 1294.85 1222.91 1293.07 1222.01 1291.56 1220.8 1290.05 1219.58 1288.85 1218.06 1287.97 1216.24 1287.1 1214.42 1286.66 1212.25 1286.66 1209.73 1286.66 1208.38 1286.75 1206.92 1286.94 1205.36 1287.13 1203.79 1287.59 1201.35 1288.32 1198.02L1292.53 1179.34C1292.88 1177.77 1293.06 1176.19 1293.06 1174.6 1293.06 1173.46 1292.8 1172.63 1292.27 1172.11 1291.74 1171.58 1290.88 1171.23 1289.7 1171.07Z" fill-rule="evenodd"/><text fill="#000000" fill-opacity="0" font-family="Arial,Arial_MSFontService,sans-serif" font-size="55.9683" x="1286.66" y="1217.37">𝑼</text><path d="M847.5 1257.5C847.5 1185.7 905.703 1127.5 977.5 1127.5 1049.3 1127.5 1107.5 1185.7 1107.5 1257.5 1107.5 1329.3 1049.3 1387.5 977.5 1387.5 905.703 1387.5 847.5 1329.3 847.5 1257.5Z" stroke="#000000" stroke-width="4.58333" stroke-miterlimit="8" fill="none" fill-rule="evenodd"/><path d="M941.804 1226.26 946.384 1226.26 940.143 1251.03 940.669 1251.19C942.858 1248.54 945.06 1246.59 947.275 1245.33 949.491 1244.08 951.95 1243.45 954.651 1243.45 957.407 1243.45 959.569 1244.23 961.136 1245.8 962.703 1247.36 963.486 1249.5 963.486 1252.2 963.486 1253.07 963.398 1254.15 963.223 1255.44 963.047 1256.74 962.838 1257.89 962.595 1258.89L959.393 1271.53C958.934 1273.34 958.704 1274.92 958.704 1276.27 958.704 1277.33 958.88 1278.06 959.231 1278.46 959.582 1278.87 960.082 1279.07 960.73 1279.07 961.514 1279.07 962.385 1278.71 963.344 1277.98 964.304 1277.25 965.459 1276.11 966.81 1274.57L969.728 1277.49C967.08 1280.19 964.709 1282.11 962.615 1283.25 960.521 1284.38 958.218 1284.95 955.705 1284.95 952.949 1284.95 950.882 1284.27 949.504 1282.92 948.126 1281.57 947.438 1279.5 947.438 1276.72 947.438 1274.59 947.802 1272.11 948.532 1269.3L950.396 1262.25C950.855 1260.5 951.247 1258.77 951.571 1257.08 951.896 1255.4 952.058 1254.03 952.058 1252.97 952.058 1251.81 951.814 1250.92 951.328 1250.3 950.842 1249.68 950.112 1249.36 949.14 1249.36 947.762 1249.36 946.154 1250.24 944.317 1251.98 942.48 1253.72 941.108 1255.44 940.203 1257.15 939.298 1258.85 938.589 1260.97 938.076 1263.51L933.618 1284.3 921.986 1284.3 932.24 1238.5C932.834 1235.86 933.131 1233.92 933.131 1232.71 933.131 1232.11 933.071 1231.65 932.949 1231.31 932.827 1230.97 932.645 1230.69 932.402 1230.48 932.159 1230.26 931.834 1230.09 931.429 1229.97 931.024 1229.85 930.227 1229.71 929.038 1229.55L929.687 1226.91Z" fill-rule="evenodd"/><text fill="#000000" fill-opacity="0" font-family="Arial,Arial_MSFontService,sans-serif" font-size="58.6836" x="921.986" y="1277.61">𝒉</text><path d="M982.426 1264.15 989.575 1264.15 987.847 1271.6 995.085 1271.6 994.281 1275.32 986.984 1275.32 984.094 1287.23C983.598 1289.28 983.255 1290.83 983.067 1291.89 982.878 1292.96 982.784 1293.86 982.784 1294.59 982.784 1295.52 982.953 1296.2 983.29 1296.63 983.628 1297.06 984.124 1297.27 984.779 1297.27 985.673 1297.27 986.591 1296.95 987.535 1296.32 988.478 1295.68 989.495 1294.7 990.588 1293.37L992.881 1295.72C990.875 1297.93 989.034 1299.46 987.356 1300.32 985.678 1301.19 983.697 1301.62 981.414 1301.62 979.15 1301.62 977.413 1301.04 976.201 1299.88 974.99 1298.72 974.384 1297.11 974.384 1295.07 974.384 1294.13 974.454 1293.24 974.593 1292.4 974.732 1291.56 975.02 1290.17 975.457 1288.25L978.525 1275.32 973.878 1275.32 974.444 1272.91C975.834 1272.91 976.886 1272.78 977.601 1272.52 978.316 1272.26 978.917 1271.87 979.403 1271.36 979.89 1270.84 980.361 1270.06 980.818 1269 981.275 1267.95 981.811 1266.33 982.426 1264.15Z" fill-rule="evenodd"/><text fill="#000000" fill-opacity="0" font-family="Arial,Arial_MSFontService,sans-serif" font-size="37.4697" x="973.878" y="1296.94">𝒕</text><path d="M1000.64 1281.42 1034.95 1281.42 1034.95 1285.98 1000.64 1285.98Z" fill-rule="evenodd"/><text fill="#000000" fill-opacity="0" font-family="Arial,Arial_MSFontService,sans-serif" font-size="4.55713" x="1000.64" y="1285.41">−</text><path d="M1059.58 1260.01 1063.39 1260.01C1063.27 1261.92 1063.21 1264.56 1063.21 1267.93L1063.21 1292.83C1063.21 1293.98 1063.27 1294.85 1063.4 1295.44 1063.53 1296.02 1063.76 1296.5 1064.09 1296.87 1064.42 1297.24 1064.89 1297.52 1065.5 1297.73 1066.12 1297.94 1066.89 1298.1 1067.83 1298.21 1068.76 1298.32 1069.99 1298.39 1071.52 1298.43L1071.52 1301.14 1045.82 1301.14 1045.82 1298.43C1048.02 1298.33 1049.59 1298.2 1050.54 1298.03 1051.48 1297.86 1052.2 1297.61 1052.7 1297.27 1053.19 1296.93 1053.55 1296.46 1053.78 1295.84 1054.01 1295.23 1054.13 1294.22 1054.13 1292.83L1054.13 1271.3C1054.13 1270.48 1053.97 1269.9 1053.66 1269.54 1053.36 1269.18 1052.93 1269 1052.4 1269 1051.9 1269 1051.2 1269.23 1050.3 1269.69 1049.39 1270.15 1047.91 1271.08 1045.84 1272.49L1044.03 1269.33Z" fill-rule="evenodd"/><text fill="#000000" fill-opacity="0" font-family="Arial,Arial_MSFontService,sans-serif" font-size="41.1333" x="1044.03" y="1296">𝟏</text><path d="M1.14583-1.27315e-06 1.14617 301.887-1.1455 301.887-1.14583 1.27315e-06ZM13.7503 297.303 0.000360892 324.803-13.7497 297.303Z" transform="matrix(1 0 0 -1 976 1126.8)"/><path d="M1021.03 936.012 1041.98 936.012 1041.37 938.687C1040.18 938.768 1039.26 939.065 1038.59 939.578 1037.93 940.092 1037.46 940.781 1037.18 941.645 1036.89 942.51 1036.75 943.807 1036.75 945.536L1036.75 947.278C1036.75 947.873 1036.76 948.508 1036.79 949.183L1037.07 963.408C1037.18 968.839 1037.24 973.797 1037.24 978.282L1037.72 978.282 1050.81 953.722C1052.92 949.778 1054.21 947.123 1054.68 945.759 1055.16 944.394 1055.39 943.158 1055.39 942.05 1055.39 940.105 1054.24 938.984 1051.95 938.687L1052.56 936.012 1069.82 936.012 1069.21 938.687C1068.24 938.903 1067.4 939.274 1066.68 939.801 1065.96 940.328 1065.29 941.017 1064.67 941.868 1064.05 942.719 1063.13 944.225 1061.92 946.387L1036.75 991.615 1026.58 991.615 1024.83 948.292C1024.78 946.752 1024.67 945.367 1024.51 944.138 1024.35 942.908 1024.09 941.902 1023.74 941.118 1023.39 940.335 1022.95 939.761 1022.42 939.396 1021.9 939.031 1021.23 938.795 1020.42 938.687Z" fill-rule="evenodd"/><text fill="#000000" fill-opacity="0" font-family="Arial,Arial_MSFontService,sans-serif" font-size="55.6035" x="1020.42" y="984.665">𝑽</text><path d="M975.854 1711.8 975.854 1409.92 978.145 1409.92 978.146 1711.8ZM963.25 1414.5 977 1387 990.75 1414.5Z"/><path d="M1014.29 1520.66 1035.04 1520.66 1034.43 1523.33C1033.59 1523.44 1032.9 1523.63 1032.36 1523.9 1031.82 1524.17 1031.38 1524.54 1031.04 1525.01 1030.71 1525.49 1030.46 1526.07 1030.29 1526.78 1030.13 1527.48 1030.04 1528.13 1030.03 1528.72 1030.02 1529.32 1030 1531.02 1029.97 1533.83L1029.81 1549.07C1029.78 1551.74 1029.65 1556.05 1029.4 1562L1029.93 1562C1030.85 1559.91 1032.82 1555.85 1035.85 1549.8L1050.48 1520.66 1059.35 1520.66 1059.39 1547.2 1059.43 1550.81C1059.43 1554.59 1059.34 1558.32 1059.15 1562L1059.68 1562C1060.95 1559.35 1063.23 1554.77 1066.53 1548.26L1072.56 1536.46C1073.75 1534.17 1074.63 1532.29 1075.2 1530.83 1075.77 1529.37 1076.05 1528.16 1076.05 1527.18 1076.05 1526.37 1075.95 1525.72 1075.77 1525.24 1075.58 1524.75 1075.22 1524.35 1074.71 1524.02 1074.2 1523.7 1073.5 1523.47 1072.6 1523.33L1073.21 1520.66 1090.44 1520.66 1089.83 1523.33C1088.94 1523.49 1088.15 1523.82 1087.46 1524.3 1086.77 1524.79 1086.11 1525.44 1085.49 1526.25 1084.87 1527.06 1084.26 1527.99 1083.67 1529.03 1083.07 1530.07 1082.28 1531.52 1081.28 1533.38L1058.05 1576.26 1048.33 1576.26 1048.25 1550.16 1048.25 1543.27C1048.25 1541.52 1048.26 1539.68 1048.29 1537.76L1047.76 1537.76C1046.87 1539.76 1045.98 1541.62 1045.09 1543.35L1028.55 1576.26 1018.82 1576.26 1018.01 1533.14C1017.96 1530.57 1017.76 1528.63 1017.43 1527.3 1017.09 1525.98 1016.64 1525.03 1016.07 1524.45 1015.5 1523.87 1014.7 1523.49 1013.68 1523.33Z" fill-rule="evenodd"/><text fill="#000000" fill-opacity="0" font-family="Arial,Arial_MSFontService,sans-serif" font-size="55.6035" x="1013.68" y="1569.31">𝑾</text><path d="M854.5 1842C854.5 1770.48 912.479 1712.5 984 1712.5 1055.52 1712.5 1113.5 1770.48 1113.5 1842 1113.5 1913.52 1055.52 1971.5 984 1971.5 912.479 1971.5 854.5 1913.52 854.5 1842Z" stroke="#000000" stroke-width="4.58333" stroke-miterlimit="8" fill="none" fill-rule="evenodd"/><path d="M943.382 1828.09C945.544 1828.09 947.192 1828.42 948.327 1829.07 949.462 1829.71 950.394 1830.84 951.123 1832.45 951.853 1834.06 952.542 1836.63 953.19 1840.17L953.595 1840.17C955.595 1837.36 957.148 1835.25 958.256 1833.83 959.364 1832.41 960.39 1831.27 961.336 1830.42 962.282 1829.57 963.2 1828.97 964.092 1828.62 964.984 1828.27 966.037 1828.09 967.253 1828.09 968.604 1828.09 969.968 1828.34 971.346 1828.82L969.442 1837.58 965.794 1837.58C965.659 1836.44 965.159 1835.87 964.295 1835.87 963.916 1835.87 963.518 1835.97 963.099 1836.16 962.68 1836.35 962.126 1836.77 961.437 1837.43 960.748 1838.1 959.891 1839.06 958.864 1840.31 957.837 1841.57 956.297 1843.48 954.244 1846.05 955.189 1851.75 955.966 1855.83 956.574 1858.31 957.182 1860.78 957.81 1862.38 958.459 1863.11 958.837 1863.51 959.296 1863.72 959.837 1863.72 960.512 1863.72 961.14 1863.45 961.721 1862.93 962.302 1862.4 963.052 1861.22 963.97 1859.38L967.658 1861.08C966.091 1863.95 964.315 1866.08 962.329 1867.49 960.343 1868.89 958.013 1869.59 955.338 1869.59 953.69 1869.59 952.373 1869.38 951.387 1868.96 950.4 1868.55 949.563 1867.85 948.874 1866.88 948.185 1865.91 947.577 1864.53 947.05 1862.76 946.523 1860.99 946.03 1858.68 945.571 1855.81L945.166 1855.81C942.869 1859.11 941.032 1861.62 939.654 1863.35 938.276 1865.08 937.094 1866.38 936.108 1867.24 935.122 1868.11 934.176 1868.72 933.271 1869.07 932.366 1869.42 931.278 1869.59 930.008 1869.59 929.414 1869.59 928.691 1869.52 927.84 1869.37 926.989 1869.22 926.347 1869.07 925.915 1868.9L927.82 1860.11 931.467 1860.11C931.494 1860.68 931.636 1861.1 931.893 1861.39 932.15 1861.67 932.481 1861.81 932.886 1861.81 933.372 1861.81 933.825 1861.71 934.244 1861.51 934.662 1861.31 935.243 1860.85 935.986 1860.15 936.729 1859.45 937.668 1858.41 938.803 1857.05 939.938 1855.69 941.856 1853.29 944.558 1849.86 943.99 1846.67 943.457 1843.92 942.957 1841.61 942.457 1839.3 942.005 1837.62 941.599 1836.58 941.194 1835.54 940.809 1834.85 940.444 1834.5 940.079 1834.15 939.667 1833.97 939.208 1833.97 938.668 1833.97 938.195 1834.11 937.79 1834.4 937.384 1834.68 936.959 1835.14 936.513 1835.77 936.067 1836.41 935.588 1837.25 935.074 1838.31L931.386 1836.6C932.953 1833.74 934.716 1831.61 936.675 1830.2 938.634 1828.8 940.87 1828.09 943.382 1828.09Z" fill-rule="evenodd"/><text fill="#000000" fill-opacity="0" font-family="Arial,Arial_MSFontService,sans-serif" font-size="41.5" x="925.915" y="1864.41">𝒙</text><path d="M984.285 1848.8 991.433 1848.8 989.706 1856.24 996.943 1856.24 996.139 1859.96 988.842 1859.96 985.953 1871.88C985.456 1873.92 985.114 1875.48 984.925 1876.54 984.736 1877.6 984.642 1878.5 984.642 1879.24 984.642 1880.17 984.811 1880.85 985.148 1881.28 985.486 1881.7 985.982 1881.92 986.638 1881.92 987.531 1881.92 988.45 1881.6 989.393 1880.96 990.336 1880.33 991.354 1879.34 992.446 1878.01L994.739 1880.37C992.734 1882.57 990.892 1884.11 989.214 1884.97 987.536 1885.83 985.555 1886.27 983.272 1886.27 981.008 1886.27 979.271 1885.68 978.06 1884.52 976.848 1883.36 976.243 1881.76 976.243 1879.71 976.243 1878.78 976.312 1877.89 976.451 1877.05 976.59 1876.2 976.878 1874.82 977.315 1872.89L980.383 1859.96 975.736 1859.96 976.302 1857.55C977.692 1857.55 978.745 1857.42 979.459 1857.16 980.174 1856.91 980.775 1856.52 981.261 1856 981.748 1855.49 982.22 1854.7 982.676 1853.65 983.133 1852.6 983.669 1850.98 984.285 1848.8Z" fill-rule="evenodd"/><text fill="#000000" fill-opacity="0" font-family="Arial,Arial_MSFontService,sans-serif" font-size="37.4697" x="975.736" y="1881.58">𝒕</text><path d="M1002.49 1866.07 1036.81 1866.07 1036.81 1870.63 1002.49 1870.63Z" fill-rule="evenodd"/><text fill="#000000" fill-opacity="0" font-family="Arial,Arial_MSFontService,sans-serif" font-size="4.55713" x="1002.49" y="1870.06">−</text><path d="M1061.43 1844.66 1065.25 1844.66C1065.13 1846.56 1065.07 1849.2 1065.07 1852.58L1065.07 1877.48C1065.07 1878.63 1065.13 1879.5 1065.26 1880.08 1065.39 1880.67 1065.62 1881.15 1065.95 1881.51 1066.27 1881.88 1066.75 1882.17 1067.36 1882.38 1067.98 1882.59 1068.75 1882.75 1069.68 1882.85 1070.62 1882.96 1071.85 1883.04 1073.38 1883.08L1073.38 1885.79 1047.67 1885.79 1047.67 1883.08C1049.88 1882.98 1051.45 1882.84 1052.39 1882.68 1053.34 1882.51 1054.06 1882.25 1054.55 1881.92 1055.05 1881.58 1055.41 1881.1 1055.64 1880.49 1055.87 1879.87 1055.98 1878.87 1055.98 1877.48L1055.98 1855.94C1055.98 1855.13 1055.83 1854.54 1055.52 1854.19 1055.21 1853.83 1054.79 1853.65 1054.26 1853.65 1053.76 1853.65 1053.06 1853.88 1052.16 1854.34 1051.25 1854.79 1049.77 1855.73 1047.7 1857.14L1045.89 1853.98Z" fill-rule="evenodd"/><text fill="#000000" fill-opacity="0" font-family="Arial,Arial_MSFontService,sans-serif" font-size="41.1333" x="1045.89" y="1880.65">𝟏</text><path d="M853.5 672.5C853.5 600.703 911.479 542.5 983 542.5 1054.52 542.5 1112.5 600.703 1112.5 672.5 1112.5 744.297 1054.52 802.5 983 802.5 911.479 802.5 853.5 744.297 853.5 672.5Z" stroke="#000000" stroke-width="4.58333" stroke-miterlimit="8" fill="none" fill-rule="evenodd"/><path d="M956.227 664.76C954.444 664.76 952.627 665.631 950.776 667.374 948.925 669.116 947.446 671.136 946.338 673.433 945.23 675.729 944.217 678.971 943.299 683.159L942.974 684.659C942.542 686.658 942.326 688.617 942.326 690.535 942.326 692.507 942.657 693.926 943.319 694.79 943.981 695.655 945.095 696.087 946.662 696.087 948.013 696.087 949.243 695.783 950.35 695.175 951.458 694.568 952.505 693.575 953.491 692.197 954.477 690.819 955.437 689.042 956.369 686.867 957.301 684.692 958.105 682.092 958.78 679.066 959.456 676.04 959.793 673.23 959.793 670.636 959.793 668.637 959.503 667.158 958.922 666.198 958.341 665.239 957.443 664.76 956.227 664.76ZM938.354 658.802C940.597 658.802 942.387 659.43 943.724 660.687 945.062 661.943 945.73 663.598 945.73 665.651 945.73 666.327 945.649 666.975 945.487 667.597L945.892 667.921C948.378 664.76 950.783 662.45 953.106 660.991 955.43 659.532 958.118 658.802 961.171 658.802 964.224 658.802 966.595 659.91 968.284 662.125 969.972 664.341 970.817 667.543 970.817 671.73 970.817 675.378 970.29 678.998 969.236 682.592 968.182 686.185 966.669 689.286 964.697 691.893 962.725 694.5 960.246 696.553 957.26 698.053 954.275 699.552 950.904 700.302 947.149 700.302 944.744 700.302 942.421 699.883 940.178 699.046L938.638 706.26C938.395 707.448 938.219 708.374 938.111 709.036 938.003 709.698 937.949 710.312 937.949 710.88 937.949 712.042 938.253 712.879 938.861 713.393 939.469 713.906 940.516 714.244 942.002 714.406L941.556 717.081 924.697 717.081 934.95 671.487C935.355 669.677 935.558 668.34 935.558 667.475 935.558 666.583 935.409 665.894 935.112 665.408 934.815 664.922 934.302 664.679 933.572 664.679 932.734 664.679 931.829 665.057 930.857 665.813 929.884 666.57 928.749 667.691 927.452 669.177L924.534 666.259C927.236 663.503 929.634 661.572 931.728 660.464 933.822 659.356 936.031 658.802 938.354 658.802Z" fill-rule="evenodd"/><text fill="#000000" fill-opacity="0" font-family="Arial,Arial_MSFontService,sans-serif" font-size="58.2783" x="924.534" y="709.796">𝒑</text><path d="M986.585 679.504 993.733 679.504 992.005 686.951 999.243 686.951 998.439 690.674 991.142 690.674 988.253 702.588C987.756 704.633 987.414 706.187 987.225 707.249 987.036 708.312 986.942 709.21 986.942 709.945 986.942 710.878 987.111 711.558 987.448 711.985 987.786 712.412 988.282 712.625 988.938 712.625 989.831 712.625 990.75 712.308 991.693 711.672 992.636 711.037 993.654 710.054 994.746 708.724L997.039 711.077C995.034 713.281 993.192 714.815 991.514 715.678 989.836 716.542 987.855 716.974 985.572 716.974 983.308 716.974 981.571 716.393 980.359 715.232 979.148 714.07 978.543 712.467 978.543 710.421 978.543 709.488 978.612 708.599 978.751 707.756 978.89 706.912 979.178 705.527 979.615 703.601L982.683 690.674 978.036 690.674 978.602 688.261C979.992 688.261 981.045 688.132 981.759 687.874 982.474 687.616 983.075 687.229 983.561 686.712 984.048 686.196 984.519 685.412 984.976 684.359 985.433 683.307 985.969 681.689 986.585 679.504Z" fill-rule="evenodd"/><text fill="#000000" fill-opacity="0" font-family="Arial,Arial_MSFontService,sans-serif" font-size="37.4697" x="978.036" y="712.29">𝒕</text><path d="M1004.79 696.78 1039.11 696.78 1039.11 701.337 1004.79 701.337Z" fill-rule="evenodd"/><text fill="#000000" fill-opacity="0" font-family="Arial,Arial_MSFontService,sans-serif" font-size="4.55713" x="1004.79" y="700.767">−</text><path d="M1063.73 675.364 1067.55 675.364C1067.43 677.27 1067.37 679.911 1067.37 683.287L1067.37 708.187C1067.37 709.339 1067.43 710.208 1067.56 710.794 1067.69 711.379 1067.92 711.856 1068.25 712.223 1068.57 712.591 1069.05 712.879 1069.66 713.087 1070.28 713.296 1071.05 713.454 1071.98 713.564 1072.92 713.673 1074.15 713.747 1075.68 713.787L1075.68 716.497 1049.97 716.497 1049.97 713.787C1052.18 713.688 1053.75 713.554 1054.69 713.385 1055.64 713.216 1056.36 712.963 1056.85 712.625 1057.35 712.288 1057.71 711.811 1057.94 711.196 1058.17 710.58 1058.28 709.577 1058.28 708.187L1058.28 686.653C1058.28 685.839 1058.13 685.253 1057.82 684.895 1057.51 684.538 1057.09 684.359 1056.56 684.359 1056.06 684.359 1055.36 684.588 1054.46 685.044 1053.55 685.501 1052.07 686.434 1050 687.844L1048.19 684.687Z" fill-rule="evenodd"/><text fill="#000000" fill-opacity="0" font-family="Arial,Arial_MSFontService,sans-serif" font-size="41.1333" x="1048.19" y="711.356">𝟏</text><path d="M2151.5 1253.5C2151.5 1181.7 2209.7 1123.5 2281.5 1123.5 2353.3 1123.5 2411.5 1181.7 2411.5 1253.5 2411.5 1325.3 2353.3 1383.5 2281.5 1383.5 2209.7 1383.5 2151.5 1325.3 2151.5 1253.5Z" stroke="#000000" stroke-width="4.58333" stroke-miterlimit="8" fill="none" fill-rule="evenodd"/><path d="M2246.05 1222.83 2250.63 1222.83 2244.39 1247.59 2244.92 1247.75C2247.11 1245.1 2249.31 1243.15 2251.52 1241.89 2253.74 1240.64 2256.2 1240.01 2258.9 1240.01 2261.66 1240.01 2263.82 1240.79 2265.39 1242.36 2266.95 1243.93 2267.74 1246.06 2267.74 1248.76 2267.74 1249.63 2267.65 1250.71 2267.47 1252.01 2267.3 1253.3 2267.09 1254.45 2266.84 1255.45L2263.64 1268.1C2263.18 1269.91 2262.95 1271.49 2262.95 1272.84 2262.95 1273.89 2263.13 1274.62 2263.48 1275.03 2263.83 1275.43 2264.33 1275.63 2264.98 1275.63 2265.76 1275.63 2266.63 1275.27 2267.59 1274.54 2268.55 1273.81 2269.71 1272.67 2271.06 1271.13L2273.98 1274.05C2271.33 1276.75 2268.96 1278.67 2266.86 1279.81 2264.77 1280.94 2262.47 1281.51 2259.95 1281.51 2257.2 1281.51 2255.13 1280.83 2253.75 1279.48 2252.38 1278.13 2251.69 1276.07 2251.69 1273.28 2251.69 1271.15 2252.05 1268.68 2252.78 1265.87L2254.65 1258.81C2255.1 1257.06 2255.5 1255.34 2255.82 1253.65 2256.15 1251.96 2256.31 1250.59 2256.31 1249.53 2256.31 1248.37 2256.06 1247.48 2255.58 1246.86 2255.09 1246.24 2254.36 1245.93 2253.39 1245.93 2252.01 1245.93 2250.4 1246.8 2248.57 1248.54 2246.73 1250.28 2245.36 1252.01 2244.45 1253.71 2243.55 1255.41 2242.84 1257.53 2242.33 1260.07L2237.87 1280.86 2226.24 1280.86 2236.49 1235.07C2237.08 1232.42 2237.38 1230.49 2237.38 1229.27 2237.38 1228.68 2237.32 1228.21 2237.2 1227.87 2237.08 1227.53 2236.89 1227.26 2236.65 1227.04 2236.41 1226.82 2236.08 1226.66 2235.68 1226.53 2235.27 1226.41 2234.48 1226.27 2233.29 1226.11L2233.94 1223.47Z" fill-rule="evenodd"/><text fill="#000000" fill-opacity="0" font-family="Arial,Arial_MSFontService,sans-serif" font-size="58.6836" x="2226.24" y="1274.17">𝒉</text><path d="M2286.68 1260.71 2293.82 1260.71 2292.1 1268.16 2299.33 1268.16 2298.53 1271.88 2291.23 1271.88 2288.34 1283.8C2287.85 1285.84 2287.51 1287.39 2287.32 1288.46 2287.13 1289.52 2287.03 1290.42 2287.03 1291.15 2287.03 1292.09 2287.2 1292.77 2287.54 1293.19 2287.88 1293.62 2288.37 1293.83 2289.03 1293.83 2289.92 1293.83 2290.84 1293.52 2291.78 1292.88 2292.73 1292.24 2293.75 1291.26 2294.84 1289.93L2297.13 1292.28C2295.12 1294.49 2293.28 1296.02 2291.61 1296.89 2289.93 1297.75 2287.95 1298.18 2285.66 1298.18 2283.4 1298.18 2281.66 1297.6 2280.45 1296.44 2279.24 1295.28 2278.63 1293.67 2278.63 1291.63 2278.63 1290.7 2278.7 1289.81 2278.84 1288.96 2278.98 1288.12 2279.27 1286.73 2279.71 1284.81L2282.77 1271.88 2278.13 1271.88 2278.69 1269.47C2280.08 1269.47 2281.14 1269.34 2281.85 1269.08 2282.57 1268.82 2283.17 1268.44 2283.65 1267.92 2284.14 1267.4 2284.61 1266.62 2285.07 1265.57 2285.52 1264.51 2286.06 1262.9 2286.68 1260.71Z" fill-rule="evenodd"/><text fill="#000000" fill-opacity="0" font-family="Arial,Arial_MSFontService,sans-serif" font-size="37.4697" x="2278.13" y="1293.5">𝒕</text><path d="M2319.63 1262.32 2324.45 1262.32 2324.45 1277.99 2339.2 1277.99 2339.2 1282.54 2324.45 1282.54 2324.45 1298.21 2319.63 1298.21 2319.63 1282.54 2304.88 1282.54 2304.88 1277.99 2319.63 1277.99Z" fill-rule="evenodd"/><text fill="#000000" fill-opacity="0" font-family="Arial,Arial_MSFontService,sans-serif" font-size="35.8911" x="2304.88" y="1293.73">+</text><path d="M2363.83 1256.57 2367.64 1256.57C2367.52 1258.48 2367.46 1261.12 2367.46 1264.49L2367.46 1289.4C2367.46 1290.55 2367.52 1291.42 2367.65 1292 2367.78 1292.59 2368.01 1293.06 2368.34 1293.43 2368.67 1293.8 2369.14 1294.09 2369.75 1294.29 2370.37 1294.5 2371.14 1294.66 2372.08 1294.77 2373.01 1294.88 2374.24 1294.96 2375.77 1294.99L2375.77 1297.71 2350.06 1297.71 2350.06 1294.99C2352.27 1294.9 2353.84 1294.76 2354.79 1294.59 2355.73 1294.42 2356.45 1294.17 2356.95 1293.83 2357.44 1293.5 2357.8 1293.02 2358.03 1292.4 2358.26 1291.79 2358.37 1290.79 2358.37 1289.4L2358.37 1267.86C2358.37 1267.05 2358.22 1266.46 2357.91 1266.1 2357.61 1265.75 2357.18 1265.57 2356.65 1265.57 2356.15 1265.57 2355.45 1265.8 2354.55 1266.25 2353.64 1266.71 2352.16 1267.64 2350.09 1269.05L2348.28 1265.89Z" fill-rule="evenodd"/><text fill="#000000" fill-opacity="0" font-family="Arial,Arial_MSFontService,sans-serif" font-size="41.1333" x="2348.28" y="1292.56">𝟏</text><path d="M1.14583-1.27315e-06 1.14617 301.887-1.1455 301.887-1.14583 1.27315e-06ZM13.7503 297.303 0.000360892 324.803-13.7497 297.303Z" transform="matrix(1 0 0 -1 2281 1123.8)"/><path d="M2325.27 932.574 2346.23 932.574 2345.62 935.249C2344.43 935.33 2343.51 935.627 2342.84 936.141 2342.18 936.654 2341.71 937.343 2341.43 938.208 2341.14 939.072 2341 940.369 2341 942.098L2341 943.841C2341 944.435 2341.01 945.07 2341.04 945.746L2341.32 959.971C2341.43 965.401 2341.49 970.359 2341.49 974.844L2341.97 974.844 2355.06 950.285C2357.17 946.34 2358.46 943.686 2358.93 942.321 2359.41 940.957 2359.64 939.721 2359.64 938.613 2359.64 936.668 2358.49 935.546 2356.2 935.249L2356.81 932.574 2374.07 932.574 2373.46 935.249C2372.49 935.465 2371.65 935.837 2370.93 936.364 2370.21 936.891 2369.54 937.579 2368.92 938.431 2368.3 939.282 2367.38 940.788 2366.17 942.949L2341 988.178 2330.83 988.178 2329.08 944.854C2329.03 943.314 2328.92 941.929 2328.76 940.7 2328.6 939.471 2328.34 938.464 2327.99 937.681 2327.64 936.897 2327.2 936.323 2326.67 935.958 2326.15 935.594 2325.48 935.357 2324.67 935.249Z" fill-rule="evenodd"/><text fill="#000000" fill-opacity="0" font-family="Arial,Arial_MSFontService,sans-serif" font-size="55.6035" x="2324.67" y="981.227">𝑽</text><path d="M2279.85 1707.8 2279.85 1405.92 2282.15 1405.92 2282.15 1707.8ZM2267.25 1410.5 2281 1383 2294.75 1410.5Z"/><path d="M2318.53 1517.22 2339.28 1517.22 2338.68 1519.89C2337.84 1520 2337.15 1520.19 2336.61 1520.46 2336.07 1520.73 2335.63 1521.1 2335.29 1521.58 2334.96 1522.05 2334.71 1522.64 2334.54 1523.34 2334.38 1524.04 2334.29 1524.69 2334.28 1525.28 2334.27 1525.88 2334.25 1527.58 2334.22 1530.39L2334.06 1545.63C2334.03 1548.3 2333.89 1552.61 2333.65 1558.56L2334.18 1558.56C2335.1 1556.48 2337.07 1552.41 2340.1 1546.36L2354.73 1517.22 2363.6 1517.22 2363.64 1543.77 2363.68 1547.37C2363.68 1551.15 2363.59 1554.88 2363.4 1558.56L2363.93 1558.56C2365.2 1555.91 2367.48 1551.33 2370.77 1544.82L2376.81 1533.03C2378 1530.73 2378.88 1528.85 2379.45 1527.39 2380.01 1525.93 2380.3 1524.72 2380.3 1523.74 2380.3 1522.93 2380.2 1522.29 2380.01 1521.8 2379.83 1521.31 2379.47 1520.91 2378.96 1520.58 2378.45 1520.26 2377.75 1520.03 2376.85 1519.89L2377.46 1517.22 2394.69 1517.22 2394.08 1519.89C2393.19 1520.06 2392.4 1520.38 2391.71 1520.87 2391.02 1521.35 2390.36 1522 2389.74 1522.81 2389.12 1523.62 2388.51 1524.55 2387.92 1525.59 2387.32 1526.63 2386.53 1528.08 2385.53 1529.95L2362.3 1572.82 2352.58 1572.82 2352.5 1546.72 2352.5 1539.83C2352.5 1538.08 2352.51 1536.24 2352.54 1534.32L2352.01 1534.32C2351.12 1536.32 2350.23 1538.19 2349.34 1539.92L2332.8 1572.82 2323.07 1572.82 2322.26 1529.7C2322.21 1527.14 2322.01 1525.19 2321.68 1523.87 2321.34 1522.54 2320.89 1521.59 2320.32 1521.01 2319.75 1520.43 2318.95 1520.06 2317.93 1519.89Z" fill-rule="evenodd"/><text fill="#000000" fill-opacity="0" font-family="Arial,Arial_MSFontService,sans-serif" font-size="55.6035" x="2317.93" y="1565.87">𝑾</text><path d="M2158.5 1838.5C2158.5 1766.7 2216.7 1708.5 2288.5 1708.5 2360.3 1708.5 2418.5 1766.7 2418.5 1838.5 2418.5 1910.3 2360.3 1968.5 2288.5 1968.5 2216.7 1968.5 2158.5 1910.3 2158.5 1838.5Z" stroke="#000000" stroke-width="4.58333" stroke-miterlimit="8" fill="none" fill-rule="evenodd"/><path d="M2247.63 1824.66C2249.79 1824.66 2251.44 1824.98 2252.58 1825.63 2253.71 1826.28 2254.64 1827.4 2255.37 1829.01 2256.1 1830.62 2256.79 1833.19 2257.44 1836.73L2257.84 1836.73C2259.84 1833.92 2261.4 1831.81 2262.51 1830.39 2263.61 1828.97 2264.64 1827.84 2265.59 1826.99 2266.53 1826.13 2267.45 1825.53 2268.34 1825.18 2269.23 1824.83 2270.29 1824.66 2271.5 1824.66 2272.85 1824.66 2274.22 1824.9 2275.6 1825.39L2273.69 1834.14 2270.04 1834.14C2269.91 1833 2269.41 1832.44 2268.54 1832.44 2268.17 1832.44 2267.77 1832.53 2267.35 1832.72 2266.93 1832.91 2266.38 1833.34 2265.69 1834 2265 1834.66 2264.14 1835.62 2263.11 1836.87 2262.09 1838.13 2260.55 1840.04 2258.49 1842.61 2259.44 1848.31 2260.22 1852.4 2260.82 1854.87 2261.43 1857.34 2262.06 1858.94 2262.71 1859.67 2263.09 1860.08 2263.55 1860.28 2264.09 1860.28 2264.76 1860.28 2265.39 1860.02 2265.97 1859.49 2266.55 1858.96 2267.3 1857.78 2268.22 1855.94L2271.91 1857.64C2270.34 1860.51 2268.56 1862.64 2266.58 1864.05 2264.59 1865.45 2262.26 1866.16 2259.59 1866.16 2257.94 1866.16 2256.62 1865.95 2255.64 1865.53 2254.65 1865.11 2253.81 1864.41 2253.12 1863.44 2252.43 1862.47 2251.83 1861.1 2251.3 1859.33 2250.77 1857.56 2250.28 1855.24 2249.82 1852.38L2249.42 1852.38C2247.12 1855.67 2245.28 1858.19 2243.9 1859.91 2242.53 1861.64 2241.34 1862.94 2240.36 1863.81 2239.37 1864.67 2238.43 1865.28 2237.52 1865.63 2236.62 1865.98 2235.53 1866.16 2234.26 1866.16 2233.66 1866.16 2232.94 1866.08 2232.09 1865.93 2231.24 1865.78 2230.6 1865.63 2230.16 1865.47L2232.07 1856.67 2235.72 1856.67C2235.74 1857.24 2235.89 1857.67 2236.14 1857.95 2236.4 1858.23 2236.73 1858.37 2237.14 1858.37 2237.62 1858.37 2238.07 1858.27 2238.49 1858.07 2238.91 1857.87 2239.49 1857.42 2240.24 1856.71 2240.98 1856.01 2241.92 1854.98 2243.05 1853.61 2244.19 1852.25 2246.11 1849.85 2248.81 1846.42 2248.24 1843.23 2247.71 1840.48 2247.21 1838.17 2246.71 1835.86 2246.25 1834.19 2245.85 1833.15 2245.44 1832.11 2245.06 1831.41 2244.69 1831.06 2244.33 1830.71 2243.92 1830.53 2243.46 1830.53 2242.92 1830.53 2242.44 1830.67 2242.04 1830.96 2241.63 1831.24 2241.21 1831.7 2240.76 1832.34 2240.32 1832.97 2239.84 1833.81 2239.32 1834.87L2235.64 1833.17C2237.2 1830.3 2238.97 1828.17 2240.92 1826.76 2242.88 1825.36 2245.12 1824.66 2247.63 1824.66Z" fill-rule="evenodd"/><text fill="#000000" fill-opacity="0" font-family="Arial,Arial_MSFontService,sans-serif" font-size="41.5" x="2230.16" y="1860.97">𝒙</text><path d="M2288.53 1845.36 2295.68 1845.36 2293.96 1852.8 2301.19 1852.8 2300.39 1856.53 2293.09 1856.53 2290.2 1868.44C2289.71 1870.49 2289.36 1872.04 2289.17 1873.1 2288.99 1874.17 2288.89 1875.06 2288.89 1875.8 2288.89 1876.73 2289.06 1877.41 2289.4 1877.84 2289.74 1878.27 2290.23 1878.48 2290.89 1878.48 2291.78 1878.48 2292.7 1878.16 2293.64 1877.53 2294.59 1876.89 2295.6 1875.91 2296.7 1874.58L2298.99 1876.93C2296.98 1879.13 2295.14 1880.67 2293.46 1881.53 2291.79 1882.4 2289.8 1882.83 2287.52 1882.83 2285.26 1882.83 2283.52 1882.25 2282.31 1881.09 2281.1 1879.92 2280.49 1878.32 2280.49 1876.27 2280.49 1875.34 2280.56 1874.45 2280.7 1873.61 2280.84 1872.77 2281.13 1871.38 2281.56 1869.45L2284.63 1856.53 2279.99 1856.53 2280.55 1854.11C2281.94 1854.11 2282.99 1853.99 2283.71 1853.73 2284.42 1853.47 2285.02 1853.08 2285.51 1852.57 2286 1852.05 2286.47 1851.27 2286.93 1850.21 2287.38 1849.16 2287.92 1847.54 2288.53 1845.36Z" fill-rule="evenodd"/><text fill="#000000" fill-opacity="0" font-family="Arial,Arial_MSFontService,sans-serif" font-size="37.4697" x="2279.99" y="1878.14">𝒕</text><path d="M2321.49 1846.97 2326.31 1846.97 2326.31 1862.63 2341.06 1862.63 2341.06 1867.19 2326.31 1867.19 2326.31 1882.86 2321.49 1882.86 2321.49 1867.19 2306.74 1867.19 2306.74 1862.63 2321.49 1862.63Z" fill-rule="evenodd"/><text fill="#000000" fill-opacity="0" font-family="Arial,Arial_MSFontService,sans-serif" font-size="35.8911" x="2306.74" y="1878.37">+</text><path d="M2365.68 1841.22 2369.5 1841.22C2369.38 1843.12 2369.32 1845.76 2369.32 1849.14L2369.32 1874.04C2369.32 1875.19 2369.38 1876.06 2369.51 1876.65 2369.64 1877.23 2369.87 1877.71 2370.2 1878.08 2370.52 1878.44 2371 1878.73 2371.61 1878.94 2372.23 1879.15 2373 1879.31 2373.93 1879.42 2374.87 1879.53 2376.1 1879.6 2377.63 1879.64L2377.63 1882.35 2351.92 1882.35 2351.92 1879.64C2354.13 1879.54 2355.7 1879.41 2356.64 1879.24 2357.59 1879.07 2358.31 1878.82 2358.8 1878.48 2359.3 1878.14 2359.66 1877.66 2359.89 1877.05 2360.12 1876.43 2360.23 1875.43 2360.23 1874.04L2360.23 1852.51C2360.23 1851.69 2360.08 1851.11 2359.77 1850.75 2359.46 1850.39 2359.04 1850.21 2358.51 1850.21 2358.01 1850.21 2357.31 1850.44 2356.41 1850.9 2355.5 1851.35 2354.02 1852.29 2351.95 1853.7L2350.14 1850.54Z" fill-rule="evenodd"/><text fill="#000000" fill-opacity="0" font-family="Arial,Arial_MSFontService,sans-serif" font-size="41.1333" x="2350.14" y="1877.21">𝟏</text><path d="M2157.5 669.5C2157.5 597.703 2215.7 539.5 2287.5 539.5 2359.3 539.5 2417.5 597.703 2417.5 669.5 2417.5 741.297 2359.3 799.5 2287.5 799.5 2215.7 799.5 2157.5 741.297 2157.5 669.5Z" stroke="#000000" stroke-width="4.58333" stroke-miterlimit="8" fill="none" fill-rule="evenodd"/><path d="M2260.48 661.322C2258.69 661.322 2256.88 662.194 2255.03 663.936 2253.17 665.679 2251.7 667.698 2250.59 669.995 2249.48 672.292 2248.47 675.534 2247.55 679.722L2247.22 681.221C2246.79 683.22 2246.58 685.179 2246.58 687.098 2246.58 689.07 2246.91 690.488 2247.57 691.353 2248.23 692.218 2249.34 692.65 2250.91 692.65 2252.26 692.65 2253.49 692.346 2254.6 691.738 2255.71 691.13 2256.75 690.137 2257.74 688.759 2258.73 687.381 2259.69 685.605 2260.62 683.43 2261.55 681.255 2262.35 678.654 2263.03 675.628 2263.71 672.602 2264.04 669.792 2264.04 667.199 2264.04 665.199 2263.75 663.72 2263.17 662.761 2262.59 661.802 2261.69 661.322 2260.48 661.322ZM2242.6 655.365C2244.85 655.365 2246.64 655.993 2247.97 657.249 2249.31 658.506 2249.98 660.16 2249.98 662.214 2249.98 662.889 2249.9 663.538 2249.74 664.159L2250.14 664.483C2252.63 661.322 2255.03 659.012 2257.36 657.553 2259.68 656.094 2262.37 655.365 2265.42 655.365 2268.47 655.365 2270.84 656.472 2272.53 658.688 2274.22 660.903 2275.07 664.105 2275.07 668.293 2275.07 671.94 2274.54 675.561 2273.49 679.154 2272.43 682.748 2270.92 685.848 2268.95 688.455 2266.97 691.062 2264.5 693.116 2261.51 694.615 2258.52 696.115 2255.15 696.865 2251.4 696.865 2248.99 696.865 2246.67 696.446 2244.43 695.608L2242.89 702.822C2242.64 704.011 2242.47 704.936 2242.36 705.598 2242.25 706.26 2242.2 706.875 2242.2 707.442 2242.2 708.604 2242.5 709.442 2243.11 709.955 2243.72 710.468 2244.77 710.806 2246.25 710.968L2245.81 713.643 2228.95 713.643 2239.2 668.05C2239.6 666.24 2239.81 664.902 2239.81 664.038 2239.81 663.146 2239.66 662.457 2239.36 661.971 2239.06 661.484 2238.55 661.241 2237.82 661.241 2236.98 661.241 2236.08 661.619 2235.11 662.376 2234.13 663.132 2233 664.254 2231.7 665.74L2228.78 662.822C2231.49 660.066 2233.88 658.134 2235.98 657.026 2238.07 655.919 2240.28 655.365 2242.6 655.365Z" fill-rule="evenodd"/><text fill="#000000" fill-opacity="0" font-family="Arial,Arial_MSFontService,sans-serif" font-size="58.2783" x="2228.78" y="706.358">𝒑</text><path d="M2290.83 676.067 2297.98 676.067 2296.26 683.513 2303.49 683.513 2302.69 687.236 2295.39 687.236 2292.5 699.15C2292.01 701.196 2291.66 702.749 2291.47 703.812 2291.29 704.874 2291.19 705.773 2291.19 706.507 2291.19 707.441 2291.36 708.121 2291.7 708.548 2292.04 708.974 2292.53 709.188 2293.19 709.188 2294.08 709.188 2295 708.87 2295.94 708.235 2296.89 707.599 2297.9 706.616 2299 705.286L2301.29 707.639C2299.28 709.843 2297.44 711.377 2295.76 712.241 2294.09 713.105 2292.1 713.537 2289.82 713.537 2287.56 713.537 2285.82 712.956 2284.61 711.794 2283.4 710.633 2282.79 709.029 2282.79 706.984 2282.79 706.051 2282.86 705.162 2283 704.318 2283.14 703.474 2283.43 702.089 2283.86 700.163L2286.93 687.236 2282.29 687.236 2282.85 684.824C2284.24 684.824 2285.29 684.695 2286.01 684.436 2286.72 684.178 2287.32 683.791 2287.81 683.275 2288.3 682.759 2288.77 681.974 2289.23 680.922 2289.68 679.869 2290.22 678.251 2290.83 676.067Z" fill-rule="evenodd"/><text fill="#000000" fill-opacity="0" font-family="Arial,Arial_MSFontService,sans-serif" font-size="37.4697" x="2282.29" y="708.853">𝒕</text><path d="M2323.79 677.675 2328.61 677.675 2328.61 693.342 2343.36 693.342 2343.36 697.899 2328.61 697.899 2328.61 713.566 2323.79 713.566 2323.79 697.899 2309.04 697.899 2309.04 693.342 2323.79 693.342Z" fill-rule="evenodd"/><text fill="#000000" fill-opacity="0" font-family="Arial,Arial_MSFontService,sans-serif" font-size="35.8911" x="2309.04" y="709.08">+</text><path d="M2367.98 671.927 2371.8 671.927C2371.68 673.833 2371.62 676.474 2371.62 679.85L2371.62 704.75C2371.62 705.902 2371.68 706.77 2371.81 707.356 2371.94 707.942 2372.17 708.418 2372.5 708.786 2372.82 709.153 2373.3 709.441 2373.91 709.65 2374.53 709.858 2375.3 710.017 2376.23 710.126 2377.17 710.235 2378.4 710.31 2379.93 710.35L2379.93 713.06 2354.22 713.06 2354.22 710.35C2356.43 710.25 2358 710.116 2358.94 709.947 2359.89 709.779 2360.61 709.526 2361.1 709.188 2361.6 708.85 2361.96 708.374 2362.19 707.758 2362.42 707.143 2362.53 706.14 2362.53 704.75L2362.53 683.215C2362.53 682.401 2362.38 681.815 2362.07 681.458 2361.76 681.101 2361.34 680.922 2360.81 680.922 2360.31 680.922 2359.61 681.15 2358.71 681.607 2357.8 682.064 2356.32 682.997 2354.25 684.407L2352.44 681.249Z" fill-rule="evenodd"/><text fill="#000000" fill-opacity="0" font-family="Arial,Arial_MSFontService,sans-serif" font-size="41.1333" x="2352.44" y="707.918">𝟏</text><path d="M1761 1250.85 2127.85 1250.85 2127.85 1253.15 1761 1253.15ZM2123.26 1238.25 2150.76 1252 2123.26 1265.75Z"/><path d="M1946.29 1161.62 1966.67 1161.62 1966.1 1164.3C1964.56 1164.73 1963.43 1165.48 1962.7 1166.56 1961.97 1167.65 1961.28 1169.64 1960.63 1172.56L1955.16 1197.41C1954.76 1199.22 1954.49 1200.72 1954.35 1201.92 1954.22 1203.13 1954.15 1204.28 1954.15 1205.39 1954.15 1207.82 1954.75 1209.67 1955.95 1210.94 1957.15 1212.21 1958.92 1212.85 1961.24 1212.85 1963.54 1212.85 1965.46 1212.35 1967 1211.35 1968.54 1210.35 1969.77 1208.92 1970.7 1207.07 1971.64 1205.22 1972.43 1202.84 1973.07 1199.92L1979.11 1172.56C1979.36 1171.51 1979.51 1170.61 1979.56 1169.87 1979.61 1169.12 1979.64 1168.44 1979.64 1167.82 1979.64 1166.69 1979.38 1165.86 1978.85 1165.33 1978.32 1164.8 1977.47 1164.46 1976.28 1164.3L1976.84 1161.62 1994.11 1161.62 1993.54 1164.3C1991.97 1164.73 1990.82 1165.5 1990.08 1166.61 1989.33 1167.71 1988.66 1169.7 1988.07 1172.56L1982.6 1197.65C1981.82 1201.3 1980.77 1204.42 1979.46 1207.01 1978.15 1209.6 1976.57 1211.67 1974.74 1213.19 1972.9 1214.72 1970.76 1215.83 1968.33 1216.54 1965.9 1217.24 1962.93 1217.59 1959.42 1217.59 1957.12 1217.59 1954.95 1217.3 1952.91 1216.72 1950.87 1216.14 1949.1 1215.24 1947.58 1214.02 1946.07 1212.81 1944.87 1211.29 1944 1209.46 1943.12 1207.64 1942.68 1205.47 1942.68 1202.96 1942.68 1201.61 1942.77 1200.15 1942.96 1198.58 1943.15 1197.01 1943.61 1194.57 1944.34 1191.25L1948.56 1172.56C1948.91 1171 1949.08 1169.42 1949.08 1167.82 1949.08 1166.69 1948.82 1165.86 1948.29 1165.33 1947.77 1164.8 1946.91 1164.46 1945.72 1164.3Z" fill-rule="evenodd"/><text fill="#000000" fill-opacity="0" font-family="Arial,Arial_MSFontService,sans-serif" font-size="55.9683" x="1942.68" y="1210.59">𝑼</text><path d="M2930.5 1253.5C2930.5 1181.7 2988.7 1123.5 3060.5 1123.5 3132.3 1123.5 3190.5 1181.7 3190.5 1253.5 3190.5 1325.3 3132.3 1383.5 3060.5 1383.5 2988.7 1383.5 2930.5 1325.3 2930.5 1253.5Z" stroke="#000000" stroke-width="4.58333" stroke-miterlimit="8" fill="none" fill-rule="evenodd"/><path d="M3036.91 1222.83 3041.49 1222.83 3035.25 1247.59 3035.77 1247.75C3037.96 1245.1 3040.16 1243.15 3042.38 1241.89 3044.6 1240.64 3047.05 1240.01 3049.76 1240.01 3052.51 1240.01 3054.67 1240.79 3056.24 1242.36 3057.81 1243.93 3058.59 1246.06 3058.59 1248.76 3058.59 1249.63 3058.5 1250.71 3058.33 1252.01 3058.15 1253.3 3057.94 1254.45 3057.7 1255.45L3054.5 1268.1C3054.04 1269.91 3053.81 1271.49 3053.81 1272.84 3053.81 1273.89 3053.98 1274.62 3054.34 1275.03 3054.69 1275.43 3055.19 1275.63 3055.83 1275.63 3056.62 1275.63 3057.49 1275.27 3058.45 1274.54 3059.41 1273.81 3060.56 1272.67 3061.91 1271.13L3064.83 1274.05C3062.18 1276.75 3059.81 1278.67 3057.72 1279.81 3055.63 1280.94 3053.32 1281.51 3050.81 1281.51 3048.05 1281.51 3045.99 1280.83 3044.61 1279.48 3043.23 1278.13 3042.54 1276.07 3042.54 1273.28 3042.54 1271.15 3042.91 1268.68 3043.64 1265.87L3045.5 1258.81C3045.96 1257.06 3046.35 1255.34 3046.68 1253.65 3047 1251.96 3047.16 1250.59 3047.16 1249.53 3047.16 1248.37 3046.92 1247.48 3046.43 1246.86 3045.95 1246.24 3045.22 1245.93 3044.24 1245.93 3042.87 1245.93 3041.26 1246.8 3039.42 1248.54 3037.58 1250.28 3036.21 1252.01 3035.31 1253.71 3034.4 1255.41 3033.69 1257.53 3033.18 1260.07L3028.72 1280.86 3017.09 1280.86 3027.34 1235.07C3027.94 1232.42 3028.24 1230.49 3028.24 1229.27 3028.24 1228.68 3028.18 1228.21 3028.05 1227.87 3027.93 1227.53 3027.75 1227.26 3027.51 1227.04 3027.26 1226.82 3026.94 1226.66 3026.53 1226.53 3026.13 1226.41 3025.33 1226.27 3024.14 1226.11L3024.79 1223.47Z" fill-rule="evenodd"/><text fill="#000000" fill-opacity="0" font-family="Arial,Arial_MSFontService,sans-serif" font-size="58.6836" x="3017.09" y="1274.17">𝒉</text><path d="M3069.82 1257.05 3102.64 1257.05 3100.29 1267.83 3096.47 1267.83C3096.45 1265.63 3096.33 1264.08 3096.09 1263.2 3095.85 1262.32 3095.47 1261.65 3094.94 1261.2 3094.41 1260.76 3093.67 1260.53 3092.72 1260.53L3090.07 1260.53 3083.67 1289.66C3083.53 1290.32 3083.43 1290.87 3083.37 1291.33 3083.31 1291.79 3083.28 1292.39 3083.28 1293.15 3083.28 1294.06 3083.51 1294.71 3083.98 1295.08 3084.45 1295.46 3085.18 1295.68 3086.17 1295.74L3085.75 1297.71 3069.94 1297.71 3070.35 1295.74C3071.23 1295.62 3071.92 1295.36 3072.44 1294.96 3072.95 1294.57 3073.39 1293.98 3073.73 1293.19 3074.08 1292.41 3074.43 1291.23 3074.79 1289.66L3081.19 1260.53 3078.81 1260.53C3077.72 1260.53 3076.84 1260.7 3076.16 1261.02 3075.49 1261.35 3074.73 1262.04 3073.9 1263.08 3073.06 1264.12 3072.26 1265.5 3071.48 1267.21L3067.58 1267.21Z" fill-rule="evenodd"/><text fill="#000000" fill-opacity="0" font-family="Arial,Arial_MSFontService,sans-serif" font-size="40.6567" x="3067.58" y="1292.62">𝑻</text><path d="M1.14583-1.27315e-06 1.14617 301.887-1.1455 301.887-1.14583 1.27315e-06ZM13.7503 297.303 0.000360892 324.803-13.7497 297.303Z" transform="matrix(1 0 0 -1 3059 1123.8)"/><path d="M3104.1 932.574 3125.05 932.574 3124.44 935.249C3123.25 935.33 3122.33 935.627 3121.67 936.141 3121.01 936.654 3120.53 937.343 3120.25 938.208 3119.97 939.072 3119.82 940.369 3119.82 942.098L3119.82 943.841C3119.82 944.435 3119.84 945.07 3119.86 945.746L3120.15 959.971C3120.26 965.401 3120.31 970.359 3120.31 974.844L3120.8 974.844 3133.89 950.285C3135.99 946.34 3137.28 943.686 3137.76 942.321 3138.23 940.957 3138.47 939.721 3138.47 938.613 3138.47 936.668 3137.32 935.546 3135.02 935.249L3135.63 932.574 3152.89 932.574 3152.29 935.249C3151.31 935.465 3150.47 935.837 3149.75 936.364 3149.04 936.891 3148.37 937.579 3147.75 938.431 3147.13 939.282 3146.21 940.788 3144.99 942.949L3119.82 988.178 3109.65 988.178 3107.91 944.854C3107.85 943.314 3107.75 941.929 3107.58 940.7 3107.42 939.471 3107.17 938.464 3106.81 937.681 3106.46 936.897 3106.02 936.323 3105.5 935.958 3104.97 935.594 3104.3 935.357 3103.49 935.249Z" fill-rule="evenodd"/><text fill="#000000" fill-opacity="0" font-family="Arial,Arial_MSFontService,sans-serif" font-size="55.6035" x="3103.49" y="981.227">𝑽</text><path d="M3058.85 1707.8 3058.85 1405.92 3061.15 1405.92 3061.15 1707.8ZM3046.25 1410.5 3060 1383 3073.75 1410.5Z"/><path d="M3097.36 1517.22 3118.11 1517.22 3117.5 1519.89C3116.66 1520 3115.97 1520.19 3115.43 1520.46 3114.89 1520.73 3114.45 1521.1 3114.12 1521.58 3113.78 1522.05 3113.53 1522.64 3113.37 1523.34 3113.2 1524.04 3113.12 1524.69 3113.1 1525.28 3113.09 1525.88 3113.07 1527.58 3113.04 1530.39L3112.88 1545.63C3112.85 1548.3 3112.72 1552.61 3112.48 1558.56L3113 1558.56C3113.92 1556.48 3115.89 1552.41 3118.92 1546.36L3133.55 1517.22 3142.43 1517.22 3142.47 1543.77 3142.51 1547.37C3142.51 1551.15 3142.41 1554.88 3142.22 1558.56L3142.75 1558.56C3144.02 1555.91 3146.3 1551.33 3149.6 1544.82L3155.64 1533.03C3156.83 1530.73 3157.7 1528.85 3158.27 1527.39 3158.84 1525.93 3159.12 1524.72 3159.12 1523.74 3159.12 1522.93 3159.03 1522.29 3158.84 1521.8 3158.65 1521.31 3158.3 1520.91 3157.78 1520.58 3157.27 1520.26 3156.57 1520.03 3155.68 1519.89L3156.29 1517.22 3173.51 1517.22 3172.9 1519.89C3172.01 1520.06 3171.22 1520.38 3170.53 1520.87 3169.84 1521.35 3169.19 1522 3168.57 1522.81 3167.94 1523.62 3167.34 1524.55 3166.74 1525.59 3166.15 1526.63 3165.35 1528.08 3164.35 1529.95L3141.13 1572.82 3131.4 1572.82 3131.32 1546.72 3131.32 1539.83C3131.32 1538.08 3131.33 1536.24 3131.36 1534.32L3130.83 1534.32C3129.94 1536.32 3129.05 1538.19 3128.16 1539.92L3111.62 1572.82 3101.9 1572.82 3101.09 1529.7C3101.03 1527.14 3100.84 1525.19 3100.5 1523.87 3100.16 1522.54 3099.71 1521.59 3099.14 1521.01 3098.57 1520.43 3097.78 1520.06 3096.75 1519.89Z" fill-rule="evenodd"/><text fill="#000000" fill-opacity="0" font-family="Arial,Arial_MSFontService,sans-serif" font-size="55.6035" x="3096.75" y="1565.87">𝑾</text><path d="M2937.5 1838.5C2937.5 1766.7 2995.7 1708.5 3067.5 1708.5 3139.3 1708.5 3197.5 1766.7 3197.5 1838.5 3197.5 1910.3 3139.3 1968.5 3067.5 1968.5 2995.7 1968.5 2937.5 1910.3 2937.5 1838.5Z" stroke="#000000" stroke-width="4.58333" stroke-miterlimit="8" fill="none" fill-rule="evenodd"/><path d="M3040.78 1824.66C3042.94 1824.66 3044.59 1824.98 3045.72 1825.63 3046.86 1826.28 3047.79 1827.4 3048.52 1829.01 3049.25 1830.62 3049.94 1833.19 3050.59 1836.73L3050.99 1836.73C3052.99 1833.92 3054.54 1831.81 3055.65 1830.39 3056.76 1828.97 3057.79 1827.84 3058.73 1826.99 3059.68 1826.13 3060.6 1825.53 3061.49 1825.18 3062.38 1824.83 3063.43 1824.66 3064.65 1824.66 3066 1824.66 3067.36 1824.9 3068.74 1825.39L3066.84 1834.14 3063.19 1834.14C3063.06 1833 3062.56 1832.44 3061.69 1832.44 3061.31 1832.44 3060.91 1832.53 3060.5 1832.72 3060.08 1832.91 3059.52 1833.34 3058.83 1834 3058.14 1834.66 3057.29 1835.62 3056.26 1836.87 3055.23 1838.13 3053.69 1840.04 3051.64 1842.61 3052.59 1848.31 3053.36 1852.4 3053.97 1854.87 3054.58 1857.34 3055.21 1858.94 3055.85 1859.67 3056.23 1860.08 3056.69 1860.28 3057.23 1860.28 3057.91 1860.28 3058.54 1860.02 3059.12 1859.49 3059.7 1858.96 3060.45 1857.78 3061.37 1855.94L3065.05 1857.64C3063.49 1860.51 3061.71 1862.64 3059.73 1864.05 3057.74 1865.45 3055.41 1866.16 3052.73 1866.16 3051.09 1866.16 3049.77 1865.95 3048.78 1865.53 3047.8 1865.11 3046.96 1864.41 3046.27 1863.44 3045.58 1862.47 3044.97 1861.1 3044.45 1859.33 3043.92 1857.56 3043.43 1855.24 3042.97 1852.38L3042.56 1852.38C3040.27 1855.67 3038.43 1858.19 3037.05 1859.91 3035.67 1861.64 3034.49 1862.94 3033.5 1863.81 3032.52 1864.67 3031.57 1865.28 3030.67 1865.63 3029.76 1865.98 3028.67 1866.16 3027.4 1866.16 3026.81 1866.16 3026.09 1866.08 3025.24 1865.93 3024.39 1865.78 3023.74 1865.63 3023.31 1865.47L3025.22 1856.67 3028.86 1856.67C3028.89 1857.24 3029.03 1857.67 3029.29 1857.95 3029.55 1858.23 3029.88 1858.37 3030.28 1858.37 3030.77 1858.37 3031.22 1858.27 3031.64 1858.07 3032.06 1857.87 3032.64 1857.42 3033.38 1856.71 3034.13 1856.01 3035.06 1854.98 3036.2 1853.61 3037.33 1852.25 3039.25 1849.85 3041.95 1846.42 3041.39 1843.23 3040.85 1840.48 3040.35 1838.17 3039.85 1835.86 3039.4 1834.19 3039 1833.15 3038.59 1832.11 3038.21 1831.41 3037.84 1831.06 3037.48 1830.71 3037.06 1830.53 3036.6 1830.53 3036.06 1830.53 3035.59 1830.67 3035.19 1830.96 3034.78 1831.24 3034.35 1831.7 3033.91 1832.34 3033.46 1832.97 3032.98 1833.81 3032.47 1834.87L3028.78 1833.17C3030.35 1830.3 3032.11 1828.17 3034.07 1826.76 3036.03 1825.36 3038.27 1824.66 3040.78 1824.66Z" fill-rule="evenodd"/><text fill="#000000" fill-opacity="0" font-family="Arial,Arial_MSFontService,sans-serif" font-size="41.5" x="3023.31" y="1860.97">𝒙</text><path d="M3073.97 1841.69 3106.79 1841.69 3104.44 1852.48 3100.62 1852.48C3100.6 1850.27 3100.48 1848.73 3100.24 1847.84 3100 1846.96 3099.62 1846.3 3099.09 1845.85 3098.56 1845.4 3097.82 1845.18 3096.87 1845.18L3094.22 1845.18 3087.82 1874.31C3087.68 1874.96 3087.58 1875.52 3087.52 1875.98 3087.46 1876.43 3087.43 1877.04 3087.43 1877.79 3087.43 1878.71 3087.66 1879.35 3088.13 1879.73 3088.6 1880.11 3089.33 1880.33 3090.32 1880.39L3089.9 1882.35 3074.09 1882.35 3074.5 1880.39C3075.38 1880.27 3076.07 1880.01 3076.59 1879.61 3077.1 1879.21 3077.54 1878.62 3077.88 1877.84 3078.23 1877.05 3078.58 1875.88 3078.94 1874.31L3085.34 1845.18 3082.96 1845.18C3081.87 1845.18 3080.99 1845.34 3080.31 1845.67 3079.64 1846 3078.88 1846.68 3078.05 1847.73 3077.21 1848.77 3076.41 1850.14 3075.63 1851.85L3071.73 1851.85Z" fill-rule="evenodd"/><text fill="#000000" fill-opacity="0" font-family="Arial,Arial_MSFontService,sans-serif" font-size="40.6567" x="3071.73" y="1877.27">𝑻</text><path d="M2936.5 669.5C2936.5 597.703 2994.48 539.5 3066 539.5 3137.52 539.5 3195.5 597.703 3195.5 669.5 3195.5 741.297 3137.52 799.5 3066 799.5 2994.48 799.5 2936.5 741.297 2936.5 669.5Z" stroke="#000000" stroke-width="4.58333" stroke-miterlimit="8" fill="none" fill-rule="evenodd"/><path d="M3051.9 661.322C3050.12 661.322 3048.3 662.194 3046.45 663.936 3044.6 665.679 3043.12 667.698 3042.02 669.995 3040.91 672.292 3039.89 675.534 3038.98 679.722L3038.65 681.221C3038.22 683.22 3038 685.179 3038 687.098 3038 689.07 3038.33 690.488 3039 691.353 3039.66 692.218 3040.77 692.65 3042.34 692.65 3043.69 692.65 3044.92 692.346 3046.03 691.738 3047.14 691.13 3048.18 690.137 3049.17 688.759 3050.15 687.381 3051.11 685.605 3052.05 683.43 3052.98 681.255 3053.78 678.654 3054.46 675.628 3055.13 672.602 3055.47 669.792 3055.47 667.199 3055.47 665.199 3055.18 663.72 3054.6 662.761 3054.02 661.802 3053.12 661.322 3051.9 661.322ZM3034.03 655.365C3036.27 655.365 3038.06 655.993 3039.4 657.249 3040.74 658.506 3041.41 660.16 3041.41 662.214 3041.41 662.889 3041.33 663.538 3041.16 664.159L3041.57 664.483C3044.06 661.322 3046.46 659.012 3048.78 657.553 3051.11 656.094 3053.8 655.365 3056.85 655.365 3059.9 655.365 3062.27 656.472 3063.96 658.688 3065.65 660.903 3066.49 664.105 3066.49 668.293 3066.49 671.94 3065.97 675.561 3064.91 679.154 3063.86 682.748 3062.35 685.848 3060.37 688.455 3058.4 691.062 3055.92 693.116 3052.94 694.615 3049.95 696.115 3046.58 696.865 3042.83 696.865 3040.42 696.865 3038.1 696.446 3035.86 695.608L3034.32 702.822C3034.07 704.011 3033.9 704.936 3033.79 705.598 3033.68 706.26 3033.63 706.875 3033.63 707.442 3033.63 708.604 3033.93 709.442 3034.54 709.955 3035.15 710.468 3036.19 710.806 3037.68 710.968L3037.23 713.643 3020.37 713.643 3030.63 668.05C3031.03 666.24 3031.24 664.902 3031.24 664.038 3031.24 663.146 3031.09 662.457 3030.79 661.971 3030.49 661.484 3029.98 661.241 3029.25 661.241 3028.41 661.241 3027.51 661.619 3026.53 662.376 3025.56 663.132 3024.43 664.254 3023.13 665.74L3020.21 662.822C3022.91 660.066 3025.31 658.134 3027.41 657.026 3029.5 655.919 3031.71 655.365 3034.03 655.365Z" fill-rule="evenodd"/><text fill="#000000" fill-opacity="0" font-family="Arial,Arial_MSFontService,sans-serif" font-size="58.2783" x="3020.21" y="706.358">𝒑</text><path d="M3074.55 672.403 3107.37 672.403 3105.02 683.185 3101.21 683.185C3101.19 680.981 3101.06 679.438 3100.82 678.554 3100.58 677.67 3100.2 677.005 3099.67 676.558 3099.15 676.112 3098.41 675.888 3097.45 675.888L3094.8 675.888 3088.4 705.018C3088.26 705.673 3088.16 706.229 3088.1 706.686 3088.04 707.143 3088.01 707.748 3088.01 708.503 3088.01 709.416 3088.24 710.062 3088.71 710.439 3089.18 710.816 3089.91 711.035 3090.9 711.094L3090.48 713.06 3074.67 713.06 3075.08 711.094C3075.96 710.975 3076.65 710.717 3077.17 710.32 3077.69 709.923 3078.12 709.332 3078.46 708.548 3078.81 707.763 3079.16 706.587 3079.52 705.018L3085.93 675.888 3083.54 675.888C3082.45 675.888 3081.57 676.052 3080.89 676.38 3080.22 676.707 3079.46 677.392 3078.63 678.435 3077.79 679.477 3076.99 680.852 3076.22 682.56L3072.31 682.56Z" fill-rule="evenodd"/><text fill="#000000" fill-opacity="0" font-family="Arial,Arial_MSFontService,sans-serif" font-size="40.6567" x="3072.31" y="707.978">𝑻</text><path d="M616.126 1249.94C617.531 1249.94 618.706 1250.44 619.652 1251.42 620.598 1252.41 621.07 1253.66 621.07 1255.17 621.07 1256.68 620.598 1257.93 619.652 1258.92 618.706 1259.91 617.531 1260.4 616.126 1260.4 614.721 1260.4 613.546 1259.91 612.6 1258.92 611.655 1257.93 611.182 1256.68 611.182 1255.17 611.182 1253.66 611.655 1252.41 612.6 1251.42 613.546 1250.44 614.721 1249.94 616.126 1249.94ZM591.566 1249.94C592.971 1249.94 594.147 1250.44 595.092 1251.42 596.038 1252.41 596.511 1253.66 596.511 1255.17 596.511 1256.68 596.038 1257.93 595.092 1258.92 594.147 1259.91 592.971 1260.4 591.566 1260.4 590.161 1260.4 588.986 1259.91 588.041 1258.92 587.095 1257.93 586.622 1256.68 586.622 1255.17 586.622 1253.66 587.095 1252.41 588.041 1251.42 588.986 1250.44 590.161 1249.94 591.566 1249.94ZM567.007 1249.94C568.412 1249.94 569.587 1250.44 570.533 1251.42 571.478 1252.41 571.951 1253.66 571.951 1255.17 571.951 1256.68 571.478 1257.93 570.533 1258.92 569.587 1259.91 568.412 1260.4 567.007 1260.4 565.602 1260.4 564.427 1259.91 563.481 1258.92 562.535 1257.93 562.063 1256.68 562.063 1255.17 562.063 1253.66 562.535 1252.41 563.481 1251.42 564.427 1250.44 565.602 1249.94 567.007 1249.94Z" fill-rule="evenodd"/><text fill="#000000" fill-opacity="0" font-family="Arial,Arial_MSFontService,sans-serif" font-size="10.4561" x="562.063" y="1259.09">⋯</text><path d="M2696.33 1246.05C2697.74 1246.05 2698.91 1246.54 2699.86 1247.53 2700.8 1248.51 2701.27 1249.76 2701.27 1251.27 2701.27 1252.79 2700.8 1254.04 2699.86 1255.02 2698.91 1256.01 2697.74 1256.5 2696.33 1256.5 2694.93 1256.5 2693.75 1256.01 2692.8 1255.02 2691.86 1254.04 2691.39 1252.79 2691.39 1251.27 2691.39 1249.76 2691.86 1248.51 2692.8 1247.53 2693.75 1246.54 2694.93 1246.05 2696.33 1246.05ZM2671.77 1246.05C2673.18 1246.05 2674.35 1246.54 2675.3 1247.53 2676.24 1248.51 2676.72 1249.76 2676.72 1251.27 2676.72 1252.79 2676.24 1254.04 2675.3 1255.02 2674.35 1256.01 2673.18 1256.5 2671.77 1256.5 2670.37 1256.5 2669.19 1256.01 2668.24 1255.02 2667.3 1254.04 2666.83 1252.79 2666.83 1251.27 2666.83 1249.76 2667.3 1248.51 2668.24 1247.53 2669.19 1246.54 2670.37 1246.05 2671.77 1246.05ZM2647.21 1246.05C2648.62 1246.05 2649.79 1246.54 2650.74 1247.53 2651.68 1248.51 2652.16 1249.76 2652.16 1251.27 2652.16 1252.79 2651.68 1254.04 2650.74 1255.02 2649.79 1256.01 2648.62 1256.5 2647.21 1256.5 2645.81 1256.5 2644.63 1256.01 2643.69 1255.02 2642.74 1254.04 2642.27 1252.79 2642.27 1251.27 2642.27 1249.76 2642.74 1248.51 2643.69 1247.53 2644.63 1246.54 2645.81 1246.05 2647.21 1246.05Z" fill-rule="evenodd"/><text fill="#000000" fill-opacity="0" font-family="Arial,Arial_MSFontService,sans-serif" font-size="10.4561" x="2642.27" y="1255.2">⋯</text><path d="M2.12191e-06-1.14583 171.965-1.14551 171.965 1.14615-2.12191e-06 1.14583ZM167.382-13.7497 194.882 0.000360892 167.382 13.7503Z" transform="matrix(1 0 0 -1 334 1255)"/><path d="M0.00786787-1.14581 171.974 0.0350262 171.958 2.32664-0.00786787 1.14581ZM167.477-12.6003 194.882 1.33819 167.288 14.899Z" transform="matrix(1 0 0 -1 650 1254.34)"/><path d="M2.12191e-06-1.14583 171.965-1.14551 171.965 1.14615-2.12191e-06 1.14583ZM167.382-13.7497 194.882 0.000360892 167.382 13.7503Z" transform="matrix(1 0 0 -1 2411 1249)"/><path d="M2.12191e-06-1.14583 171.965-1.14551 171.965 1.14615-2.12191e-06 1.14583ZM167.382-13.7497 194.882 0.000360892 167.382 13.7503Z" transform="matrix(1 0 0 -1 2735 1248)"/><text font-family="SimSun,SimSun_MSFontService,sans-serif" font-weight="400" font-size="92" transform="matrix(1 0 0 1 1446.59 2180)">展开形式</text><path d="M3613.5 1253.5C3613.5 1181.7 3671.7 1123.5 3743.5 1123.5 3815.3 1123.5 3873.5 1181.7 3873.5 1253.5 3873.5 1325.3 3815.3 1383.5 3743.5 1383.5 3671.7 1383.5 3613.5 1325.3 3613.5 1253.5Z" stroke="#000000" stroke-width="4.58333" stroke-miterlimit="8" fill="none" fill-rule="evenodd"/><path d="M3726.25 1222.83 3730.83 1222.83 3724.59 1247.59 3725.11 1247.75C3727.3 1245.1 3729.51 1243.15 3731.72 1241.89 3733.94 1240.64 3736.39 1240.01 3739.1 1240.01 3741.85 1240.01 3744.01 1240.79 3745.58 1242.36 3747.15 1243.93 3747.93 1246.06 3747.93 1248.76 3747.93 1249.63 3747.84 1250.71 3747.67 1252.01 3747.49 1253.3 3747.28 1254.45 3747.04 1255.45L3743.84 1268.1C3743.38 1269.91 3743.15 1271.49 3743.15 1272.84 3743.15 1273.89 3743.32 1274.62 3743.68 1275.03 3744.03 1275.43 3744.53 1275.63 3745.18 1275.63 3745.96 1275.63 3746.83 1275.27 3747.79 1274.54 3748.75 1273.81 3749.9 1272.67 3751.25 1271.13L3754.17 1274.05C3751.53 1276.75 3749.15 1278.67 3747.06 1279.81 3744.97 1280.94 3742.66 1281.51 3740.15 1281.51 3737.39 1281.51 3735.33 1280.83 3733.95 1279.48 3732.57 1278.13 3731.88 1276.07 3731.88 1273.28 3731.88 1271.15 3732.25 1268.68 3732.98 1265.87L3734.84 1258.81C3735.3 1257.06 3735.69 1255.34 3736.02 1253.65 3736.34 1251.96 3736.5 1250.59 3736.5 1249.53 3736.5 1248.37 3736.26 1247.48 3735.77 1246.86 3735.29 1246.24 3734.56 1245.93 3733.58 1245.93 3732.21 1245.93 3730.6 1246.8 3728.76 1248.54 3726.93 1250.28 3725.55 1252.01 3724.65 1253.71 3723.74 1255.41 3723.03 1257.53 3722.52 1260.07L3718.06 1280.86 3706.43 1280.86 3716.69 1235.07C3717.28 1232.42 3717.58 1230.49 3717.58 1229.27 3717.58 1228.68 3717.52 1228.21 3717.39 1227.87 3717.27 1227.53 3717.09 1227.26 3716.85 1227.04 3716.6 1226.82 3716.28 1226.66 3715.87 1226.53 3715.47 1226.41 3714.67 1226.27 3713.48 1226.11L3714.13 1223.47Z" fill-rule="evenodd"/><text fill="#000000" fill-opacity="0" font-family="Arial,Arial_MSFontService,sans-serif" font-size="58.6836" x="3706.43" y="1274.17">𝒉</text><path d="M3766.87 1260.71 3774.02 1260.71 3772.29 1268.16 3779.53 1268.16 3778.73 1271.88 3771.43 1271.88 3768.54 1283.8C3768.04 1285.84 3767.7 1287.39 3767.51 1288.46 3767.32 1289.52 3767.23 1290.42 3767.23 1291.15 3767.23 1292.09 3767.4 1292.77 3767.74 1293.19 3768.07 1293.62 3768.57 1293.83 3769.22 1293.83 3770.12 1293.83 3771.04 1293.52 3771.98 1292.88 3772.92 1292.24 3773.94 1291.26 3775.03 1289.93L3777.33 1292.28C3775.32 1294.49 3773.48 1296.02 3771.8 1296.89 3770.12 1297.75 3768.14 1298.18 3765.86 1298.18 3763.6 1298.18 3761.86 1297.6 3760.65 1296.44 3759.44 1295.28 3758.83 1293.67 3758.83 1291.63 3758.83 1290.7 3758.9 1289.81 3759.04 1288.96 3759.18 1288.12 3759.47 1286.73 3759.9 1284.81L3762.97 1271.88 3758.32 1271.88 3758.89 1269.47C3760.28 1269.47 3761.33 1269.34 3762.05 1269.08 3762.76 1268.82 3763.36 1268.44 3763.85 1267.92 3764.33 1267.4 3764.81 1266.62 3765.26 1265.57 3765.72 1264.51 3766.26 1262.9 3766.87 1260.71Z" fill-rule="evenodd"/><text fill="#000000" fill-opacity="0" font-family="Arial,Arial_MSFontService,sans-serif" font-size="37.4697" x="3758.32" y="1293.5">𝒕</text><path d="M1.14583-1.27315e-06 1.14617 301.887-1.1455 301.887-1.14583 1.27315e-06ZM13.7503 297.303 0.000360892 324.803-13.7497 297.303Z" transform="matrix(1 0 0 -1 3743 1123.8)"/><path d="M3787.14 932.574 3808.09 932.574 3807.48 935.249C3806.29 935.33 3805.37 935.627 3804.71 936.141 3804.04 936.654 3803.57 937.343 3803.29 938.208 3803 939.072 3802.86 940.369 3802.86 942.098L3802.86 943.841C3802.86 944.435 3802.88 945.07 3802.9 945.746L3803.19 959.971C3803.29 965.401 3803.35 970.359 3803.35 974.844L3803.83 974.844 3816.92 950.285C3819.03 946.34 3820.32 943.686 3820.8 942.321 3821.27 940.957 3821.5 939.721 3821.5 938.613 3821.5 936.668 3820.36 935.546 3818.06 935.249L3818.67 932.574 3835.93 932.574 3835.32 935.249C3834.35 935.465 3833.51 935.837 3832.79 936.364 3832.08 936.891 3831.41 937.579 3830.79 938.431 3830.16 939.282 3829.25 940.788 3828.03 942.949L3802.86 988.178 3792.69 988.178 3790.95 944.854C3790.89 943.314 3790.78 941.929 3790.62 940.7 3790.46 939.471 3790.2 938.464 3789.85 937.681 3789.5 936.897 3789.06 936.323 3788.54 935.958 3788.01 935.594 3787.34 935.357 3786.53 935.249Z" fill-rule="evenodd"/><text fill="#000000" fill-opacity="0" font-family="Arial,Arial_MSFontService,sans-serif" font-size="55.6035" x="3786.53" y="981.227">𝑽</text><path d="M3741.85 1707.8 3741.85 1405.92 3744.15 1405.92 3744.15 1707.8ZM3729.25 1410.5 3743 1383 3756.75 1410.5Z"/><path d="M3780.4 1517.22 3801.15 1517.22 3800.54 1519.89C3799.7 1520 3799.01 1520.19 3798.47 1520.46 3797.93 1520.73 3797.49 1521.1 3797.16 1521.58 3796.82 1522.05 3796.57 1522.64 3796.41 1523.34 3796.24 1524.04 3796.16 1524.69 3796.14 1525.28 3796.13 1525.88 3796.11 1527.58 3796.08 1530.39L3795.92 1545.63C3795.89 1548.3 3795.76 1552.61 3795.51 1558.56L3796.04 1558.56C3796.96 1556.48 3798.93 1552.41 3801.96 1546.36L3816.59 1517.22 3825.46 1517.22 3825.5 1543.77 3825.54 1547.37C3825.54 1551.15 3825.45 1554.88 3825.26 1558.56L3825.79 1558.56C3827.06 1555.91 3829.34 1551.33 3832.64 1544.82L3838.68 1533.03C3839.86 1530.73 3840.74 1528.85 3841.31 1527.39 3841.88 1525.93 3842.16 1524.72 3842.16 1523.74 3842.16 1522.93 3842.07 1522.29 3841.88 1521.8 3841.69 1521.31 3841.34 1520.91 3840.82 1520.58 3840.31 1520.26 3839.61 1520.03 3838.72 1519.89L3839.32 1517.22 3856.55 1517.22 3855.94 1519.89C3855.05 1520.06 3854.26 1520.38 3853.57 1520.87 3852.88 1521.35 3852.23 1522 3851.6 1522.81 3850.98 1523.62 3850.37 1524.55 3849.78 1525.59 3849.19 1526.63 3848.39 1528.08 3847.39 1529.95L3824.17 1572.82 3814.44 1572.82 3814.36 1546.72 3814.36 1539.83C3814.36 1538.08 3814.37 1536.24 3814.4 1534.32L3813.87 1534.32C3812.98 1536.32 3812.09 1538.19 3811.2 1539.92L3794.66 1572.82 3784.94 1572.82 3784.13 1529.7C3784.07 1527.14 3783.88 1525.19 3783.54 1523.87 3783.2 1522.54 3782.75 1521.59 3782.18 1521.01 3781.61 1520.43 3780.82 1520.06 3779.79 1519.89Z" fill-rule="evenodd"/><text fill="#000000" fill-opacity="0" font-family="Arial,Arial_MSFontService,sans-serif" font-size="55.6035" x="3779.79" y="1565.87">𝑾</text><path d="M3620.5 1838.5C3620.5 1766.7 3678.7 1708.5 3750.5 1708.5 3822.3 1708.5 3880.5 1766.7 3880.5 1838.5 3880.5 1910.3 3822.3 1968.5 3750.5 1968.5 3678.7 1968.5 3620.5 1910.3 3620.5 1838.5Z" stroke="#000000" stroke-width="4.58333" stroke-miterlimit="8" fill="none" fill-rule="evenodd"/><path d="M3730.12 1824.66C3732.28 1824.66 3733.93 1824.98 3735.06 1825.63 3736.2 1826.28 3737.13 1827.4 3737.86 1829.01 3738.59 1830.62 3739.28 1833.19 3739.93 1836.73L3740.33 1836.73C3742.33 1833.92 3743.89 1831.81 3744.99 1830.39 3746.1 1828.97 3747.13 1827.84 3748.07 1826.99 3749.02 1826.13 3749.94 1825.53 3750.83 1825.18 3751.72 1824.83 3752.77 1824.66 3753.99 1824.66 3755.34 1824.66 3756.71 1824.9 3758.08 1825.39L3756.18 1834.14 3752.53 1834.14C3752.4 1833 3751.9 1832.44 3751.03 1832.44 3750.65 1832.44 3750.25 1832.53 3749.84 1832.72 3749.42 1832.91 3748.86 1833.34 3748.17 1834 3747.49 1834.66 3746.63 1835.62 3745.6 1836.87 3744.57 1838.13 3743.03 1840.04 3740.98 1842.61 3741.93 1848.31 3742.7 1852.4 3743.31 1854.87 3743.92 1857.34 3744.55 1858.94 3745.2 1859.67 3745.57 1860.08 3746.03 1860.28 3746.57 1860.28 3747.25 1860.28 3747.88 1860.02 3748.46 1859.49 3749.04 1858.96 3749.79 1857.78 3750.71 1855.94L3754.4 1857.64C3752.83 1860.51 3751.05 1862.64 3749.07 1864.05 3747.08 1865.45 3744.75 1866.16 3742.07 1866.16 3740.43 1866.16 3739.11 1865.95 3738.12 1865.53 3737.14 1865.11 3736.3 1864.41 3735.61 1863.44 3734.92 1862.47 3734.31 1861.1 3733.79 1859.33 3733.26 1857.56 3732.77 1855.24 3732.31 1852.38L3731.9 1852.38C3729.61 1855.67 3727.77 1858.19 3726.39 1859.91 3725.01 1861.64 3723.83 1862.94 3722.84 1863.81 3721.86 1864.67 3720.91 1865.28 3720.01 1865.63 3719.1 1865.98 3718.02 1866.16 3716.75 1866.16 3716.15 1866.16 3715.43 1866.08 3714.58 1865.93 3713.73 1865.78 3713.08 1865.63 3712.65 1865.47L3714.56 1856.67 3718.2 1856.67C3718.23 1857.24 3718.37 1857.67 3718.63 1857.95 3718.89 1858.23 3719.22 1858.37 3719.62 1858.37 3720.11 1858.37 3720.56 1858.27 3720.98 1858.07 3721.4 1857.87 3721.98 1857.42 3722.72 1856.71 3723.47 1856.01 3724.41 1854.98 3725.54 1853.61 3726.67 1852.25 3728.59 1849.85 3731.29 1846.42 3730.73 1843.23 3730.19 1840.48 3729.69 1838.17 3729.19 1835.86 3728.74 1834.19 3728.34 1833.15 3727.93 1832.11 3727.55 1831.41 3727.18 1831.06 3726.82 1830.71 3726.4 1830.53 3725.95 1830.53 3725.4 1830.53 3724.93 1830.67 3724.53 1830.96 3724.12 1831.24 3723.7 1831.7 3723.25 1832.34 3722.8 1832.97 3722.32 1833.81 3721.81 1834.87L3718.12 1833.17C3719.69 1830.3 3721.45 1828.17 3723.41 1826.76 3725.37 1825.36 3727.61 1824.66 3730.12 1824.66Z" fill-rule="evenodd"/><text fill="#000000" fill-opacity="0" font-family="Arial,Arial_MSFontService,sans-serif" font-size="41.5" x="3712.65" y="1860.97">𝒙</text><path d="M3771.02 1845.36 3778.17 1845.36 3776.44 1852.8 3783.68 1852.8 3782.88 1856.53 3775.58 1856.53 3772.69 1868.44C3772.19 1870.49 3771.85 1872.04 3771.66 1873.1 3771.47 1874.17 3771.38 1875.06 3771.38 1875.8 3771.38 1876.73 3771.55 1877.41 3771.89 1877.84 3772.22 1878.27 3772.72 1878.48 3773.37 1878.48 3774.27 1878.48 3775.19 1878.16 3776.13 1877.53 3777.07 1876.89 3778.09 1875.91 3779.18 1874.58L3781.48 1876.93C3779.47 1879.13 3777.63 1880.67 3775.95 1881.53 3774.27 1882.4 3772.29 1882.83 3770.01 1882.83 3767.75 1882.83 3766.01 1882.25 3764.8 1881.09 3763.59 1879.92 3762.98 1878.32 3762.98 1876.27 3762.98 1875.34 3763.05 1874.45 3763.19 1873.61 3763.33 1872.77 3763.61 1871.38 3764.05 1869.45L3767.12 1856.53 3762.47 1856.53 3763.04 1854.11C3764.43 1854.11 3765.48 1853.99 3766.2 1853.73 3766.91 1853.47 3767.51 1853.08 3768 1852.57 3768.48 1852.05 3768.96 1851.27 3769.41 1850.21 3769.87 1849.16 3770.41 1847.54 3771.02 1845.36Z" fill-rule="evenodd"/><text fill="#000000" fill-opacity="0" font-family="Arial,Arial_MSFontService,sans-serif" font-size="37.4697" x="3762.47" y="1878.14">𝒕</text><path d="M3619.5 669.5C3619.5 597.703 3677.48 539.5 3749 539.5 3820.52 539.5 3878.5 597.703 3878.5 669.5 3878.5 741.297 3820.52 799.5 3749 799.5 3677.48 799.5 3619.5 741.297 3619.5 669.5Z" stroke="#000000" stroke-width="4.58333" stroke-miterlimit="8" fill="none" fill-rule="evenodd"/><path d="M3741.25 661.322C3739.46 661.322 3737.65 662.194 3735.79 663.936 3733.94 665.679 3732.46 667.698 3731.36 669.995 3730.25 672.292 3729.24 675.534 3728.32 679.722L3727.99 681.221C3727.56 683.22 3727.34 685.179 3727.34 687.098 3727.34 689.07 3727.68 690.488 3728.34 691.353 3729 692.218 3730.11 692.65 3731.68 692.65 3733.03 692.65 3734.26 692.346 3735.37 691.738 3736.48 691.13 3737.52 690.137 3738.51 688.759 3739.5 687.381 3740.45 685.605 3741.39 683.43 3742.32 681.255 3743.12 678.654 3743.8 675.628 3744.47 672.602 3744.81 669.792 3744.81 667.199 3744.81 665.199 3744.52 663.72 3743.94 662.761 3743.36 661.802 3742.46 661.322 3741.25 661.322ZM3723.37 655.365C3725.61 655.365 3727.41 655.993 3728.74 657.249 3730.08 658.506 3730.75 660.16 3730.75 662.214 3730.75 662.889 3730.67 663.538 3730.51 664.159L3730.91 664.483C3733.4 661.322 3735.8 659.012 3738.12 657.553 3740.45 656.094 3743.14 655.365 3746.19 655.365 3749.24 655.365 3751.61 656.472 3753.3 658.688 3754.99 660.903 3755.83 664.105 3755.83 668.293 3755.83 671.94 3755.31 675.561 3754.25 679.154 3753.2 682.748 3751.69 685.848 3749.72 688.455 3747.74 691.062 3745.26 693.116 3742.28 694.615 3739.29 696.115 3735.92 696.865 3732.17 696.865 3729.76 696.865 3727.44 696.446 3725.2 695.608L3723.66 702.822C3723.41 704.011 3723.24 704.936 3723.13 705.598 3723.02 706.26 3722.97 706.875 3722.97 707.442 3722.97 708.604 3723.27 709.442 3723.88 709.955 3724.49 710.468 3725.53 710.806 3727.02 710.968L3726.57 713.643 3709.71 713.643 3719.97 668.05C3720.37 666.24 3720.58 664.902 3720.58 664.038 3720.58 663.146 3720.43 662.457 3720.13 661.971 3719.83 661.484 3719.32 661.241 3718.59 661.241 3717.75 661.241 3716.85 661.619 3715.88 662.376 3714.9 663.132 3713.77 664.254 3712.47 665.74L3709.55 662.822C3712.25 660.066 3714.65 658.134 3716.75 657.026 3718.84 655.919 3721.05 655.365 3723.37 655.365Z" fill-rule="evenodd"/><text fill="#000000" fill-opacity="0" font-family="Arial,Arial_MSFontService,sans-serif" font-size="58.2783" x="3709.55" y="706.358">𝒑</text><path d="M3771.6 676.067 3778.75 676.067 3777.02 683.513 3784.26 683.513 3783.46 687.236 3776.16 687.236 3773.27 699.15C3772.77 701.196 3772.43 702.749 3772.24 703.812 3772.05 704.874 3771.96 705.773 3771.96 706.507 3771.96 707.441 3772.13 708.121 3772.47 708.548 3772.8 708.974 3773.3 709.188 3773.96 709.188 3774.85 709.188 3775.77 708.87 3776.71 708.235 3777.65 707.599 3778.67 706.616 3779.76 705.286L3782.06 707.639C3780.05 709.843 3778.21 711.377 3776.53 712.241 3774.85 713.105 3772.87 713.537 3770.59 713.537 3768.33 713.537 3766.59 712.956 3765.38 711.794 3764.17 710.633 3763.56 709.029 3763.56 706.984 3763.56 706.051 3763.63 705.162 3763.77 704.318 3763.91 703.474 3764.2 702.089 3764.63 700.163L3767.7 687.236 3763.05 687.236 3763.62 684.824C3765.01 684.824 3766.06 684.695 3766.78 684.436 3767.49 684.178 3768.09 683.791 3768.58 683.275 3769.07 682.759 3769.54 681.974 3769.99 680.922 3770.45 679.869 3770.99 678.251 3771.6 676.067Z" fill-rule="evenodd"/><text fill="#000000" fill-opacity="0" font-family="Arial,Arial_MSFontService,sans-serif" font-size="37.4697" x="3763.05" y="708.853">𝒕</text><path d="M0.0737714 1.14346-3.80123 1.39346-3.69255 1.38121-7.56755 2.00621-7.44239 1.97877-11.2549 3.04127-11.143 3.00377-14.9555 4.50377-14.8693 4.46571-18.6818 6.34071-18.6101 6.30225-22.3601 8.48975-22.2475 8.4148-29.6225 13.9773-29.5132 13.8835-36.6381 20.821-36.5595 20.7362-43.372 28.8612-43.3116 28.7825-49.7491 37.97-49.6986 37.8914-55.6986 48.1413-55.6626 48.0749-61.2251 59.1999-61.1931 59.1302-66.1931 71.0677-66.1696 71.0066-70.6071 83.5691-70.5858 83.5023-74.3358 96.6273-74.3187 96.56-77.3187 110.122-77.3055 110.053-79.493 123.99-79.4846 123.924-80.8596 138.049-80.8549 137.978-81.3549 152.228-81.3549 152.147-81.1049 159.272-81.1105 159.193-80.3605 166.318-80.3717 166.238-79.1217 173.3-79.1355 173.234-77.448 180.296-77.4661 180.23-75.3411 187.23-75.3626 187.165-72.8001 194.103-72.8263 194.038-69.8263 200.851-69.8501 200.8-66.4751 207.55-66.5028 207.498-62.7528 214.123-62.7825 214.074-58.6575 220.574-58.7045 220.505-49.392 233.068-49.4563 232.988-38.8938 244.863-38.9622 244.793-27.2122 255.918-27.2821 255.857-14.5321 266.107-14.6064 266.052-0.981401 275.302-1.06633 275.25 13.3712 283.312 13.2935 283.273 28.2935 290.21 28.1943 290.17 43.7568 295.67 43.6875 295.648 51.625 297.898 51.574 297.884 59.574 299.759 59.5205 299.748 67.6455 301.248 67.5872 301.239 75.6497 302.301 75.5872 302.295 83.7747 302.92 83.7225 302.917 91.91 303.167 91.8488 303.167 100.036 302.979 99.9659 302.983 108.091 302.296 108.039 302.301 116.164 301.239 116.111 301.247 124.174 299.809 124.124 299.82 132.186 298.007 132.123 298.023 139.998 295.773 139.935 295.793 155.497 290.356 155.403 290.393 170.465 283.581 170.382 283.623 184.82 275.623 184.74 275.671 198.365 266.608 198.29 266.663 211.04 256.601 210.967 256.664 222.717 245.664 222.65 245.732 233.212 234.044 233.145 234.126 242.458 221.688 242.413 221.753 246.538 215.378 246.505 215.432 250.255 208.869 250.229 208.917 253.604 202.292 253.578 202.347 256.578 195.597 256.553 195.659 259.115 188.847 259.093 188.912 261.218 182.037 261.199 182.104 262.887 175.167 262.872 175.236 264.122 168.236 264.111 168.315 264.861 161.315 264.855 161.397 265.105 154.397 265.105 154.478 264.605 140.478 264.61 140.55 263.235 126.612 263.244 126.681 261.056 112.993 261.069 113.063 258.069 99.6883 258.087 99.7565 254.337 86.819 254.359 86.8868 249.921 74.5118 249.947 74.5757 244.947 62.8882 244.975 62.9499 239.475 51.9499 239.519 52.0288 233.456 41.9663 233.503 42.0386 227.066 32.9761 227.128 33.0554 220.315 25.0554 220.396 25.1407 213.271 18.3282 213.504 18.5005 204.684 13.577 205.801 11.576 214.749 16.5708 222.022 23.5249 228.905 31.6079 235.397 40.7467 241.505 50.8848 247.04 61.9555 252.067 73.7059 256.528 86.1468 260.298 99.1524 263.313 112.596 265.512 126.353 266.894 140.361 267.397 154.438 267.144 161.519 266.385 168.599 265.122 175.674 263.418 182.68 261.272 189.621 258.686 196.497 255.66 203.306 252.258 209.982 248.479 216.596 244.316 223.03 234.948 235.542 224.318 247.304 212.498 258.37 199.673 268.491 185.971 277.605 171.452 285.65 156.301 292.502 140.659 297.968 132.721 300.236 124.601 302.061 116.487 303.508 108.31 304.577 100.124 305.27 91.8706 305.459 83.6264 305.207 75.3814 304.578 67.2585 303.507 59.0776 301.997 51.0254 300.11 43.0275 297.842 27.3802 292.312 12.2919 285.334-2.22728 277.226-15.9319 267.922-28.7541 257.614-40.5735 246.423-51.2026 234.473-60.5702 221.837-64.7329 215.277-68.5117 208.601-71.9124 201.8-74.9377 194.93-77.5241 187.928-79.669 180.862-81.3724 173.733-82.6353 166.598-83.3937 159.393-83.6465 152.188-83.1439 137.862-81.7622 123.668-79.564 109.662-76.5488 96.0311-72.7796 82.839-68.3195 70.2125-63.292 58.2094-57.6955 47.0163-51.6527 36.6933-45.1599 27.4268-38.2783 19.2194-31.0601 12.1912-23.5734 6.54439-19.7297 4.30225-15.8384 2.38848-11.927 0.849592-7.9958-0.245997-4.0034-0.889931-0.0737714-1.14346ZM204.771 27.0625 183.75 4.625 214.312 1.27099Z" transform="matrix(1.83697e-16 1 1 -1.83697e-16 3833 1164)"/><path d="M4177.22 1231.21 4197.61 1231.21 4197.04 1233.88C4195.5 1234.31 4194.37 1235.07 4193.64 1236.15 4192.91 1237.23 4192.22 1239.23 4191.57 1242.15L4186.1 1266.99C4185.69 1268.8 4185.42 1270.31 4185.29 1271.51 4185.15 1272.71 4185.09 1273.87 4185.09 1274.98 4185.09 1277.41 4185.69 1279.26 4186.89 1280.53 4188.09 1281.8 4189.85 1282.43 4192.18 1282.43 4194.47 1282.43 4196.39 1281.93 4197.93 1280.93 4199.47 1279.93 4200.71 1278.51 4201.64 1276.66 4202.57 1274.81 4203.36 1272.42 4204.01 1269.51L4210.05 1242.15C4210.29 1241.1 4210.44 1240.2 4210.5 1239.45 4210.55 1238.71 4210.58 1238.03 4210.58 1237.41 4210.58 1236.27 4210.31 1235.44 4209.79 1234.92 4209.26 1234.39 4208.4 1234.04 4207.21 1233.88L4207.78 1231.21 4225.05 1231.21 4224.48 1233.88C4222.91 1234.31 4221.76 1235.08 4221.01 1236.19 4220.27 1237.3 4219.6 1239.29 4219.01 1242.15L4213.54 1267.24C4212.75 1270.88 4211.71 1274 4210.4 1276.6 4209.08 1279.19 4207.51 1281.25 4205.67 1282.78 4203.84 1284.3 4201.7 1285.42 4199.27 1286.12 4196.84 1286.82 4193.87 1287.18 4190.35 1287.18 4188.06 1287.18 4185.89 1286.89 4183.85 1286.3 4181.81 1285.72 4180.03 1284.82 4178.52 1283.61 4177.01 1282.39 4175.81 1280.87 4174.93 1279.05 4174.06 1277.23 4173.62 1275.06 4173.62 1272.55 4173.62 1271.19 4173.71 1269.74 4173.9 1268.17 4174.09 1266.6 4174.55 1264.16 4175.28 1260.83L4179.49 1242.15C4179.84 1240.58 4180.02 1239 4180.02 1237.41 4180.02 1236.27 4179.76 1235.44 4179.23 1234.92 4178.7 1234.39 4177.85 1234.04 4176.66 1233.88Z" fill-rule="evenodd"/><text fill="#000000" fill-opacity="0" font-family="Arial,Arial_MSFontService,sans-serif" font-size="55.9683" x="4173.62" y="1280.18">𝑼</text><text font-family="SimSun,SimSun_MSFontService,sans-serif" font-weight="400" font-size="92" transform="matrix(1 0 0 1 3695.13 2180)">折叠<tspan font-size="92" x="183.333" y="0">形式</tspan><tspan font-size="83" x="-1783.88" y="146">偏置向量被省去</tspan></text></g></svg>