<?xml version="1.0" encoding="utf-8" standalone="no"?>
<!DOCTYPE svg PUBLIC "-//W3C//DTD SVG 1.1//EN"
  "http://www.w3.org/Graphics/SVG/1.1/DTD/svg11.dtd">
<svg xmlns:xlink="http://www.w3.org/1999/xlink" width="953.17625pt" height="391.446875pt" viewBox="0 0 953.17625 391.446875" xmlns="http://www.w3.org/2000/svg" version="1.1">
 <metadata>
  <rdf:RDF xmlns:dc="http://purl.org/dc/elements/1.1/" xmlns:cc="http://creativecommons.org/ns#" xmlns:rdf="http://www.w3.org/1999/02/22-rdf-syntax-ns#">
   <cc:Work>
    <dc:type rdf:resource="http://purl.org/dc/dcmitype/StillImage"/>
    <dc:date>2025-07-15T00:01:26.789391</dc:date>
    <dc:format>image/svg+xml</dc:format>
    <dc:creator>
     <cc:Agent>
      <dc:title>Matplotlib v3.8.4, https://matplotlib.org/</dc:title>
     </cc:Agent>
    </dc:creator>
   </cc:Work>
  </rdf:RDF>
 </metadata>
 <defs>
  <style type="text/css">*{stroke-linejoin: round; stroke-linecap: butt}</style>
 </defs>
 <g id="figure_1">
  <g id="patch_1">
   <path d="M 0 391.446875 
L 953.17625 391.446875 
L 953.17625 0 
L 0 0 
z
" style="fill: #ffffff"/>
  </g>
  <g id="axes_1">
   <g id="patch_2">
    <path d="M 53.17625 339.84 
L 945.97625 339.84 
L 945.97625 7.2 
L 53.17625 7.2 
z
" style="fill: #ffffff"/>
   </g>
   <g id="matplotlib.axis_1">
    <g id="xtick_1">
     <g id="line2d_1">
      <defs>
       <path id="m7acd16046f" d="M 0 0 
L 0 3.5 
" style="stroke: #000000; stroke-width: 0.8"/>
      </defs>
      <g>
       <use xlink:href="#m7acd16046f" x="93.758068" y="339.84" style="stroke: #000000; stroke-width: 0.8"/>
      </g>
     </g>
     <g id="text_1">
      <!-- 0 -->
      <g transform="translate(89.536506 358.72) scale(0.18 -0.18)">
       <defs>
        <path id="STFangsong-30" d="M 1517 4064 
Q 2048 4064 2435 3465 
Q 2822 2867 2822 1978 
Q 2822 1094 2435 496 
Q 2048 -102 1517 -102 
Q 1005 -102 608 490 
Q 211 1082 211 1978 
Q 211 2867 598 3465 
Q 986 4064 1517 4064 
z
M 1517 45 
Q 1990 45 2172 515 
Q 2355 986 2355 1978 
Q 2355 2970 2172 3443 
Q 1990 3917 1517 3917 
Q 1043 3917 860 3443 
Q 678 2970 678 1978 
Q 678 45 1517 45 
z
" transform="scale(0.015625)"/>
       </defs>
       <use xlink:href="#STFangsong-30"/>
      </g>
     </g>
    </g>
    <g id="xtick_2">
     <g id="line2d_2">
      <g>
       <use xlink:href="#m7acd16046f" x="229.483213" y="339.84" style="stroke: #000000; stroke-width: 0.8"/>
      </g>
     </g>
     <g id="text_2">
      <!-- 50 -->
      <g transform="translate(221.040088 358.72) scale(0.18 -0.18)">
       <defs>
        <path id="STFangsong-35" d="M 2432 3622 
L 1536 3622 
Q 1037 3622 986 3603 
L 902 2432 
Q 1184 2566 1478 2566 
Q 2003 2566 2368 2208 
Q 2733 1850 2733 1274 
Q 2733 634 2281 266 
Q 1830 -102 1254 -102 
Q 934 -102 665 10 
Q 397 122 397 256 
Q 397 320 454 387 
Q 512 454 614 454 
Q 685 454 730 422 
Q 1178 83 1453 83 
Q 1811 83 2086 393 
Q 2362 704 2362 1126 
Q 2362 1574 2083 1872 
Q 1805 2170 1395 2170 
Q 1216 2170 1059 2112 
Q 902 2054 832 1952 
L 723 1952 
L 845 4000 
L 1542 4000 
Q 2022 4000 2176 4013 
Q 2330 4026 2394 4109 
L 2490 4109 
L 2432 3622 
z
" transform="scale(0.015625)"/>
       </defs>
       <use xlink:href="#STFangsong-35"/>
       <use xlink:href="#STFangsong-30" x="46.899994"/>
      </g>
     </g>
    </g>
    <g id="xtick_3">
     <g id="line2d_3">
      <g>
       <use xlink:href="#m7acd16046f" x="365.208357" y="339.84" style="stroke: #000000; stroke-width: 0.8"/>
      </g>
     </g>
     <g id="text_3">
      <!-- 100 -->
      <g transform="translate(352.54367 358.72) scale(0.18 -0.18)">
       <defs>
        <path id="STFangsong-31" d="M 2272 -19 
Q 1939 0 1523 0 
Q 1107 0 774 -19 
L 774 83 
L 1107 141 
Q 1331 186 1331 390 
L 1331 3552 
L 570 3059 
L 480 3181 
Q 922 3469 1542 4064 
L 1754 4064 
L 1754 390 
Q 1754 173 1978 134 
L 2272 83 
L 2272 -19 
z
" transform="scale(0.015625)"/>
       </defs>
       <use xlink:href="#STFangsong-31"/>
       <use xlink:href="#STFangsong-30" x="46.899994"/>
       <use xlink:href="#STFangsong-30" x="93.799988"/>
      </g>
     </g>
    </g>
    <g id="xtick_4">
     <g id="line2d_4">
      <g>
       <use xlink:href="#m7acd16046f" x="500.933501" y="339.84" style="stroke: #000000; stroke-width: 0.8"/>
      </g>
     </g>
     <g id="text_4">
      <!-- 150 -->
      <g transform="translate(488.268814 358.72) scale(0.18 -0.18)">
       <use xlink:href="#STFangsong-31"/>
       <use xlink:href="#STFangsong-35" x="46.899994"/>
       <use xlink:href="#STFangsong-30" x="93.799988"/>
      </g>
     </g>
    </g>
    <g id="xtick_5">
     <g id="line2d_5">
      <g>
       <use xlink:href="#m7acd16046f" x="636.658646" y="339.84" style="stroke: #000000; stroke-width: 0.8"/>
      </g>
     </g>
     <g id="text_5">
      <!-- 200 -->
      <g transform="translate(623.993958 358.72) scale(0.18 -0.18)">
       <defs>
        <path id="STFangsong-32" d="M 2726 -19 
Q 2266 0 1421 0 
Q 595 0 141 -19 
Q 262 230 448 454 
Q 634 678 1043 1088 
Q 1638 1683 1913 2102 
Q 2189 2522 2189 2950 
Q 2189 3302 1968 3520 
Q 1747 3738 1421 3738 
Q 1101 3738 838 3517 
Q 576 3296 474 2893 
L 326 2918 
Q 429 3462 755 3763 
Q 1082 4064 1549 4064 
Q 2016 4064 2342 3753 
Q 2669 3443 2669 3008 
Q 2669 2573 2365 2192 
Q 2061 1811 1446 1242 
Q 1120 941 634 339 
L 2138 339 
Q 2381 339 2480 425 
Q 2579 512 2688 800 
L 2822 800 
L 2726 -19 
z
" transform="scale(0.015625)"/>
       </defs>
       <use xlink:href="#STFangsong-32"/>
       <use xlink:href="#STFangsong-30" x="46.899994"/>
       <use xlink:href="#STFangsong-30" x="93.799988"/>
      </g>
     </g>
    </g>
    <g id="xtick_6">
     <g id="line2d_6">
      <g>
       <use xlink:href="#m7acd16046f" x="772.38379" y="339.84" style="stroke: #000000; stroke-width: 0.8"/>
      </g>
     </g>
     <g id="text_6">
      <!-- 250 -->
      <g transform="translate(759.719103 358.72) scale(0.18 -0.18)">
       <use xlink:href="#STFangsong-32"/>
       <use xlink:href="#STFangsong-35" x="46.899994"/>
       <use xlink:href="#STFangsong-30" x="93.799988"/>
      </g>
     </g>
    </g>
    <g id="xtick_7">
     <g id="line2d_7">
      <g>
       <use xlink:href="#m7acd16046f" x="908.108935" y="339.84" style="stroke: #000000; stroke-width: 0.8"/>
      </g>
     </g>
     <g id="text_7">
      <!-- 300 -->
      <g transform="translate(895.444247 358.72) scale(0.18 -0.18)">
       <defs>
        <path id="STFangsong-33" d="M 602 3130 
L 486 3194 
Q 672 3635 934 3849 
Q 1197 4064 1594 4064 
Q 1952 4064 2195 3859 
Q 2438 3654 2438 3405 
Q 2438 3155 2268 2931 
Q 2099 2707 1741 2438 
Q 2208 2470 2489 2163 
Q 2771 1856 2771 1376 
Q 2771 755 2329 326 
Q 1888 -102 1203 -102 
Q 762 -102 531 3 
Q 301 109 301 250 
Q 301 314 361 368 
Q 422 422 493 422 
Q 602 422 742 307 
Q 1101 38 1350 38 
Q 1741 38 2038 377 
Q 2336 717 2336 1203 
Q 2336 1613 2134 1878 
Q 1933 2144 1626 2144 
Q 1389 2144 1139 1926 
L 1069 2048 
Q 1197 2163 1350 2278 
Q 2054 2797 2054 3155 
Q 2054 3418 1878 3578 
Q 1702 3738 1440 3738 
Q 1184 3738 957 3581 
Q 730 3424 602 3130 
z
" transform="scale(0.015625)"/>
       </defs>
       <use xlink:href="#STFangsong-33"/>
       <use xlink:href="#STFangsong-30" x="46.899994"/>
       <use xlink:href="#STFangsong-30" x="93.799988"/>
      </g>
     </g>
    </g>
    <g id="text_8">
     <!-- 时间步数 -->
     <g transform="translate(463.57625 379.620313) scale(0.18 -0.18)">
      <defs>
       <path id="STFangsong-65f6" d="M 5926 2778 
Q 5965 2746 5965 2730 
Q 5965 2714 5907 2707 
L 4800 2560 
L 4800 -26 
Q 4800 -461 4742 -761 
Q 4685 -1062 4627 -1062 
Q 4608 -1062 4582 -1037 
Q 4109 -506 3520 -19 
L 3558 45 
L 4486 -474 
Q 4512 -403 4534 -169 
Q 4557 64 4557 179 
L 4557 2528 
Q 3398 2381 3053 2272 
L 2803 2483 
L 4557 2726 
L 4557 3814 
Q 4557 4480 4352 4845 
L 4410 4896 
L 4877 4544 
Q 4922 4506 4922 4483 
Q 4922 4461 4890 4419 
Q 4858 4378 4829 4176 
Q 4800 3974 4800 3770 
L 4800 2765 
Q 5446 2854 5670 2982 
L 5926 2778 
z
M 2925 3744 
Q 2944 3731 2944 3708 
Q 2944 3686 2886 3648 
Q 2829 3610 2800 3507 
Q 2771 3405 2771 3213 
L 2771 909 
Q 2771 557 2729 317 
Q 2688 77 2650 77 
Q 2630 77 2611 115 
L 2400 518 
L 1542 416 
Q 1555 -218 1485 -218 
Q 1472 -218 1453 -186 
L 1242 211 
Q 1350 365 1331 1018 
L 1280 2989 
Q 1267 3456 1165 3974 
L 1261 4013 
L 1485 3558 
L 2483 3731 
L 2643 3994 
L 2925 3744 
z
M 2547 1261 
L 2547 3533 
L 1498 3347 
L 1517 2208 
Q 2074 2298 2195 2368 
L 2387 2182 
Q 2413 2157 2413 2144 
Q 2413 2131 2374 2125 
L 1517 2010 
L 1542 614 
Q 2138 678 2278 755 
L 2451 576 
Q 2547 672 2547 1261 
z
M 3936 1485 
Q 3898 1344 3818 1190 
Q 3738 1037 3706 1037 
Q 3674 1037 3661 1075 
L 3334 2138 
L 3386 2170 
L 3936 1485 
z
" transform="scale(0.015625)"/>
       <path id="STFangsong-95f4" d="M 2208 4192 
Q 2195 4064 2140 3894 
Q 2086 3725 2060 3725 
Q 2035 3725 2010 3763 
L 1414 4717 
L 1485 4781 
L 2208 4192 
z
M 5312 4288 
Q 5344 4262 5344 4243 
Q 5344 4224 5286 4173 
Q 5229 4122 5200 4042 
Q 5171 3962 5171 3750 
L 5171 538 
Q 5171 -371 5094 -656 
Q 5018 -941 4973 -941 
Q 4954 -941 4928 -902 
Q 4685 -525 4045 205 
L 4115 275 
L 4858 -358 
Q 4934 -122 4934 698 
L 4934 4070 
Q 3142 3936 2816 3840 
L 2573 4090 
L 4826 4275 
L 5018 4544 
L 5312 4288 
z
M 1184 4013 
L 1555 3622 
Q 1587 3584 1587 3558 
Q 1587 3533 1568 3501 
Q 1485 3366 1485 2874 
L 1485 358 
Q 1485 -832 1402 -832 
Q 1382 -832 1357 -787 
L 1101 -346 
Q 1190 -230 1222 -86 
Q 1254 58 1254 422 
L 1254 2496 
Q 1254 3661 1114 3962 
L 1184 4013 
z
M 4154 2976 
Q 4186 2944 4186 2925 
Q 4186 2906 4147 2874 
Q 4032 2778 4006 2413 
L 3917 1248 
L 4077 1088 
Q 4109 1056 4109 1037 
Q 4109 1018 4064 1011 
L 2586 877 
Q 2592 659 2569 534 
Q 2547 410 2524 410 
Q 2502 410 2477 448 
L 2266 813 
Q 2362 934 2355 1325 
L 2330 2381 
Q 2323 2534 2288 2793 
Q 2253 3053 2221 3162 
L 2304 3200 
L 2509 2797 
L 3706 2957 
L 3891 3213 
L 4154 2976 
z
M 3782 2752 
L 2547 2605 
L 2560 1958 
Q 3110 2029 3270 2125 
L 3494 1958 
Q 3533 1933 3533 1910 
Q 3533 1888 3475 1882 
L 2566 1773 
L 2586 1069 
L 3699 1203 
L 3782 2752 
z
" transform="scale(0.015625)"/>
       <path id="STFangsong-6b65" d="M 5696 2630 
Q 5734 2598 5734 2582 
Q 5734 2566 5683 2560 
L 3309 2400 
L 3514 2227 
Q 3533 2221 3533 2201 
Q 3533 2182 3514 2150 
Q 3437 2042 3437 1715 
L 3437 1120 
Q 3437 742 3405 582 
Q 4038 1082 4377 1530 
Q 4717 1978 4698 2157 
L 4774 2176 
L 4973 1709 
Q 4979 1690 4979 1677 
Q 4979 1664 4940 1645 
Q 4902 1626 4796 1552 
Q 4691 1478 4653 1434 
Q 3898 557 2784 -131 
Q 1670 -819 557 -1056 
L 538 -966 
Q 1926 -531 3309 506 
L 3117 832 
Q 3206 1018 3206 1293 
L 3206 1779 
Q 3206 2240 3155 2387 
Q 1626 2278 1050 2144 
L 749 2387 
L 2003 2490 
L 1965 3123 
Q 1933 3616 1894 3753 
Q 1856 3891 1734 4051 
L 1792 4109 
L 2246 3821 
Q 2278 3802 2278 3789 
Q 2278 3776 2266 3757 
Q 2202 3654 2214 3290 
L 2240 2509 
L 3149 2579 
L 3149 3930 
Q 3149 4653 3002 4896 
L 3066 4947 
L 3482 4640 
Q 3507 4621 3507 4605 
Q 3507 4589 3494 4576 
Q 3386 4429 3386 3802 
L 3386 3565 
Q 4538 3731 4800 3872 
L 5094 3654 
Q 5120 3635 5120 3619 
Q 5120 3603 5088 3597 
L 3386 3360 
L 3386 2598 
Q 4326 2675 4736 2726 
Q 5146 2778 5402 2886 
L 5696 2630 
z
M 2586 1702 
Q 2592 1690 2592 1667 
Q 2592 1645 2560 1626 
Q 2438 1542 2291 1363 
Q 1926 947 1357 467 
L 1293 525 
Q 1792 1056 2041 1421 
Q 2291 1786 2291 2054 
L 2368 2086 
L 2586 1702 
z
" transform="scale(0.015625)"/>
       <path id="STFangsong-6570" d="M 6003 -666 
L 4954 -704 
L 4358 691 
Q 3814 -301 2739 -1043 
L 2694 -960 
Q 3789 -77 4243 960 
Q 3930 1677 3693 2022 
Q 3514 1651 3398 1485 
L 3315 1549 
Q 3712 2406 3926 3184 
Q 4141 3962 4141 4461 
Q 4141 4717 4083 4851 
L 4166 4890 
L 4538 4474 
Q 4570 4442 4570 4419 
Q 4570 4397 4538 4371 
Q 4474 4320 4371 3962 
Q 4179 3283 4006 2797 
Q 5139 2938 5440 3078 
L 5702 2874 
Q 5741 2848 5741 2829 
Q 5741 2810 5683 2803 
L 4883 2701 
L 5069 2464 
Q 5094 2432 5094 2409 
Q 5094 2387 5056 2362 
Q 4960 2298 4832 1862 
Q 4685 1357 4474 915 
L 4870 173 
Q 5018 -109 5117 -227 
Q 5216 -346 5405 -416 
Q 5594 -486 6003 -557 
L 6003 -666 
z
M 4710 2682 
L 3930 2586 
Q 3846 2362 3757 2170 
L 3968 2125 
Q 3968 2035 4061 1776 
Q 4154 1517 4333 1178 
Q 4730 2202 4710 2682 
z
M 3648 3136 
Q 3686 3104 3686 3088 
Q 3686 3072 3622 3066 
L 2522 2976 
L 2522 2886 
L 3309 2451 
Q 3322 2310 3322 2172 
Q 3322 2035 3283 2035 
Q 3264 2035 3238 2061 
L 2522 2778 
Q 2522 1965 2496 1869 
Q 2470 1773 2454 1773 
Q 2438 1773 2413 1818 
L 2227 2170 
Q 2310 2240 2310 2842 
Q 1542 1862 672 1312 
L 621 1382 
Q 1664 2221 2029 2931 
Q 1395 2874 1094 2797 
L 800 3008 
L 2310 3149 
L 2310 3667 
Q 2310 4538 2189 4730 
L 2259 4800 
L 2630 4467 
Q 2656 4448 2656 4429 
Q 2656 4410 2630 4371 
Q 2522 4211 2522 3629 
L 2522 3168 
L 2790 3194 
Q 3149 4045 3149 4282 
Q 3149 4339 3130 4371 
L 3200 4422 
L 3462 4115 
Q 3488 4083 3488 4060 
Q 3488 4038 3443 4019 
Q 3354 3981 2963 3213 
Q 3264 3251 3424 3322 
L 3648 3136 
z
M 1997 3718 
Q 1984 3578 1936 3418 
Q 1888 3258 1862 3258 
Q 1837 3258 1811 3296 
L 1299 4192 
L 1357 4237 
L 1997 3718 
z
M 3232 1382 
Q 3258 1350 3258 1334 
Q 3258 1318 3226 1299 
Q 3149 1254 2969 899 
Q 2790 544 2541 237 
L 3085 83 
Q 3142 -26 3187 -150 
Q 3232 -275 3232 -304 
Q 3232 -333 3216 -333 
Q 3200 -333 3168 -314 
Q 2874 -122 2406 77 
Q 1939 -442 915 -922 
L 858 -832 
Q 1728 -365 2208 154 
Q 1850 282 1542 346 
Q 1728 698 1856 998 
Q 1210 902 1101 858 
L 819 1075 
L 1939 1190 
Q 2093 1574 2093 1766 
Q 2093 1843 2067 1894 
L 2150 1952 
L 2374 1626 
Q 2387 1606 2387 1584 
Q 2387 1562 2355 1536 
Q 2323 1510 2170 1210 
L 2874 1286 
Q 2931 1498 2925 1690 
L 2976 1715 
L 3232 1382 
z
M 2822 1126 
L 2080 1024 
L 1818 448 
L 2336 301 
Q 2630 666 2822 1126 
z
" transform="scale(0.015625)"/>
      </defs>
      <use xlink:href="#STFangsong-65f6"/>
      <use xlink:href="#STFangsong-95f4" x="99.999985"/>
      <use xlink:href="#STFangsong-6b65" x="199.999969"/>
      <use xlink:href="#STFangsong-6570" x="299.999954"/>
     </g>
    </g>
   </g>
   <g id="matplotlib.axis_2">
    <g id="ytick_1">
     <g id="line2d_8">
      <defs>
       <path id="m1b7c2b1502" d="M 0 0 
L -3.5 0 
" style="stroke: #000000; stroke-width: 0.8"/>
      </defs>
      <g>
       <use xlink:href="#m1b7c2b1502" x="53.17625" y="311.444274" style="stroke: #000000; stroke-width: 0.8"/>
      </g>
     </g>
     <g id="text_9">
      <!-- 10 -->
      <g transform="translate(29.29 317.384274) scale(0.18 -0.18)">
       <use xlink:href="#STFangsong-31"/>
       <use xlink:href="#STFangsong-30" x="46.899994"/>
      </g>
     </g>
    </g>
    <g id="ytick_2">
     <g id="line2d_9">
      <g>
       <use xlink:href="#m1b7c2b1502" x="53.17625" y="267.651288" style="stroke: #000000; stroke-width: 0.8"/>
      </g>
     </g>
     <g id="text_10">
      <!-- 20 -->
      <g transform="translate(29.29 273.591288) scale(0.18 -0.18)">
       <use xlink:href="#STFangsong-32"/>
       <use xlink:href="#STFangsong-30" x="46.899994"/>
      </g>
     </g>
    </g>
    <g id="ytick_3">
     <g id="line2d_10">
      <g>
       <use xlink:href="#m1b7c2b1502" x="53.17625" y="223.858302" style="stroke: #000000; stroke-width: 0.8"/>
      </g>
     </g>
     <g id="text_11">
      <!-- 30 -->
      <g transform="translate(29.29 229.798302) scale(0.18 -0.18)">
       <use xlink:href="#STFangsong-33"/>
       <use xlink:href="#STFangsong-30" x="46.899994"/>
      </g>
     </g>
    </g>
    <g id="ytick_4">
     <g id="line2d_11">
      <g>
       <use xlink:href="#m1b7c2b1502" x="53.17625" y="180.065315" style="stroke: #000000; stroke-width: 0.8"/>
      </g>
     </g>
     <g id="text_12">
      <!-- 40 -->
      <g transform="translate(29.29 186.005315) scale(0.18 -0.18)">
       <defs>
        <path id="STFangsong-34" d="M 2086 4064 
L 2240 4064 
L 2240 1408 
L 2918 1408 
L 2918 1114 
L 2240 1114 
L 2240 -102 
L 1818 -102 
L 1818 1114 
L 179 1114 
L 179 1325 
L 941 2438 
L 2086 4064 
z
M 1818 1408 
L 1818 3373 
Q 947 2163 486 1408 
L 1818 1408 
z
" transform="scale(0.015625)"/>
       </defs>
       <use xlink:href="#STFangsong-34"/>
       <use xlink:href="#STFangsong-30" x="46.899994"/>
      </g>
     </g>
    </g>
    <g id="ytick_5">
     <g id="line2d_12">
      <g>
       <use xlink:href="#m1b7c2b1502" x="53.17625" y="136.272329" style="stroke: #000000; stroke-width: 0.8"/>
      </g>
     </g>
     <g id="text_13">
      <!-- 50 -->
      <g transform="translate(29.29 142.212329) scale(0.18 -0.18)">
       <use xlink:href="#STFangsong-35"/>
       <use xlink:href="#STFangsong-30" x="46.899994"/>
      </g>
     </g>
    </g>
    <g id="ytick_6">
     <g id="line2d_13">
      <g>
       <use xlink:href="#m1b7c2b1502" x="53.17625" y="92.479342" style="stroke: #000000; stroke-width: 0.8"/>
      </g>
     </g>
     <g id="text_14">
      <!-- 60 -->
      <g transform="translate(29.29 98.419342) scale(0.18 -0.18)">
       <defs>
        <path id="STFangsong-36" d="M 2458 4083 
L 2509 3962 
Q 1709 3661 1232 2934 
Q 755 2208 755 1376 
Q 755 826 985 432 
Q 1216 38 1549 38 
Q 2266 38 2266 1178 
Q 2266 1658 2080 1926 
Q 1894 2195 1613 2195 
Q 1504 2195 1402 2150 
L 1331 2253 
Q 1536 2342 1747 2342 
Q 2170 2342 2448 2022 
Q 2726 1702 2726 1146 
Q 2726 614 2396 256 
Q 2067 -102 1542 -102 
Q 998 -102 656 323 
Q 314 749 314 1478 
Q 314 2362 893 3088 
Q 1472 3814 2458 4083 
z
" transform="scale(0.015625)"/>
       </defs>
       <use xlink:href="#STFangsong-36"/>
       <use xlink:href="#STFangsong-30" x="46.899994"/>
      </g>
     </g>
    </g>
    <g id="ytick_7">
     <g id="line2d_14">
      <g>
       <use xlink:href="#m1b7c2b1502" x="53.17625" y="48.686356" style="stroke: #000000; stroke-width: 0.8"/>
      </g>
     </g>
     <g id="text_15">
      <!-- 70 -->
      <g transform="translate(29.29 54.626356) scale(0.18 -0.18)">
       <defs>
        <path id="STFangsong-37" d="M 294 4000 
L 2758 4000 
L 2758 3891 
Q 2541 3507 1981 1929 
Q 1421 352 1363 0 
L 1152 0 
Q 1459 1325 2387 3610 
L 659 3610 
Q 499 3610 486 3526 
L 435 3258 
L 294 3258 
L 294 4000 
z
" transform="scale(0.015625)"/>
       </defs>
       <use xlink:href="#STFangsong-37"/>
       <use xlink:href="#STFangsong-30" x="46.899994"/>
      </g>
     </g>
    </g>
    <g id="text_16">
     <!-- 风电功率 (MW) -->
     <g transform="translate(20.663438 232.488281) rotate(-90) scale(0.18 -0.18)">
      <defs>
       <path id="STFangsong-98ce" d="M 5850 749 
Q 5875 243 5914 -83 
L 5997 -736 
Q 5997 -768 5978 -768 
Q 5926 -768 5552 -547 
Q 5178 -326 4854 93 
Q 4531 512 4409 1222 
Q 4288 1933 4288 3130 
Q 4288 3584 4307 4115 
L 1862 3891 
Q 1869 3072 1785 2035 
Q 1702 998 1331 291 
Q 960 -416 480 -845 
L 403 -787 
Q 1152 102 1376 976 
Q 1600 1850 1600 3066 
Q 1600 3891 1478 4627 
L 1574 4646 
L 1837 4102 
L 4256 4326 
L 4461 4608 
L 4768 4301 
Q 4787 4282 4787 4266 
Q 4787 4250 4749 4224 
Q 4608 4128 4592 4022 
Q 4576 3917 4553 3446 
Q 4531 2976 4531 2637 
Q 4531 1427 4780 768 
Q 5030 109 5632 -282 
L 5754 749 
L 5850 749 
z
M 3987 1043 
Q 3981 813 3939 624 
Q 3898 435 3875 435 
Q 3853 435 3834 486 
Q 3629 1011 3149 1792 
Q 2464 595 1741 51 
L 1670 109 
Q 2458 890 3021 2003 
Q 2637 2624 2176 3258 
L 2272 3315 
L 3117 2195 
Q 3501 3053 3475 3590 
L 3578 3667 
L 3827 3168 
Q 3840 3142 3840 3123 
Q 3840 3104 3808 3085 
Q 3776 3066 3721 2982 
Q 3667 2899 3635 2816 
Q 3501 2451 3264 2003 
L 3987 1043 
z
" transform="scale(0.015625)"/>
       <path id="STFangsong-7535" d="M 5299 672 
Q 5363 173 5421 -128 
L 5517 -582 
Q 5517 -614 5465 -640 
Q 5414 -666 5078 -704 
Q 4742 -742 4288 -742 
Q 3539 -742 3216 -649 
Q 2893 -557 2793 -358 
Q 2694 -160 2694 294 
L 2694 992 
L 1517 909 
Q 1523 653 1504 493 
Q 1485 333 1459 333 
Q 1434 333 1408 371 
L 1133 806 
Q 1293 966 1280 1338 
L 1235 2931 
Q 1235 3085 1203 3363 
Q 1171 3642 1133 3763 
L 1254 3789 
L 1440 3206 
L 2694 3309 
L 2694 3872 
Q 2694 4538 2515 4877 
L 2586 4947 
L 3059 4563 
Q 3098 4531 3098 4508 
Q 3098 4486 3072 4454 
Q 2944 4282 2944 3706 
L 2944 3334 
L 4250 3443 
L 4499 3725 
L 4794 3475 
Q 4826 3450 4826 3427 
Q 4826 3405 4781 3373 
Q 4608 3232 4570 2989 
L 4294 1363 
L 4467 1203 
Q 4506 1165 4506 1145 
Q 4506 1126 4442 1120 
L 2944 1011 
L 2944 301 
Q 2944 -115 3056 -265 
Q 3168 -416 3565 -451 
Q 3962 -486 4237 -486 
Q 4826 -486 5190 -371 
L 5203 672 
L 5299 672 
z
M 4307 3219 
L 2944 3110 
L 2944 2317 
Q 3552 2387 3744 2483 
L 3949 2278 
Q 3981 2246 3981 2230 
Q 3981 2214 3923 2208 
L 2944 2112 
L 2944 1222 
L 4058 1331 
L 4307 3219 
z
M 2694 1203 
L 2694 2086 
Q 2125 2022 1933 1958 
L 1690 2170 
L 2694 2285 
L 2694 3091 
L 1472 2995 
L 1517 1120 
L 2694 1203 
z
" transform="scale(0.015625)"/>
       <path id="STFangsong-529f" d="M 5421 3091 
L 5702 2810 
Q 5728 2784 5728 2765 
Q 5728 2746 5702 2726 
Q 5562 2611 5523 2323 
Q 5421 1619 5305 1059 
Q 5190 499 5065 96 
Q 4941 -307 4819 -566 
Q 4698 -826 4614 -934 
Q 4531 -1043 4515 -1052 
Q 4499 -1062 4480 -1062 
Q 4461 -1062 4435 -1011 
Q 4109 -346 3770 173 
L 3827 230 
L 4525 -480 
Q 4710 -275 4924 585 
Q 5139 1446 5261 2541 
L 4134 2374 
Q 3930 1229 3402 400 
Q 2874 -429 1920 -1088 
L 1869 -1018 
Q 2829 -147 3251 569 
Q 3674 1286 3859 2330 
Q 3405 2259 3149 2157 
L 2835 2400 
L 3898 2560 
Q 4090 3693 4090 4201 
Q 4090 4710 3968 4922 
L 4038 4973 
L 4480 4563 
Q 4518 4531 4518 4508 
Q 4518 4486 4499 4454 
Q 4410 4301 4365 3917 
L 4173 2605 
L 5197 2758 
L 5421 3091 
z
M 3213 1216 
Q 1030 320 979 230 
L 582 531 
Q 1254 678 1856 877 
L 1856 3021 
Q 1178 2912 941 2835 
L 672 3078 
Q 2470 3277 2816 3475 
L 3059 3232 
Q 3085 3206 3085 3190 
Q 3085 3174 3034 3168 
L 2099 3046 
L 2099 960 
L 3194 1325 
L 3213 1216 
z
" transform="scale(0.015625)"/>
       <path id="STFangsong-7387" d="M 5606 979 
Q 5645 947 5645 928 
Q 5645 909 5594 909 
L 3238 781 
L 3238 -480 
Q 3238 -1107 3168 -1107 
Q 3155 -1107 3136 -1069 
L 2912 -614 
Q 3008 -550 3008 0 
L 3008 768 
Q 1421 678 838 550 
L 538 781 
L 3008 947 
Q 3002 1446 2938 1619 
Q 2470 1530 2291 1434 
Q 2266 1421 2243 1421 
Q 2221 1421 2195 1446 
L 2010 1632 
Q 2285 1715 2528 1932 
Q 2771 2150 3117 2618 
Q 2816 2579 2614 2534 
Q 2413 2490 2349 2445 
Q 2285 2400 2265 2400 
Q 2246 2400 2227 2432 
L 2086 2643 
Q 2342 2765 2435 2880 
Q 2528 2995 2704 3264 
Q 2880 3533 2957 3757 
Q 1766 3661 1344 3565 
L 1050 3789 
L 3155 3942 
L 2675 4915 
L 2739 4954 
L 3341 4371 
Q 3302 4109 3200 3942 
Q 4429 4032 4838 4179 
L 5075 3981 
Q 5101 3962 5101 3946 
Q 5101 3930 5056 3923 
L 3104 3770 
L 3194 3571 
Q 3200 3552 3200 3529 
Q 3200 3507 3168 3488 
Q 3066 3424 2912 3232 
L 2496 2701 
L 3226 2765 
Q 3469 3117 3552 3322 
L 3616 3315 
L 3731 2970 
Q 3738 2950 3738 2924 
Q 3738 2899 3693 2886 
Q 3546 2842 3206 2445 
L 2611 1747 
L 3603 1862 
L 3360 2291 
L 3405 2336 
L 4019 1773 
Q 3936 1421 3872 1421 
Q 3853 1421 3834 1459 
L 3667 1754 
L 3046 1638 
L 3296 1414 
Q 3322 1389 3322 1369 
Q 3322 1350 3302 1325 
Q 3245 1248 3238 960 
Q 5133 1088 5382 1178 
L 5606 979 
z
M 5005 1965 
Q 5037 1747 5037 1641 
Q 5037 1536 4998 1536 
Q 4979 1536 4954 1562 
Q 4390 2138 3872 2522 
Q 4621 3264 4691 3616 
L 4774 3629 
L 4915 3264 
Q 4928 3238 4928 3219 
Q 4928 3200 4883 3187 
Q 4710 3142 4038 2515 
L 5005 1965 
z
M 1696 2925 
Q 1677 2496 1638 2496 
Q 1626 2496 1600 2528 
L 1005 3264 
L 1043 3322 
L 1696 2925 
z
M 2086 2304 
Q 1069 1478 1050 1421 
L 691 1562 
L 2054 2374 
L 2086 2304 
z
" transform="scale(0.015625)"/>
       <path id="STFangsong-20" transform="scale(0.015625)"/>
       <path id="STFangsong-28" d="M 1901 4198 
L 1984 4032 
Q 1350 3450 1068 2797 
Q 787 2144 787 1286 
Q 787 582 1091 -112 
Q 1395 -806 1965 -1312 
L 1888 -1459 
Q 1242 -992 867 -208 
Q 493 576 493 1389 
Q 493 2208 864 2985 
Q 1235 3763 1901 4198 
z
" transform="scale(0.015625)"/>
       <path id="STFangsong-4d" d="M 5280 -19 
Q 4666 0 4365 0 
Q 3968 0 3450 -19 
L 3450 83 
L 3834 160 
Q 3981 192 4019 256 
Q 4058 320 4058 506 
L 4058 3494 
L 2624 -51 
L 922 3770 
L 922 467 
Q 922 166 1114 147 
L 1702 83 
L 1702 -19 
Q 1318 0 877 0 
Q 550 0 45 -19 
L 45 83 
L 397 147 
Q 640 192 688 253 
Q 736 314 736 467 
L 736 3846 
L 154 3917 
L 154 4019 
Q 262 4000 768 4000 
Q 1197 4000 1357 4019 
L 2778 845 
L 4070 4019 
Q 4384 4000 4698 4000 
Q 5005 4000 5274 4019 
L 5274 3917 
L 4877 3834 
Q 4691 3795 4620 3718 
Q 4550 3642 4550 3456 
L 4550 550 
Q 4550 352 4585 285 
Q 4621 218 4736 192 
L 5280 83 
L 5280 -19 
z
" transform="scale(0.015625)"/>
       <path id="STFangsong-57" d="M 3168 2246 
L 3949 518 
L 4979 3155 
Q 5114 3501 5114 3661 
Q 5114 3834 4954 3866 
L 4691 3917 
L 4691 4019 
Q 4755 4000 5190 4000 
Q 5606 4000 5709 4019 
L 5709 3917 
L 5517 3859 
Q 5421 3827 5369 3769 
Q 5318 3712 5267 3571 
L 3878 -141 
L 3744 -141 
L 2906 1696 
L 2016 -141 
L 1882 -141 
L 454 3398 
Q 333 3693 278 3769 
Q 224 3846 128 3872 
L -58 3917 
L -58 4019 
Q 102 4000 570 4000 
Q 979 4000 1210 4019 
L 1210 3917 
L 909 3859 
Q 858 3853 858 3802 
Q 858 3718 998 3366 
L 2157 448 
L 2822 1875 
L 2157 3405 
Q 2029 3686 1971 3766 
Q 1914 3846 1830 3859 
L 1517 3917 
L 1517 4019 
Q 1696 4000 2515 4000 
Q 2835 4000 2976 4019 
L 2976 3917 
L 2605 3846 
Q 2547 3840 2547 3782 
Q 2547 3712 2688 3373 
L 3078 2445 
L 3584 3571 
Q 3616 3635 3616 3699 
Q 3616 3776 3568 3824 
Q 3520 3872 3469 3878 
L 3251 3917 
L 3251 4019 
Q 3411 4000 3834 4000 
Q 4294 4000 4416 4019 
L 4416 3917 
L 4115 3859 
Q 3898 3814 3782 3565 
L 3168 2246 
z
" transform="scale(0.015625)"/>
       <path id="STFangsong-29" d="M -38 4198 
Q 627 3763 998 2985 
Q 1370 2208 1370 1389 
Q 1370 576 995 -208 
Q 621 -992 -26 -1459 
L -102 -1312 
Q 467 -806 771 -112 
Q 1075 582 1075 1286 
Q 1075 2144 793 2797 
Q 512 3450 -122 4032 
L -38 4198 
z
" transform="scale(0.015625)"/>
      </defs>
      <use xlink:href="#STFangsong-98ce"/>
      <use xlink:href="#STFangsong-7535" x="99.999985"/>
      <use xlink:href="#STFangsong-529f" x="199.999969"/>
      <use xlink:href="#STFangsong-7387" x="299.999954"/>
      <use xlink:href="#STFangsong-20" x="399.999939"/>
      <use xlink:href="#STFangsong-28" x="424.999924"/>
      <use xlink:href="#STFangsong-4d" x="454.199921"/>
      <use xlink:href="#STFangsong-57" x="537.499908"/>
      <use xlink:href="#STFangsong-29" x="625.999893"/>
     </g>
    </g>
   </g>
   <g id="line2d_15">
    <path d="M 93.758068 196.49273 
L 96.472571 184.35056 
L 99.187074 166.796982 
L 101.901577 163.856348 
L 104.61608 118.253161 
L 107.330583 87.328258 
L 110.045086 74.610402 
L 112.759588 48.975521 
L 115.474091 26.343524 
L 118.188594 27.64422 
L 120.903097 94.538252 
L 123.6176 113.261873 
L 126.332103 90.284446 
L 129.046606 75.182965 
L 131.761109 95.023688 
L 134.475612 112.779524 
L 137.190114 186.164715 
L 139.904617 221.060263 
L 142.61912 236.500934 
L 145.333623 245.54066 
L 148.048126 266.769253 
L 150.762629 255.27433 
L 153.477132 250.258133 
L 156.191635 253.494386 
L 158.906138 239.687403 
L 161.62064 228.348068 
L 164.335143 224.545466 
L 167.049646 190.732822 
L 169.764149 191.152911 
L 172.478652 198.558962 
L 175.193155 166.492029 
L 177.907658 199.109746 
L 180.622161 220.017819 
L 183.336663 158.868152 
L 186.051166 149.756846 
L 188.765669 146.131632 
L 191.480172 174.237257 
L 194.194675 208.463766 
L 196.909178 246.912957 
L 199.623681 281.733825 
L 202.338184 299.835065 
L 205.052687 319.934075 
L 207.767189 324.72 
L 210.481692 305.784797 
L 213.196195 274.39624 
L 215.910698 237.630513 
L 218.625201 186.161605 
L 221.339704 143.642198 
L 224.054207 136.973651 
L 226.76871 142.245018 
L 229.483213 138.190361 
L 232.197715 99.523335 
L 234.912218 84.154225 
L 237.626721 117.777048 
L 240.341224 159.341143 
L 243.055727 177.529526 
L 245.77023 198.188657 
L 248.484733 202.968359 
L 251.199236 198.306903 
L 253.913739 192.649685 
L 256.628241 201.589839 
L 259.342744 181.269898 
L 262.057247 178.5284 
L 264.77175 190.542997 
L 267.486253 168.054151 
L 270.200756 132.884766 
L 272.915259 109.387683 
L 275.629762 128.161079 
L 278.344265 135.361741 
L 281.058767 158.071544 
L 283.77327 163.482939 
L 286.487773 122.569214 
L 289.202276 87.013977 
L 291.916779 102.678672 
L 294.631282 166.239979 
L 297.345785 211.342178 
L 300.060288 240.101269 
L 302.774791 239.870997 
L 305.489293 255.025376 
L 308.203796 252.271454 
L 310.918299 223.904433 
L 313.632802 228.211149 
L 316.347305 216.635318 
L 319.061808 198.506051 
L 321.776311 190.589672 
L 324.490814 198.736341 
L 327.205317 212.487299 
L 332.634322 231.049092 
L 335.348825 229.32205 
L 338.063328 216.02851 
L 340.777831 196.987503 
L 343.492334 198.583849 
L 346.206837 203.1924 
L 348.92134 176.368837 
L 351.635843 155.093569 
L 354.350345 115.480557 
L 357.064848 109.947808 
L 359.779351 96.837861 
L 362.493854 68.125449 
L 365.208357 54.396261 
L 367.92286 42.266523 
L 370.637363 38.902652 
L 373.351866 32.174998 
L 376.066369 34.680001 
L 378.780871 48.434064 
L 381.495374 59.026581 
L 384.209877 54.330921 
L 386.92438 76.854005 
L 389.638883 107.271671 
L 392.353386 102.127887 
L 395.067889 74.208952 
L 397.782392 81.347415 
L 400.496895 128.637175 
L 403.211397 169.669167 
L 405.9259 183.205417 
L 408.640403 210.676254 
L 411.354906 201.627177 
L 414.069409 203.080369 
L 416.783912 175.043214 
L 419.498415 187.860642 
L 422.212918 189.544132 
L 424.927421 201.060838 
L 427.641923 186.594149 
L 430.356426 156.319602 
L 433.070929 158.093323 
L 435.785432 182.632854 
L 438.499935 166.585387 
L 441.214438 169.031252 
L 443.928941 172.709376 
L 446.643444 195.577877 
L 449.357947 205.361318 
L 452.072449 179.661106 
L 454.786952 184.163839 
L 457.501455 192.534549 
L 460.215958 181.988703 
L 462.930461 175.920729 
L 465.644964 179.430834 
L 468.359467 181.655745 
L 471.07397 186.475908 
L 473.788473 176.399952 
L 476.502975 157.940857 
L 479.217478 161.665657 
L 481.931981 154.228482 
L 484.646484 169.827864 
L 487.360987 160.918829 
L 490.07549 162.776553 
L 492.789993 160.61699 
L 495.504496 162.278675 
L 498.218999 159.820365 
L 500.933501 162.477824 
L 503.648004 174.601334 
L 506.362507 179.244109 
L 509.07701 172.217713 
L 511.791513 181.907804 
L 514.506016 203.385334 
L 517.220519 209.241718 
L 519.935022 192.201587 
L 522.649525 186.239408 
L 525.364027 176.222568 
L 528.07853 183.488595 
L 530.793033 177.181008 
L 533.507536 161.531847 
L 536.222039 166.333323 
L 538.936542 151.303413 
L 544.365548 143.156761 
L 547.080051 127.532492 
L 549.794553 115.726389 
L 552.509056 130.855881 
L 555.223559 149.837758 
L 557.938062 184.306994 
L 560.652565 214.139661 
L 563.367068 220.584163 
L 566.081571 230.047096 
L 568.796074 238.999705 
L 571.510577 213.738242 
L 574.225079 172.485318 
L 576.939582 177.028534 
L 579.654085 199.321341 
L 582.368588 199.013288 
L 585.083091 195.973074 
L 587.797594 184.963578 
L 590.512097 181.861134 
L 593.2266 188.84397 
L 595.941103 191.05023 
L 598.655605 203.886335 
L 601.370108 206.304189 
L 604.084611 218.010712 
L 606.799114 203.33866 
L 609.513617 185.825538 
L 612.22812 180.495056 
L 614.942623 163.529609 
L 617.657126 148.185414 
L 620.371629 145.515495 
L 623.086131 107.315237 
L 625.800634 66.080996 
L 628.515137 45.754809 
L 631.22964 31.997637 
L 633.944143 31.154315 
L 636.658646 29.704242 
L 639.373149 27.037424 
L 642.087652 22.32 
L 644.802155 32.884489 
L 647.516657 36.55329 
L 650.23116 37.337447 
L 652.945663 33.625116 
L 655.660166 36.329201 
L 658.374669 34.527514 
L 661.089172 31.7051 
L 663.803675 34.368808 
L 666.518178 37.287654 
L 669.232681 39.360114 
L 671.947183 35.871783 
L 674.661686 36.764854 
L 677.376189 32.719564 
L 680.090692 34.499508 
L 682.805195 36.522153 
L 685.519698 33.71222 
L 688.234201 32.451923 
L 690.948704 32.262103 
L 693.663207 29.492634 
L 696.377709 28.752051 
L 699.092212 31.029856 
L 701.806715 35.096972 
L 704.521218 31.804729 
L 707.235721 38.289664 
L 709.950224 64.24815 
L 712.664727 110.377229 
L 715.37923 112.306551 
L 718.093733 100.960975 
L 720.808235 65.091454 
L 723.522738 48.875979 
L 726.237241 40.710619 
L 728.951744 29.371284 
L 731.666247 26.026113 
L 734.38075 28.089244 
L 737.095253 23.919407 
L 739.809756 35.252568 
L 742.524259 70.194777 
L 745.238761 125.811686 
L 747.953264 136.027657 
L 750.667767 122.923964 
L 753.38227 44.345179 
L 756.096773 25.854944 
L 758.811276 29.050763 
L 761.525779 39.185861 
L 764.240282 71.156318 
L 766.954785 108.961367 
L 769.669287 110.956028 
L 772.38379 106.63687 
L 775.098293 85.660328 
L 777.812796 63.628917 
L 780.527299 63.70361 
L 783.241802 85.349165 
L 788.670808 123.119981 
L 791.385311 107.078741 
L 794.099813 58.656267 
L 796.814316 72.394828 
L 799.528819 119.669019 
L 802.243322 146.221876 
L 804.957825 154.701468 
L 807.672328 139.323036 
L 810.386831 147.488369 
L 813.101334 174.461302 
L 815.815837 188.738166 
L 818.530339 162.10441 
L 821.244842 97.597135 
L 823.959345 111.584615 
L 826.673848 121.439622 
L 829.388351 63.457774 
L 832.102854 52.896351 
L 834.817357 91.703431 
L 837.53186 92.201309 
L 840.246362 105.323694 
L 842.960865 140.051208 
L 845.675368 169.930554 
L 848.389871 161.441603 
L 851.104374 161.899038 
L 853.818877 185.707297 
L 856.53338 194.585208 
L 859.247883 198.789225 
L 861.962386 175.56598 
L 864.676888 172.675148 
L 867.391391 170.173268 
L 870.105894 181.680641 
L 872.820397 167.830093 
L 875.5349 162.035962 
L 878.249403 112.991132 
L 880.963906 87.69544 
L 883.678409 118.467878 
L 886.392912 97.17706 
L 889.107414 82.604571 
L 894.53642 36.011833 
L 897.250923 37.766881 
L 899.965426 35.557525 
L 902.679929 43.427212 
L 905.394432 34.312797 
L 905.394432 34.312797 
" clip-path="url(#pce6c66e4ad)" style="fill: none; stroke: #2f4742; stroke-width: 1.5; stroke-linecap: square"/>
   </g>
   <g id="line2d_16">
    <path d="M 93.758068 225.020034 
L 96.472571 206.480386 
L 99.187074 199.285932 
L 101.901577 194.885038 
L 104.61608 182.092855 
L 107.330583 177.877945 
L 110.045086 145.779092 
L 112.759588 124.551686 
L 115.474091 110.253728 
L 118.188594 92.861601 
L 120.903097 72.558089 
L 123.6176 71.085609 
L 129.046606 122.666866 
L 131.761109 123.716261 
L 134.475612 111.941017 
L 137.190114 110.761555 
L 139.904617 126.044857 
L 145.333623 203.757473 
L 148.048126 228.495463 
L 150.762629 244.297701 
L 153.477132 255.015725 
L 156.191635 255.219711 
L 158.906138 255.68391 
L 161.62064 260.382383 
L 164.335143 244.061375 
L 167.049646 236.087078 
L 169.764149 226.399837 
L 172.478652 207.45374 
L 175.193155 209.053012 
L 177.907658 198.341046 
L 180.622161 198.319053 
L 183.336663 209.625168 
L 186.051166 223.887207 
L 188.765669 189.082239 
L 191.480172 161.871532 
L 194.194675 159.525871 
L 196.909178 175.664425 
L 199.623681 206.420743 
L 202.338184 245.601702 
L 205.052687 280.202135 
L 207.767189 306.908793 
L 210.481692 319.471513 
L 213.196195 307.435824 
L 215.910698 294.468823 
L 218.625201 267.252891 
L 221.339704 250.725459 
L 224.054207 203.512404 
L 226.76871 163.2429 
L 229.483213 151.108959 
L 232.197715 157.872373 
L 234.912218 158.496982 
L 237.626721 131.620792 
L 240.341224 118.226427 
L 243.055727 128.529959 
L 245.77023 160.182907 
L 248.484733 187.115526 
L 251.199236 205.391032 
L 253.913739 210.796958 
L 256.628241 208.985469 
L 259.342744 202.949487 
L 262.057247 209.440797 
L 264.77175 195.890685 
L 267.486253 191.879526 
L 270.200756 195.465735 
L 272.915259 186.369958 
L 275.629762 161.973206 
L 278.344265 139.941498 
L 281.058767 142.284662 
L 283.77327 147.575832 
L 286.487773 176.360942 
L 289.202276 178.644491 
L 291.916779 152.543157 
L 294.631282 122.971583 
L 297.345785 125.489952 
L 300.060288 157.648638 
L 302.774791 196.805664 
L 305.489293 230.624595 
L 308.203796 239.878934 
L 310.918299 254.72363 
L 313.632802 247.065947 
L 316.347305 220.501488 
L 319.061808 220.428917 
L 321.776311 209.31776 
L 324.490814 206.161405 
L 327.205317 199.34761 
L 329.919819 200.108113 
L 332.634322 211.625841 
L 335.348825 220.517933 
L 338.063328 226.499868 
L 340.777831 223.347294 
L 343.492334 212.058517 
L 346.206837 203.761601 
L 348.92134 206.713541 
L 351.635843 204.618076 
L 354.350345 188.954346 
L 357.064848 172.249278 
L 359.779351 146.944829 
L 362.493854 131.046824 
L 365.208357 120.217075 
L 367.92286 111.435632 
L 370.637363 96.739315 
L 373.351866 79.965657 
L 376.066369 71.565065 
L 378.780871 66.22069 
L 381.495374 70.108153 
L 384.209877 80.715526 
L 386.92438 88.046571 
L 389.638883 89.83708 
L 392.353386 99.984205 
L 395.067889 117.58665 
L 397.782392 122.558035 
L 400.496895 107.485275 
L 403.211397 107.159015 
L 405.9259 132.778266 
L 408.640403 168.096547 
L 411.354906 196.053446 
L 414.069409 213.802348 
L 416.783912 208.154117 
L 419.498415 209.350397 
L 422.212918 196.49106 
L 424.927421 201.836295 
L 427.641923 204.367688 
L 430.356426 208.31921 
L 433.070929 200.502245 
L 435.785432 186.011393 
L 438.499935 179.398506 
L 441.214438 193.509389 
L 443.928941 188.598278 
L 446.643444 179.857981 
L 449.357947 179.249724 
L 452.072449 195.488022 
L 454.786952 210.215439 
L 457.501455 197.829806 
L 460.215958 195.367813 
L 462.930461 201.22713 
L 465.644964 196.572955 
L 468.359467 189.73033 
L 471.07397 191.21741 
L 473.788473 190.415634 
L 476.502975 192.479613 
L 479.217478 189.939386 
L 481.931981 178.249647 
L 484.646484 173.155738 
L 487.360987 168.666613 
L 490.07549 176.715261 
L 492.789993 177.493089 
L 495.504496 180.696922 
L 500.933501 176.113842 
L 503.648004 173.968897 
L 506.362507 173.789559 
L 509.07701 179.928107 
L 511.791513 182.979722 
L 514.506016 183.287385 
L 517.220519 190.418328 
L 519.935022 205.083548 
L 522.649525 217.02985 
L 525.364027 210.504318 
L 528.07853 198.060109 
L 530.793033 188.248601 
L 533.507536 187.395255 
L 536.222039 186.180737 
L 538.936542 177.992641 
L 541.651045 175.154983 
L 544.365548 164.892493 
L 547.080051 158.042185 
L 549.794553 154.729756 
L 552.509056 149.273729 
L 555.223559 140.790477 
L 557.938062 142.862167 
L 560.652565 155.537748 
L 563.367068 178.001084 
L 566.081571 208.07162 
L 568.796074 223.143987 
L 571.510577 225.20515 
L 574.225079 225.974232 
L 576.939582 213.356028 
L 579.654085 192.592499 
L 582.368588 187.127078 
L 585.083091 197.03647 
L 587.797594 202.72682 
L 590.512097 201.042894 
L 593.2266 196.772241 
L 595.941103 187.842137 
L 598.655605 187.315269 
L 601.370108 197.332918 
L 604.084611 192.224781 
L 606.799114 200.030674 
L 609.513617 214.208984 
L 612.22812 208.384101 
L 614.942623 195.955573 
L 617.657126 190.027843 
L 620.371629 173.413377 
L 623.086131 171.028286 
L 625.800634 154.252792 
L 628.515137 130.338759 
L 631.22964 101.431824 
L 633.944143 77.341735 
L 636.658646 59.004336 
L 639.373149 61.436951 
L 642.087652 60.471184 
L 644.802155 62.502858 
L 647.516657 57.714265 
L 650.23116 53.903968 
L 652.945663 57.792623 
L 655.660166 60.236399 
L 658.374669 63.135992 
L 661.089172 64.478472 
L 663.803675 57.038254 
L 666.518178 64.412207 
L 669.232681 62.989574 
L 671.947183 58.771418 
L 674.661686 73.295449 
L 677.376189 71.524148 
L 680.090692 70.532711 
L 682.805195 65.839829 
L 685.519698 62.463974 
L 688.234201 67.19714 
L 690.948704 66.382075 
L 693.663207 63.020648 
L 696.377709 60.722409 
L 699.092212 64.989458 
L 701.806715 69.628552 
L 704.521218 77.723053 
L 707.235721 77.213861 
L 709.950224 75.636181 
L 712.664727 79.634995 
L 715.37923 95.304993 
L 718.093733 126.217075 
L 720.808235 138.088696 
L 723.522738 132.137503 
L 726.237241 108.695639 
L 728.951744 89.722845 
L 731.666247 80.068058 
L 734.38075 69.357808 
L 737.095253 63.512674 
L 739.809756 65.041981 
L 742.524259 60.957247 
L 745.238761 66.894223 
L 747.953264 87.683175 
L 750.667767 128.513639 
L 753.38227 156.447588 
L 756.096773 151.624939 
L 758.811276 108.705887 
L 761.525779 75.760269 
L 764.240282 65.482428 
L 766.954785 73.715931 
L 772.38379 123.16022 
L 775.098293 134.593641 
L 777.812796 131.080465 
L 780.527299 117.507161 
L 783.241802 101.357687 
L 785.956305 95.247476 
L 788.670808 106.077753 
L 794.099813 146.818421 
L 796.814316 136.385421 
L 799.528819 110.803276 
L 802.243322 102.689743 
L 804.957825 124.736962 
L 807.672328 153.148728 
L 810.386831 170.052772 
L 813.101334 165.438639 
L 815.815837 165.495412 
L 818.530339 188.94525 
L 821.244842 184.217737 
L 823.959345 173.778963 
L 826.673848 138.874111 
L 829.388351 119.694567 
L 832.102854 115.382204 
L 834.817357 102.025193 
L 837.53186 99.110944 
L 840.246362 112.001599 
L 842.960865 119.341408 
L 845.675368 125.008013 
L 848.389871 139.230086 
L 851.104374 168.571608 
L 853.818877 169.962369 
L 856.53338 173.990023 
L 859.247883 182.359963 
L 861.962386 200.893035 
L 864.676888 205.793301 
L 867.391391 191.169497 
L 870.105894 192.61044 
L 872.820397 188.103557 
L 875.5349 172.702442 
L 878.249403 170.668635 
L 880.963906 170.26768 
L 883.678409 142.772553 
L 886.392912 117.934395 
L 889.107414 127.104567 
L 891.821917 126.331533 
L 894.53642 111.039965 
L 897.250923 97.546881 
L 899.965426 80.069582 
L 902.679929 71.722062 
L 905.394432 70.237282 
L 905.394432 70.237282 
" clip-path="url(#pce6c66e4ad)" style="fill: none; stroke-dasharray: 5.55,2.4; stroke-dashoffset: 0; stroke: #1f7f73; stroke-width: 1.5"/>
   </g>
   <g id="line2d_17">
    <path d="M 96.472571 303.740352 
L 99.187074 301.702135 
L 101.901577 268.819917 
L 104.61608 231.372718 
L 107.330583 223.222957 
L 110.045086 214.500616 
L 112.759588 196.49273 
L 115.474091 184.35056 
L 118.188594 166.796982 
L 120.903097 163.856348 
L 123.6176 118.253161 
L 126.332103 87.328258 
L 129.046606 74.610402 
L 131.761109 48.975521 
L 134.475612 26.343524 
L 137.190114 27.64422 
L 139.904617 94.538252 
L 142.61912 113.261873 
L 145.333623 90.284446 
L 148.048126 75.182965 
L 150.762629 95.023688 
L 153.477132 112.779524 
L 156.191635 186.164715 
L 158.906138 221.060263 
L 161.62064 236.500934 
L 164.335143 245.54066 
L 167.049646 266.769253 
L 169.764149 255.27433 
L 172.478652 250.258133 
L 175.193155 253.494386 
L 177.907658 239.687403 
L 180.622161 228.348068 
L 183.336663 224.545466 
L 186.051166 190.732822 
L 188.765669 191.152911 
L 191.480172 198.558962 
L 194.194675 166.492029 
L 196.909178 199.109746 
L 199.623681 220.017819 
L 202.338184 158.868152 
L 205.052687 149.756846 
L 207.767189 146.131632 
L 210.481692 174.237257 
L 213.196195 208.463766 
L 215.910698 246.912957 
L 218.625201 281.733825 
L 221.339704 299.835065 
L 224.054207 319.934075 
L 226.76871 324.72 
L 229.483213 305.784797 
L 232.197715 274.39624 
L 234.912218 237.630513 
L 237.626721 186.161605 
L 240.341224 143.642198 
L 243.055727 136.973651 
L 245.77023 142.245018 
L 248.484733 138.190361 
L 251.199236 99.523335 
L 253.913739 84.154225 
L 256.628241 117.777048 
L 259.342744 159.341143 
L 262.057247 177.529526 
L 264.77175 198.188657 
L 267.486253 202.968359 
L 270.200756 198.306903 
L 272.915259 192.649685 
L 275.629762 201.589839 
L 278.344265 181.269898 
L 281.058767 178.5284 
L 283.77327 190.542997 
L 286.487773 168.054151 
L 289.202276 132.884766 
L 291.916779 109.387683 
L 294.631282 128.161079 
L 297.345785 135.361741 
L 300.060288 158.071544 
L 302.774791 163.482939 
L 305.489293 122.569214 
L 308.203796 87.013977 
L 310.918299 102.678672 
L 313.632802 166.239979 
L 316.347305 211.342178 
L 319.061808 240.101269 
L 321.776311 239.870997 
L 324.490814 255.025376 
L 327.205317 252.271454 
L 329.919819 223.904433 
L 332.634322 228.211149 
L 335.348825 216.635318 
L 338.063328 198.506051 
L 340.777831 190.589672 
L 343.492334 198.736341 
L 346.206837 212.487299 
L 351.635843 231.049092 
L 354.350345 229.32205 
L 357.064848 216.02851 
L 359.779351 196.987503 
L 362.493854 198.583849 
L 365.208357 203.1924 
L 367.92286 176.368837 
L 370.637363 155.093569 
L 373.351866 115.480557 
L 376.066369 109.947808 
L 378.780871 96.837861 
L 381.495374 68.125449 
L 384.209877 54.396261 
L 386.92438 42.266523 
L 389.638883 38.902652 
L 392.353386 32.174998 
L 395.067889 34.680001 
L 397.782392 48.434064 
L 400.496895 59.026581 
L 403.211397 54.330921 
L 405.9259 76.854005 
L 408.640403 107.271671 
L 411.354906 102.127887 
L 414.069409 74.208952 
L 416.783912 81.347415 
L 419.498415 128.637175 
L 422.212918 169.669167 
L 424.927421 183.205417 
L 427.641923 210.676254 
L 430.356426 201.627177 
L 433.070929 203.080369 
L 435.785432 175.043214 
L 438.499935 187.860642 
L 441.214438 189.544132 
L 443.928941 201.060838 
L 446.643444 186.594149 
L 449.357947 156.319602 
L 452.072449 158.093323 
L 454.786952 182.632854 
L 457.501455 166.585387 
L 460.215958 169.031252 
L 462.930461 172.709376 
L 465.644964 195.577877 
L 468.359467 205.361318 
L 471.07397 179.661106 
L 473.788473 184.163839 
L 476.502975 192.534549 
L 479.217478 181.988703 
L 481.931981 175.920729 
L 484.646484 179.430834 
L 487.360987 181.655745 
L 490.07549 186.475908 
L 492.789993 176.399952 
L 495.504496 157.940857 
L 498.218999 161.665657 
L 500.933501 154.228482 
L 503.648004 169.827864 
L 506.362507 160.918829 
L 509.07701 162.776553 
L 511.791513 160.61699 
L 514.506016 162.278675 
L 517.220519 159.820365 
L 519.935022 162.477824 
L 522.649525 174.601334 
L 525.364027 179.244109 
L 528.07853 172.217713 
L 530.793033 181.907804 
L 533.507536 203.385334 
L 536.222039 209.241718 
L 538.936542 192.201587 
L 541.651045 186.239408 
L 544.365548 176.222568 
L 547.080051 183.488595 
L 549.794553 177.181008 
L 552.509056 161.531847 
L 555.223559 166.333323 
L 557.938062 151.303413 
L 563.367068 143.156761 
L 566.081571 127.532492 
L 568.796074 115.726389 
L 571.510577 130.855881 
L 574.225079 149.837758 
L 576.939582 184.306994 
L 579.654085 214.139661 
L 582.368588 220.584163 
L 585.083091 230.047096 
L 587.797594 238.999705 
L 590.512097 213.738242 
L 593.2266 172.485318 
L 595.941103 177.028534 
L 598.655605 199.321341 
L 601.370108 199.013288 
L 604.084611 195.973074 
L 606.799114 184.963578 
L 609.513617 181.861134 
L 612.22812 188.84397 
L 614.942623 191.05023 
L 617.657126 203.886335 
L 620.371629 206.304189 
L 623.086131 218.010712 
L 625.800634 203.33866 
L 628.515137 185.825538 
L 631.22964 180.495056 
L 633.944143 163.529609 
L 636.658646 148.185414 
L 639.373149 145.515495 
L 642.087652 107.315237 
L 644.802155 66.080996 
L 647.516657 45.754809 
L 650.23116 31.997637 
L 652.945663 31.154315 
L 655.660166 29.704242 
L 658.374669 27.037424 
L 661.089172 22.32 
L 663.803675 32.884489 
L 666.518178 36.55329 
L 669.232681 37.337447 
L 671.947183 33.625116 
L 674.661686 36.329201 
L 677.376189 34.527514 
L 680.090692 31.7051 
L 682.805195 34.368808 
L 685.519698 37.287654 
L 688.234201 39.360114 
L 690.948704 35.871783 
L 693.663207 36.764854 
L 696.377709 32.719564 
L 699.092212 34.499508 
L 701.806715 36.522153 
L 704.521218 33.71222 
L 707.235721 32.451923 
L 709.950224 32.262103 
L 712.664727 29.492634 
L 715.37923 28.752051 
L 718.093733 31.029856 
L 720.808235 35.096972 
L 723.522738 31.804729 
L 726.237241 38.289664 
L 728.951744 64.24815 
L 731.666247 110.377229 
L 734.38075 112.306551 
L 737.095253 100.960975 
L 739.809756 65.091454 
L 742.524259 48.875979 
L 745.238761 40.710619 
L 747.953264 29.371284 
L 750.667767 26.026113 
L 753.38227 28.089244 
L 756.096773 23.919407 
L 758.811276 35.252568 
L 761.525779 70.194777 
L 764.240282 125.811686 
L 766.954785 136.027657 
L 769.669287 122.923964 
L 772.38379 44.345179 
L 775.098293 25.854944 
L 777.812796 29.050763 
L 780.527299 39.185861 
L 783.241802 71.156318 
L 785.956305 108.961367 
L 788.670808 110.956028 
L 791.385311 106.63687 
L 794.099813 85.660328 
L 796.814316 63.628917 
L 799.528819 63.70361 
L 802.243322 85.349165 
L 807.672328 123.119981 
L 810.386831 107.078741 
L 813.101334 58.656267 
L 815.815837 72.394828 
L 818.530339 119.669019 
L 821.244842 146.221876 
L 823.959345 154.701468 
L 826.673848 139.323036 
L 829.388351 147.488369 
L 832.102854 174.461302 
L 834.817357 188.738166 
L 837.53186 162.10441 
L 840.246362 97.597135 
L 842.960865 111.584615 
L 845.675368 121.439622 
L 848.389871 63.457774 
L 851.104374 52.896351 
L 853.818877 91.703431 
L 856.53338 92.201309 
L 859.247883 105.323694 
L 861.962386 140.051208 
L 864.676888 169.930554 
L 867.391391 161.441603 
L 870.105894 161.899038 
L 872.820397 185.707297 
L 875.5349 194.585208 
L 878.249403 198.789225 
L 880.963906 175.56598 
L 883.678409 172.675148 
L 886.392912 170.173268 
L 889.107414 181.680641 
L 891.821917 167.830093 
L 894.53642 162.035962 
L 897.250923 112.991132 
L 899.965426 87.69544 
L 902.679929 118.467878 
L 905.394432 97.17706 
L 905.394432 97.17706 
" clip-path="url(#pce6c66e4ad)" style="fill: none; stroke-dasharray: 5.55,2.4; stroke-dashoffset: 0; stroke: #00c0a8; stroke-width: 1.5"/>
   </g>
   <g id="line2d_18">
    <path d="M 93.758068 180.291565 
L 96.472571 142.941925 
L 99.187074 158.813953 
L 101.901577 155.844097 
L 104.61608 119.191302 
L 107.330583 142.598239 
L 110.045086 126.235933 
L 112.759588 140.376496 
L 115.474091 176.513172 
L 118.188594 161.522038 
L 120.903097 165.28637 
L 123.6176 193.258839 
L 126.332103 219.947547 
L 129.046606 185.333369 
L 131.761109 185.344454 
L 134.475612 159.02137 
L 137.190114 170.239816 
L 142.61912 220.932352 
L 145.333623 225.435666 
L 148.048126 247.420916 
L 150.762629 248.837396 
L 153.477132 266.798195 
L 156.191635 260.372632 
L 158.906138 265.353485 
L 161.62064 257.724225 
L 164.335143 234.487161 
L 167.049646 249.286308 
L 169.764149 255.369893 
L 172.478652 225.155237 
L 175.193155 241.999041 
L 177.907658 223.095044 
L 180.622161 227.972247 
L 183.336663 221.852314 
L 186.051166 228.664799 
L 188.765669 216.333514 
L 191.480172 180.71441 
L 194.194675 185.845188 
L 196.909178 185.571432 
L 199.623681 226.251958 
L 202.338184 271.871257 
L 205.052687 292.129904 
L 207.767189 305.371002 
L 210.481692 324.020002 
L 213.196195 293.293571 
L 215.910698 298.117694 
L 218.625201 271.522741 
L 221.339704 241.408443 
L 224.054207 188.939129 
L 226.76871 183.757469 
L 229.483213 176.052249 
L 232.197715 165.386501 
L 234.912218 166.832786 
L 237.626721 120.811049 
L 240.341224 109.614759 
L 245.77023 159.121028 
L 248.484733 188.13743 
L 251.199236 201.324057 
L 253.913739 212.408408 
L 256.628241 221.224154 
L 259.342744 223.289378 
L 262.057247 230.970267 
L 264.77175 195.217076 
L 267.486253 186.67169 
L 270.200756 196.080872 
L 272.915259 173.61904 
L 275.629762 140.014284 
L 278.344265 126.153578 
L 281.058767 153.275718 
L 283.77327 141.772768 
L 286.487773 182.168494 
L 289.202276 161.983101 
L 291.916779 139.614474 
L 294.631282 119.245463 
L 297.345785 135.718276 
L 300.060288 192.008455 
L 302.774791 219.142251 
L 305.489293 230.955099 
L 308.203796 221.377864 
L 310.918299 222.8976 
L 313.632802 211.101407 
L 316.347305 168.774917 
L 319.061808 198.132793 
L 321.776311 189.891802 
L 324.490814 156.143104 
L 327.205317 158.690557 
L 329.919819 165.709596 
L 332.634322 193.677061 
L 335.348825 201.064472 
L 338.063328 200.110184 
L 340.777831 189.75208 
L 343.492334 178.828346 
L 346.206837 175.796074 
L 348.92134 166.542306 
L 351.635843 150.731272 
L 354.350345 153.74773 
L 357.064848 165.111106 
L 359.779351 119.916046 
L 362.493854 123.484806 
L 365.208357 135.687178 
L 367.92286 171.564046 
L 370.637363 159.605988 
L 373.351866 142.409867 
L 376.066369 178.336788 
L 378.780871 182.669083 
L 381.495374 180.627682 
L 384.209877 202.818298 
L 386.92438 203.136498 
L 389.638883 186.624437 
L 392.353386 188.014055 
L 395.067889 192.13626 
L 397.782392 154.614352 
L 400.496895 148.971846 
L 403.211397 199.389766 
L 405.9259 219.809843 
L 408.640403 212.164175 
L 411.354906 230.261103 
L 414.069409 237.551984 
L 416.783912 221.218087 
L 419.498415 247.603921 
L 422.212918 223.189204 
L 424.927421 226.791586 
L 427.641923 223.671305 
L 430.356426 231.120445 
L 433.070929 218.826871 
L 435.785432 203.370992 
L 438.499935 203.312309 
L 441.214438 229.084278 
L 443.928941 198.576932 
L 446.643444 178.770296 
L 449.357947 194.55862 
L 452.072449 207.606375 
L 454.786952 214.795279 
L 457.501455 188.848976 
L 460.215958 205.993155 
L 462.930461 227.575994 
L 465.644964 212.184246 
L 468.359467 201.829979 
L 471.07397 206.491511 
L 473.788473 200.409521 
L 476.502975 209.729587 
L 479.217478 207.79502 
L 481.931981 176.329649 
L 484.646484 187.157088 
L 487.360987 185.265154 
L 490.07549 193.516905 
L 492.789993 179.212563 
L 495.504496 177.353469 
L 500.933501 189.312354 
L 503.648004 178.681204 
L 506.362507 177.889011 
L 509.07701 185.140183 
L 511.791513 187.776779 
L 514.506016 199.105842 
L 517.220519 204.139229 
L 519.935022 208.1807 
L 522.649525 212.743754 
L 525.364027 196.82993 
L 528.07853 192.587961 
L 530.793033 194.413036 
L 533.507536 198.059268 
L 536.222039 188.07734 
L 538.936542 172.088058 
L 541.651045 180.30588 
L 544.365548 175.894241 
L 547.080051 172.932301 
L 549.794553 168.768139 
L 552.509056 153.929141 
L 555.223559 142.73258 
L 557.938062 162.12263 
L 560.652565 179.514992 
L 563.367068 200.164634 
L 566.081571 210.541999 
L 568.796074 198.662293 
L 571.510577 185.450866 
L 574.225079 198.663774 
L 576.939582 187.641221 
L 579.654085 149.855127 
L 582.368588 179.237845 
L 585.083091 195.858326 
L 587.797594 185.688567 
L 590.512097 168.001199 
L 593.2266 180.809924 
L 595.941103 203.271057 
L 598.655605 184.840883 
L 601.370108 203.767321 
L 604.084611 177.375529 
L 606.799114 186.179621 
L 609.513617 223.078524 
L 612.22812 162.467533 
L 614.942623 150.837118 
L 617.657126 188.527547 
L 620.371629 160.019479 
L 623.086131 161.717981 
L 625.800634 170.873471 
L 628.515137 149.296566 
L 631.22964 158.751028 
L 633.944143 176.110566 
L 636.658646 190.44599 
L 639.373149 228.497507 
L 642.087652 194.160172 
L 644.802155 187.818911 
L 647.516657 194.7488 
L 650.23116 181.596988 
L 652.945663 158.538284 
L 655.660166 150.517373 
L 658.374669 165.739369 
L 661.089172 157.55376 
L 663.803675 126.758239 
L 666.518178 136.483984 
L 669.232681 120.066691 
L 671.947183 95.414946 
L 674.661686 121.474502 
L 677.376189 88.633226 
L 680.090692 85.885786 
L 682.805195 112.091662 
L 685.519698 92.070751 
L 688.234201 94.871161 
L 690.948704 89.935142 
L 693.663207 81.557027 
L 696.377709 103.473728 
L 699.092212 109.884105 
L 701.806715 112.28638 
L 704.521218 137.654197 
L 707.235721 127.09864 
L 709.950224 135.267763 
L 712.664727 139.265829 
L 715.37923 149.892902 
L 718.093733 171.209079 
L 720.808235 153.460756 
L 723.522738 138.830379 
L 726.237241 112.003967 
L 728.951744 115.184575 
L 731.666247 114.031767 
L 734.38075 107.79792 
L 737.095253 97.790074 
L 739.809756 104.870823 
L 742.524259 91.151437 
L 745.238761 98.15665 
L 747.953264 119.978047 
L 750.667767 151.832591 
L 753.38227 164.246368 
L 756.096773 146.524148 
L 758.811276 96.216383 
L 761.525779 114.600554 
L 764.240282 126.267192 
L 766.954785 129.128938 
L 769.669287 134.553933 
L 772.38379 129.476324 
L 775.098293 119.625549 
L 777.812796 115.884755 
L 780.527299 113.032489 
L 783.241802 114.901323 
L 785.956305 123.457087 
L 788.670808 139.32853 
L 791.385311 147.773109 
L 794.099813 153.432262 
L 796.814316 125.00016 
L 799.528819 112.651311 
L 802.243322 119.44143 
L 804.957825 151.682164 
L 807.672328 159.027388 
L 810.386831 162.012944 
L 813.101334 148.480243 
L 815.815837 153.876904 
L 818.530339 193.229126 
L 821.244842 165.352839 
L 826.673848 74.89679 
L 829.388351 106.645471 
L 832.102854 152.755114 
L 834.817357 113.792037 
L 837.53186 132.227435 
L 840.246362 160.94379 
L 842.960865 145.770827 
L 845.675368 159.486723 
L 848.389871 182.223786 
L 851.104374 191.140771 
L 853.818877 166.363103 
L 856.53338 150.486875 
L 859.247883 173.876447 
L 861.962386 191.94818 
L 864.676888 201.618142 
L 867.391391 169.026438 
L 870.105894 181.990293 
L 872.820397 187.756819 
L 875.5349 195.244004 
L 878.249403 167.516744 
L 880.963906 198.891168 
L 883.678409 154.833269 
L 886.392912 139.805499 
L 889.107414 206.023089 
L 891.821917 205.047357 
L 894.53642 167.67162 
L 897.250923 163.156397 
L 899.965426 198.801925 
L 902.679929 193.730536 
L 905.394432 182.207291 
L 905.394432 182.207291 
" clip-path="url(#pce6c66e4ad)" style="fill: none; stroke-dasharray: 5.55,2.4; stroke-dashoffset: 0; stroke: #66ccff; stroke-width: 1.5"/>
   </g>
   <g id="patch_3">
    <path d="M 53.17625 339.84 
L 53.17625 7.2 
" style="fill: none; stroke: #000000; stroke-width: 0.8; stroke-linejoin: miter; stroke-linecap: square"/>
   </g>
   <g id="patch_4">
    <path d="M 945.97625 339.84 
L 945.97625 7.2 
" style="fill: none; stroke: #000000; stroke-width: 0.8; stroke-linejoin: miter; stroke-linecap: square"/>
   </g>
   <g id="patch_5">
    <path d="M 53.17625 339.84 
L 945.97625 339.84 
" style="fill: none; stroke: #000000; stroke-width: 0.8; stroke-linejoin: miter; stroke-linecap: square"/>
   </g>
   <g id="patch_6">
    <path d="M 53.17625 7.2 
L 945.97625 7.2 
" style="fill: none; stroke: #000000; stroke-width: 0.8; stroke-linejoin: miter; stroke-linecap: square"/>
   </g>
   <g id="legend_1">
    <g id="patch_7">
     <path d="M 708.876875 330.84 
L 933.37625 330.84 
Q 936.97625 330.84 936.97625 327.24 
L 936.97625 222.927188 
Q 936.97625 219.327188 933.37625 219.327188 
L 708.876875 219.327188 
Q 705.276875 219.327188 705.276875 222.927188 
L 705.276875 327.24 
Q 705.276875 330.84 708.876875 330.84 
z
" style="fill: #ffffff; opacity: 0.8; stroke: #cccccc; stroke-linejoin: miter"/>
    </g>
    <g id="line2d_19">
     <path d="M 712.476875 232.827188 
L 730.476875 232.827188 
L 748.476875 232.827188 
" style="fill: none; stroke: #2f4742; stroke-width: 1.5; stroke-linecap: square"/>
    </g>
    <g id="text_17">
     <!-- 实际值 -->
     <g transform="translate(762.876875 239.127188) scale(0.18 -0.18)">
      <defs>
       <path id="STFangsong-5b9e" d="M 3514 4429 
Q 3501 4294 3465 4134 
Q 3430 3974 3398 3974 
Q 3366 3974 3354 3994 
L 2746 4877 
L 2803 4934 
L 3514 4429 
z
M 5766 1280 
Q 5792 1254 5792 1235 
Q 5792 1216 5754 1216 
L 3450 1062 
Q 3104 294 2477 -195 
Q 1850 -685 685 -1082 
L 646 -979 
Q 1690 -550 2269 -89 
Q 2848 371 3174 1043 
Q 1523 934 1062 819 
L 736 1088 
L 3264 1248 
Q 3405 1619 3485 2128 
Q 3565 2637 3565 3011 
Q 3565 3386 3520 3546 
L 1594 3379 
Q 1574 2976 1468 2707 
Q 1363 2438 1306 2438 
Q 1286 2438 1274 2470 
L 1101 2861 
Q 1261 2995 1357 3321 
Q 1453 3648 1453 4090 
L 1562 4090 
Q 1600 3834 1600 3590 
L 4998 3898 
L 5190 4179 
L 5517 3891 
Q 5542 3866 5542 3846 
Q 5542 3827 5517 3814 
Q 5318 3706 4749 2765 
L 4653 2816 
L 5011 3674 
L 3597 3552 
L 3923 3200 
Q 3955 3168 3955 3136 
Q 3955 3104 3942 3085 
Q 3872 2976 3834 2669 
Q 3731 1830 3533 1267 
Q 5126 1370 5478 1530 
L 5766 1280 
z
M 3040 2771 
Q 3066 2598 3066 2464 
Q 3066 2330 3027 2330 
Q 3014 2330 2989 2349 
L 2144 3046 
L 2170 3104 
L 3040 2771 
z
M 2746 1933 
Q 2810 1670 2810 1571 
Q 2810 1472 2787 1472 
Q 2765 1472 2752 1485 
L 1894 2182 
L 1926 2246 
L 2746 1933 
z
M 5184 -230 
Q 5274 -538 5274 -787 
Q 5274 -838 5258 -838 
Q 5242 -838 5222 -826 
L 3462 518 
L 3507 595 
L 5184 -230 
z
" transform="scale(0.015625)"/>
       <path id="STFangsong-9645" d="M 2560 4262 
Q 2586 4237 2586 4214 
Q 2586 4192 2534 4154 
Q 2387 4051 2224 3769 
Q 2061 3488 1843 3040 
Q 2413 2579 2413 1997 
Q 2413 1670 2246 1356 
Q 2080 1043 2022 1043 
Q 2003 1043 1978 1088 
Q 1811 1376 1427 1760 
L 1485 1830 
L 2010 1478 
Q 2176 1786 2176 2080 
Q 2176 2579 1696 3027 
Q 2016 3757 2112 4083 
L 1267 3974 
L 1267 83 
Q 1267 -614 1248 -732 
Q 1229 -851 1190 -851 
Q 1178 -851 1152 -806 
L 877 -365 
Q 1037 -64 1037 723 
L 1037 3616 
Q 1037 4243 928 4672 
L 998 4704 
L 1280 4166 
L 2054 4275 
L 2285 4544 
L 2560 4262 
z
M 5235 4154 
Q 5267 4128 5267 4112 
Q 5267 4096 5222 4090 
Q 3430 3891 3270 3795 
L 2963 4026 
Q 3827 4115 4291 4179 
Q 4755 4243 4973 4352 
L 5235 4154 
z
M 5683 2912 
Q 5722 2880 5722 2861 
Q 5722 2842 5658 2835 
L 3949 2669 
L 4186 2413 
Q 4211 2387 4211 2368 
Q 4211 2349 4186 2323 
Q 4109 2246 4109 1875 
L 4109 0 
Q 4109 -544 4051 -713 
Q 3994 -883 3965 -883 
Q 3936 -883 3904 -838 
Q 3622 -442 2950 186 
L 3002 269 
L 3827 -237 
Q 3878 -198 3878 275 
L 3878 1971 
Q 3878 2458 3795 2650 
Q 3123 2560 2848 2464 
L 2490 2707 
Q 3885 2854 4560 2937 
Q 5235 3021 5421 3123 
L 5683 2912 
z
M 3341 1606 
Q 3360 1574 3360 1552 
Q 3360 1530 3302 1501 
Q 3245 1472 2989 1088 
Q 2483 326 2042 -77 
L 1971 -6 
Q 3014 1280 3059 1997 
L 3123 2016 
L 3341 1606 
z
M 5638 909 
Q 5626 595 5594 476 
Q 5562 358 5536 358 
Q 5510 358 5485 403 
Q 5107 1011 4461 1843 
L 4538 1907 
L 5638 909 
z
" transform="scale(0.015625)"/>
       <path id="STFangsong-503c" d="M 5882 -275 
Q 5914 -301 5914 -317 
Q 5914 -333 5869 -339 
Q 2790 -518 2112 -653 
L 1856 -416 
L 2829 -339 
L 2771 2086 
Q 2758 2714 2688 3078 
L 2771 3110 
L 2950 2746 
L 3578 2829 
L 3616 3437 
Q 2630 3322 2336 3245 
L 2080 3462 
L 3629 3629 
Q 3648 3936 3648 4201 
Q 3648 4467 3533 4794 
L 3597 4838 
L 4013 4480 
Q 4038 4454 4038 4432 
Q 4038 4410 4000 4358 
Q 3942 4282 3872 3654 
Q 4877 3776 5229 3930 
L 5517 3718 
Q 5562 3686 5562 3670 
Q 5562 3654 5517 3648 
L 3846 3462 
L 3782 2854 
L 4531 2950 
L 4717 3194 
L 5005 2938 
Q 5030 2912 5030 2896 
Q 5030 2880 4972 2835 
Q 4915 2790 4883 2704 
Q 4851 2618 4845 2368 
L 4749 -179 
Q 5434 -109 5594 -38 
L 5882 -275 
z
M 4621 2739 
L 2989 2541 
L 3002 1990 
Q 4006 2112 4141 2208 
L 4333 2048 
Q 4371 2016 4371 2000 
Q 4371 1984 4326 1978 
L 3008 1798 
L 3021 1280 
Q 3808 1370 4070 1472 
L 4288 1306 
Q 4333 1274 4333 1258 
Q 4333 1242 4282 1235 
L 3027 1088 
L 3040 544 
Q 3917 646 4115 736 
L 4326 582 
Q 4371 550 4371 534 
Q 4371 518 4320 512 
L 3046 352 
L 3059 -320 
L 4518 -198 
L 4621 2739 
z
M 2349 4250 
Q 2368 4224 2368 4205 
Q 2368 4186 2336 4160 
Q 2195 4045 2054 3821 
Q 1914 3597 1715 3322 
L 1715 -275 
Q 1715 -806 1702 -918 
Q 1690 -1030 1670 -1030 
Q 1651 -1030 1626 -992 
L 1357 -576 
Q 1434 -403 1459 -227 
Q 1485 -51 1485 307 
L 1485 3008 
Q 954 2336 384 1830 
L 307 1920 
Q 1165 2842 1590 3539 
Q 2016 4237 1990 4653 
L 2067 4698 
L 2349 4250 
z
" transform="scale(0.015625)"/>
      </defs>
      <use xlink:href="#STFangsong-5b9e"/>
      <use xlink:href="#STFangsong-9645" x="99.999985"/>
      <use xlink:href="#STFangsong-503c" x="199.999969"/>
     </g>
    </g>
    <g id="line2d_20">
     <path d="M 712.476875 259.05375 
L 730.476875 259.05375 
L 748.476875 259.05375 
" style="fill: none; stroke-dasharray: 5.55,2.4; stroke-dashoffset: 0; stroke: #1f7f73; stroke-width: 1.5"/>
    </g>
    <g id="text_18">
     <!-- LSTM预测值 -->
     <g transform="translate(762.876875 265.35375) scale(0.18 -0.18)">
      <defs>
       <path id="STFangsong-4c" d="M 1331 288 
Q 1331 205 1360 163 
Q 1389 122 1510 122 
L 2106 122 
Q 2662 122 2854 179 
Q 3046 237 3248 448 
Q 3450 659 3597 1024 
L 3699 1024 
L 3514 -26 
Q 2989 0 1792 0 
Q 480 0 64 -26 
L 64 64 
L 646 147 
Q 813 166 813 282 
L 813 3629 
Q 813 3750 771 3785 
Q 730 3821 646 3834 
L 154 3917 
L 154 4019 
Q 499 4000 1472 4000 
Q 1882 4000 2048 4019 
L 2048 3917 
L 1498 3834 
Q 1402 3821 1366 3792 
Q 1331 3763 1331 3629 
L 1331 288 
z
" transform="scale(0.015625)"/>
       <path id="STFangsong-53" d="M 2406 3053 
Q 2221 3891 1485 3891 
Q 1139 3891 905 3692 
Q 672 3494 672 3226 
Q 672 3014 861 2835 
Q 1050 2656 1645 2349 
Q 2253 2035 2525 1798 
Q 2797 1562 2797 1094 
Q 2797 557 2422 227 
Q 2048 -102 1376 -102 
Q 755 -102 243 198 
L 314 1152 
L 403 1152 
Q 461 678 787 374 
Q 1114 70 1510 70 
Q 1888 70 2147 294 
Q 2406 518 2406 832 
Q 2406 1114 2198 1306 
Q 1990 1498 1510 1747 
Q 845 2093 582 2374 
Q 320 2656 320 3021 
Q 320 3475 672 3769 
Q 1024 4064 1587 4064 
Q 2150 4064 2515 3782 
L 2490 3053 
L 2406 3053 
z
" transform="scale(0.015625)"/>
       <path id="STFangsong-54" d="M 269 4134 
Q 314 4301 365 4301 
Q 410 4301 486 4160 
Q 544 4045 595 4022 
Q 646 4000 794 4000 
L 3270 4000 
Q 3501 4000 3571 4035 
Q 3642 4070 3706 4218 
Q 3744 4307 3802 4307 
Q 3885 4307 3885 4179 
L 3872 3168 
Q 3872 3066 3821 3066 
Q 3750 3066 3706 3251 
Q 3635 3565 3532 3686 
Q 3430 3808 3091 3808 
L 2291 3808 
L 2291 512 
Q 2291 339 2332 281 
Q 2374 224 2509 192 
L 3008 83 
L 3008 -19 
Q 2669 0 2010 0 
Q 1165 0 1011 -19 
L 1011 83 
L 1459 173 
Q 1645 211 1702 284 
Q 1760 358 1760 518 
L 1760 3808 
L 973 3808 
Q 762 3814 627 3712 
Q 493 3610 237 3245 
Q 122 3078 70 3078 
Q 38 3078 38 3149 
Q 38 3219 70 3354 
L 269 4134 
z
" transform="scale(0.015625)"/>
       <path id="STFangsong-9884" d="M 5805 4384 
Q 5830 4358 5830 4342 
Q 5830 4326 5792 4326 
L 4269 4224 
L 4442 4058 
Q 4467 4032 4467 4009 
Q 4467 3987 4454 3968 
Q 4320 3814 4122 3296 
L 4947 3386 
L 5101 3622 
L 5376 3386 
Q 5408 3360 5408 3341 
Q 5408 3322 5389 3309 
Q 5306 3232 5280 3161 
Q 5254 3091 5248 2950 
L 5197 1382 
Q 5171 646 5094 646 
Q 5075 646 5050 685 
L 4826 1050 
Q 4960 1254 4966 1606 
L 5005 3187 
L 3526 3021 
L 3526 1293 
Q 3526 589 3462 589 
Q 3443 589 3418 627 
L 3187 998 
Q 3296 1146 3296 1530 
L 3296 3008 
Q 3296 3334 3238 3622 
L 3322 3648 
L 3501 3226 
L 3949 3277 
Q 4128 3827 4109 4218 
Q 3533 4179 3296 4109 
L 3046 4352 
Q 5088 4442 5517 4640 
L 5805 4384 
z
M 2694 4627 
L 2970 4384 
Q 2995 4358 2995 4339 
Q 2995 4320 2976 4301 
Q 2720 4064 2576 3904 
Q 2432 3744 2131 3347 
L 2394 3206 
Q 2394 3040 2362 2953 
Q 2330 2867 2307 2867 
Q 2285 2867 2253 2893 
L 1549 3571 
L 1600 3635 
L 2042 3398 
L 2496 4218 
Q 1350 4115 1075 4045 
L 819 4282 
L 2554 4416 
L 2694 4627 
z
M 2931 3078 
L 3174 2867 
Q 3206 2842 3206 2822 
Q 3206 2803 3187 2790 
Q 3021 2669 2905 2486 
Q 2790 2304 2624 2010 
L 2522 2054 
L 2752 2682 
L 2016 2592 
L 2202 2432 
Q 2234 2400 2234 2377 
Q 2234 2355 2227 2336 
Q 2170 2170 2170 1760 
L 2170 378 
Q 2170 -243 2102 -483 
Q 2035 -723 1997 -723 
Q 1984 -723 1965 -704 
Q 1658 -352 1018 186 
L 1075 262 
L 1875 -198 
Q 1933 -77 1933 544 
L 1933 1939 
Q 1933 2304 1888 2579 
Q 1152 2490 794 2387 
L 531 2618 
L 2790 2867 
L 2931 3078 
z
M 4051 2829 
L 4390 2592 
Q 4429 2566 4429 2547 
Q 4429 2528 4403 2489 
Q 4378 2451 4358 2332 
Q 4339 2214 4314 1754 
Q 4256 787 3824 166 
Q 3392 -454 2502 -877 
L 2445 -787 
Q 3181 -397 3632 249 
Q 4083 896 4083 2131 
Q 4083 2586 4000 2790 
L 4051 2829 
z
M 5613 -134 
Q 5651 -365 5651 -493 
Q 5651 -678 5606 -678 
Q 5594 -678 5568 -653 
L 4358 640 
L 4416 704 
L 5613 -134 
z
" transform="scale(0.015625)"/>
       <path id="STFangsong-6d4b" d="M 5101 4858 
L 5498 4454 
Q 5530 4422 5530 4403 
Q 5530 4384 5510 4365 
Q 5440 4294 5421 4153 
Q 5402 4013 5402 3693 
L 5402 115 
Q 5402 -992 5267 -992 
Q 5248 -992 5222 -966 
Q 4915 -582 4390 -96 
L 4454 -13 
L 5107 -435 
Q 5165 -333 5165 282 
L 5165 3514 
Q 5165 4038 5136 4310 
Q 5107 4582 5018 4813 
L 5101 4858 
z
M 1946 3994 
Q 1952 3770 1917 3635 
Q 1882 3501 1850 3501 
Q 1818 3501 1798 3526 
L 1146 4371 
L 1203 4442 
L 1946 3994 
z
M 3795 4314 
L 4051 4090 
Q 4083 4064 4083 4045 
Q 4083 4026 4058 4000 
Q 3917 3859 3917 3738 
L 3917 1606 
Q 3917 698 3827 698 
Q 3802 698 3782 730 
L 3584 1024 
Q 3648 1165 3667 1283 
Q 3686 1402 3686 1709 
L 3686 3834 
L 2566 3680 
L 2566 1536 
Q 2566 1190 2544 944 
Q 2522 698 2490 698 
Q 2458 698 2432 736 
L 2221 1056 
Q 2349 1235 2349 1677 
L 2349 3162 
Q 2349 3955 2259 4371 
L 2342 4403 
L 2573 3910 
L 3635 4051 
L 3795 4314 
z
M 4352 3808 
L 4678 3520 
Q 4704 3494 4704 3475 
Q 4704 3456 4691 3424 
Q 4614 3277 4614 3085 
L 4614 1798 
Q 4614 1050 4592 944 
Q 4570 838 4547 838 
Q 4525 838 4506 864 
L 4301 1197 
Q 4365 1274 4381 1395 
Q 4397 1517 4397 1792 
L 4397 3149 
Q 4397 3475 4275 3757 
L 4352 3808 
z
M 3002 3302 
L 3322 3008 
Q 3347 2982 3347 2963 
Q 3347 2944 3334 2912 
Q 3258 2726 3245 2105 
Q 3232 1485 3126 1001 
Q 3021 518 2653 16 
Q 2285 -486 1549 -909 
L 1504 -838 
Q 2202 -352 2614 313 
Q 3027 979 3027 2413 
Q 3027 2995 2938 3245 
L 3002 3302 
z
M 1517 2637 
Q 1536 2547 1536 2444 
Q 1536 2342 1507 2236 
Q 1478 2131 1459 2131 
Q 1440 2131 1421 2150 
L 672 2931 
L 710 2989 
L 1517 2637 
z
M 2112 2547 
L 1235 -307 
Q 1222 -358 1203 -358 
Q 1184 -358 1158 -320 
Q 902 51 608 384 
L 666 461 
L 1094 147 
L 2016 2598 
L 2112 2547 
z
M 3994 -32 
Q 4006 -288 3984 -419 
Q 3962 -550 3939 -550 
Q 3917 -550 3891 -518 
L 3072 538 
L 3117 595 
L 3994 -32 
z
" transform="scale(0.015625)"/>
      </defs>
      <use xlink:href="#STFangsong-4c"/>
      <use xlink:href="#STFangsong-53" x="57.299988"/>
      <use xlink:href="#STFangsong-54" x="105.199982"/>
      <use xlink:href="#STFangsong-4d" x="166.699966"/>
      <use xlink:href="#STFangsong-9884" x="249.999954"/>
      <use xlink:href="#STFangsong-6d4b" x="349.999939"/>
      <use xlink:href="#STFangsong-503c" x="449.999924"/>
     </g>
    </g>
    <g id="line2d_21">
     <path d="M 712.476875 286.486875 
L 730.476875 286.486875 
L 748.476875 286.486875 
" style="fill: none; stroke-dasharray: 5.55,2.4; stroke-dashoffset: 0; stroke: #00c0a8; stroke-width: 1.5"/>
    </g>
    <g id="text_19">
     <!-- presistence模型预测值 -->
     <g transform="translate(762.876875 292.786875) scale(0.18 -0.18)">
      <defs>
       <path id="STFangsong-70" d="M 890 2157 
Q 1446 2554 1965 2554 
Q 2445 2554 2739 2211 
Q 3034 1869 3034 1293 
Q 3034 710 2643 304 
Q 2253 -102 1645 -102 
Q 1280 -102 890 83 
L 890 -1274 
Q 890 -1357 944 -1405 
Q 998 -1453 1158 -1478 
L 1542 -1542 
L 1542 -1645 
Q 1293 -1619 806 -1619 
Q 403 -1619 77 -1645 
L 77 -1542 
L 346 -1491 
Q 442 -1472 470 -1430 
Q 499 -1389 499 -1267 
L 499 1939 
Q 499 2170 416 2182 
L 102 2234 
L 122 2323 
Q 442 2458 573 2547 
Q 704 2637 794 2784 
L 890 2784 
L 890 2157 
z
M 890 1965 
L 890 563 
Q 890 333 1101 182 
Q 1312 32 1645 32 
Q 2054 32 2323 336 
Q 2592 640 2592 1075 
Q 2592 1632 2355 1945 
Q 2118 2259 1722 2259 
Q 1331 2259 890 1965 
z
" transform="scale(0.015625)"/>
       <path id="STFangsong-72" d="M 134 -26 
L 134 77 
L 454 134 
Q 582 166 617 230 
Q 653 294 653 461 
L 653 1690 
Q 653 1818 598 1875 
Q 544 1933 358 1971 
L 186 2010 
L 198 2106 
Q 448 2195 614 2313 
Q 781 2432 909 2701 
L 1024 2701 
Q 1050 2355 1050 1894 
Q 1171 2125 1401 2339 
Q 1632 2554 1811 2554 
Q 1952 2554 2038 2464 
Q 2125 2374 2125 2234 
Q 2125 2125 2054 2061 
Q 1984 1997 1875 1997 
Q 1779 1997 1670 2042 
Q 1542 2099 1459 2099 
Q 1318 2099 1184 1868 
Q 1050 1638 1050 1510 
L 1050 448 
Q 1050 282 1104 227 
Q 1158 173 1338 147 
L 1830 77 
L 1830 -26 
Q 1485 0 979 0 
Q 499 0 134 -26 
z
" transform="scale(0.015625)"/>
       <path id="STFangsong-65" d="M 2477 1606 
L 691 1606 
Q 672 1478 672 1350 
Q 672 851 944 537 
Q 1216 224 1683 224 
Q 1907 224 2092 313 
Q 2278 403 2496 608 
L 2522 454 
Q 2074 -102 1363 -102 
Q 896 -102 582 275 
Q 269 653 269 1190 
Q 269 1779 617 2166 
Q 966 2554 1504 2554 
Q 1914 2554 2186 2294 
Q 2458 2035 2477 1606 
z
M 723 1741 
L 1888 1741 
Q 2061 1741 2061 1875 
Q 2061 2010 1933 2208 
Q 1805 2406 1478 2406 
Q 1197 2406 992 2224 
Q 787 2042 723 1741 
z
" transform="scale(0.015625)"/>
       <path id="STFangsong-73" d="M 1792 1843 
Q 1734 2061 1536 2233 
Q 1338 2406 1184 2406 
Q 717 2406 717 1978 
Q 717 1805 870 1686 
Q 1024 1568 1338 1453 
Q 2061 1178 2061 672 
Q 2061 339 1805 118 
Q 1549 -102 1171 -102 
Q 710 -102 416 64 
L 352 787 
L 461 787 
Q 550 448 774 240 
Q 998 32 1254 32 
Q 1459 32 1600 163 
Q 1741 294 1741 493 
Q 1741 858 1139 1082 
Q 717 1242 534 1418 
Q 352 1594 352 1850 
Q 352 2176 595 2365 
Q 838 2554 1248 2554 
Q 1613 2554 1875 2400 
L 1914 1843 
L 1792 1843 
z
" transform="scale(0.015625)"/>
       <path id="STFangsong-69" d="M 717 4096 
Q 826 4096 915 4013 
Q 1005 3930 1005 3821 
Q 1005 3718 912 3638 
Q 819 3558 704 3558 
Q 595 3558 518 3635 
Q 442 3712 442 3821 
Q 442 3930 525 4013 
Q 608 4096 717 4096 
z
M 1421 -26 
Q 1222 0 717 0 
Q 211 0 13 -26 
L 13 77 
L 371 147 
Q 570 186 570 378 
L 570 1882 
Q 570 2035 493 2105 
Q 416 2176 186 2227 
L 186 2317 
Q 640 2432 851 2778 
L 954 2778 
L 954 358 
Q 954 262 982 217 
Q 1011 173 1094 154 
L 1421 77 
L 1421 -26 
z
" transform="scale(0.015625)"/>
       <path id="STFangsong-74" d="M 979 3085 
L 1056 3085 
L 1062 2400 
L 1933 2419 
L 1933 2189 
L 1062 2163 
L 1062 640 
Q 1062 352 1142 224 
Q 1222 96 1402 96 
Q 1619 96 1926 275 
L 1984 186 
Q 1850 32 1674 -35 
Q 1498 -102 1197 -102 
Q 864 -102 761 61 
Q 659 224 659 704 
L 659 2150 
L 314 2144 
Q 224 2144 224 2195 
Q 224 2240 307 2278 
Q 582 2394 707 2544 
Q 832 2694 979 3085 
z
" transform="scale(0.015625)"/>
       <path id="STFangsong-6e" d="M 3200 -19 
Q 2867 0 2534 0 
Q 2202 0 1869 -19 
L 1869 83 
L 2221 134 
Q 2362 154 2362 384 
L 2362 1645 
Q 2362 1926 2202 2092 
Q 2042 2259 1766 2259 
Q 1357 2259 966 1869 
L 966 314 
Q 966 211 1120 173 
L 1498 83 
L 1498 -19 
Q 1261 0 806 0 
Q 352 0 115 -19 
L 115 83 
L 454 147 
Q 582 166 582 339 
L 582 1606 
Q 582 1805 502 1875 
Q 422 1946 218 1978 
L 218 2093 
Q 627 2189 864 2669 
L 966 2669 
L 966 2093 
Q 1210 2304 1504 2429 
Q 1798 2554 2022 2554 
Q 2758 2554 2758 1677 
L 2758 403 
Q 2758 282 2790 218 
Q 2822 154 2918 134 
L 3200 83 
L 3200 -19 
z
" transform="scale(0.015625)"/>
       <path id="STFangsong-63" d="M 2496 570 
L 2502 371 
Q 2266 122 2029 10 
Q 1792 -102 1459 -102 
Q 960 -102 624 288 
Q 288 678 288 1261 
Q 288 1894 640 2224 
Q 992 2554 1670 2554 
Q 2022 2554 2243 2451 
Q 2464 2349 2464 2176 
Q 2464 2086 2403 2016 
Q 2342 1946 2240 1946 
Q 2074 1946 1882 2138 
Q 1670 2349 1440 2349 
Q 1165 2349 957 2051 
Q 749 1754 749 1306 
Q 749 794 1017 493 
Q 1286 192 1651 192 
Q 2067 192 2496 570 
z
" transform="scale(0.015625)"/>
       <path id="STFangsong-6a21" d="M 6010 -832 
L 4998 -896 
L 3866 640 
L 3808 634 
Q 3437 -454 2131 -1056 
L 2086 -986 
Q 3238 -243 3552 614 
Q 2790 538 2458 442 
L 2176 653 
L 3616 794 
Q 3680 1094 3674 1376 
L 3142 1312 
Q 3142 1082 3098 1082 
Q 3078 1082 3053 1120 
L 2861 1421 
Q 2931 1523 2925 1773 
L 2899 2502 
Q 2886 2739 2822 3034 
L 2893 3078 
L 3059 2758 
L 4090 2893 
Q 4211 3354 4262 3565 
L 3501 3501 
Q 3514 3258 3514 3136 
Q 3514 3014 3494 2950 
Q 3475 2886 3459 2886 
Q 3443 2886 3424 2912 
L 3245 3155 
Q 3290 3264 3290 3482 
Q 2842 3424 2566 3347 
L 2323 3565 
L 3283 3661 
L 3270 4032 
Q 3251 4454 3104 4685 
L 3162 4742 
L 3514 4506 
Q 3539 4486 3539 4470 
Q 3539 4454 3533 4442 
Q 3475 4326 3482 4051 
L 3494 3680 
L 4301 3763 
Q 4397 4218 4397 4454 
Q 4397 4691 4333 4858 
L 4403 4909 
L 4781 4550 
Q 4806 4525 4806 4502 
Q 4806 4480 4787 4467 
Q 4717 4422 4525 3789 
Q 5165 3866 5395 3974 
L 5664 3757 
Q 5702 3731 5702 3715 
Q 5702 3699 5664 3693 
L 4467 3584 
L 4250 2918 
L 4742 2982 
L 4883 3187 
L 5146 2982 
Q 5190 2950 5190 2934 
Q 5190 2918 5165 2899 
Q 5056 2829 5014 2726 
Q 4973 2624 4954 2477 
L 4851 1779 
L 5011 1594 
Q 5037 1568 5037 1552 
Q 5037 1536 4986 1530 
L 3827 1395 
L 4013 1197 
Q 4038 1165 4038 1145 
Q 4038 1126 4013 1114 
Q 3955 1069 3866 819 
Q 5242 954 5498 1094 
L 5734 902 
Q 5786 858 5786 838 
Q 5786 819 5722 813 
L 4051 659 
L 4544 58 
Q 4870 -339 5136 -483 
Q 5402 -627 6010 -736 
L 6010 -832 
z
M 4762 2778 
L 3098 2566 
L 3117 2112 
Q 4166 2272 4307 2374 
L 4486 2195 
Q 4518 2163 4518 2153 
Q 4518 2144 4493 2138 
L 3123 1946 
L 3142 1498 
L 4614 1696 
L 4762 2778 
z
M 2662 2970 
Q 2682 2950 2682 2934 
Q 2682 2918 2656 2918 
L 1882 2835 
L 1882 2490 
L 2566 2048 
Q 2566 1939 2540 1795 
Q 2515 1651 2496 1651 
Q 2477 1651 2458 1677 
L 1882 2355 
L 1882 109 
Q 1882 -691 1866 -854 
Q 1850 -1018 1811 -1018 
Q 1798 -1018 1779 -979 
L 1549 -525 
Q 1626 -429 1651 -269 
Q 1677 -109 1677 230 
L 1677 2304 
Q 1190 1350 403 557 
L 346 621 
Q 1152 1568 1638 2810 
Q 1037 2739 736 2643 
L 512 2880 
L 1677 3008 
L 1677 3834 
Q 1677 4390 1491 4781 
L 1555 4838 
L 2003 4499 
Q 2029 4480 2029 4461 
Q 2029 4442 2016 4422 
Q 1939 4269 1910 4093 
Q 1882 3917 1882 3514 
L 1882 3034 
Q 2285 3085 2432 3187 
L 2662 2970 
z
" transform="scale(0.015625)"/>
       <path id="STFangsong-578b" d="M 4749 4909 
L 5133 4595 
Q 5165 4570 5165 4550 
Q 5165 4531 5129 4476 
Q 5094 4422 5072 4268 
Q 5050 4115 5050 3738 
L 5050 1946 
Q 5050 1466 5002 1238 
Q 4954 1011 4902 1011 
Q 4877 1011 4845 1043 
Q 4486 1389 4013 1792 
L 4058 1862 
L 4749 1485 
Q 4826 1760 4826 2253 
L 4826 3789 
Q 4826 4544 4685 4858 
L 4749 4909 
z
M 3725 3078 
Q 3757 3053 3757 3037 
Q 3757 3021 3718 3014 
L 2976 2925 
L 2976 2298 
Q 2976 1690 2944 1584 
Q 2912 1478 2893 1478 
Q 2874 1478 2842 1536 
L 2643 1914 
Q 2714 2003 2733 2121 
Q 2752 2240 2752 2515 
L 2752 2906 
L 2067 2822 
Q 1990 2150 1676 1705 
Q 1363 1261 730 864 
L 672 947 
Q 1242 1370 1507 1782 
Q 1773 2195 1843 2797 
Q 1203 2720 941 2618 
L 678 2835 
L 1862 2989 
Q 1907 3565 1901 4045 
Q 1421 3994 1293 3936 
L 1011 4154 
Q 2080 4250 2608 4323 
Q 3136 4397 3392 4506 
L 3610 4314 
Q 3635 4294 3635 4278 
Q 3635 4262 3603 4256 
L 2976 4179 
L 2976 3130 
Q 3347 3194 3507 3270 
L 3725 3078 
z
M 2752 3098 
L 2752 4154 
L 2138 4077 
Q 2138 3526 2086 3014 
L 2752 3098 
z
M 3917 4397 
L 4224 4128 
Q 4250 4109 4250 4086 
Q 4250 4064 4243 4045 
Q 4179 3878 4179 3597 
L 4179 2829 
Q 4179 2253 4102 2253 
Q 4083 2253 4051 2304 
L 3853 2598 
Q 3962 2739 3962 3110 
L 3962 3674 
Q 3962 4070 3853 4352 
L 3917 4397 
z
M 5766 -352 
Q 5798 -378 5798 -394 
Q 5798 -410 5754 -410 
Q 2835 -557 2003 -621 
Q 1171 -685 992 -749 
L 678 -486 
L 3194 -358 
L 3194 621 
Q 2112 525 1926 461 
L 1626 691 
L 3194 813 
L 3194 1184 
Q 3194 1670 3085 1907 
L 3142 1958 
L 3507 1690 
Q 3533 1670 3533 1654 
Q 3533 1638 3520 1619 
Q 3418 1434 3418 1050 
L 3418 832 
Q 4237 896 4589 1043 
L 4851 819 
Q 4877 800 4877 784 
Q 4877 768 4838 768 
L 3418 640 
L 3418 -346 
Q 4928 -262 5434 -90 
L 5766 -352 
z
" transform="scale(0.015625)"/>
      </defs>
      <use xlink:href="#STFangsong-70"/>
      <use xlink:href="#STFangsong-72" x="50.999985"/>
      <use xlink:href="#STFangsong-65" x="84.299973"/>
      <use xlink:href="#STFangsong-73" x="125.999969"/>
      <use xlink:href="#STFangsong-69" x="162.499954"/>
      <use xlink:href="#STFangsong-73" x="185.399948"/>
      <use xlink:href="#STFangsong-74" x="221.899933"/>
      <use xlink:href="#STFangsong-65" x="251.09993"/>
      <use xlink:href="#STFangsong-6e" x="292.799927"/>
      <use xlink:href="#STFangsong-63" x="343.799911"/>
      <use xlink:href="#STFangsong-65" x="385.499908"/>
      <use xlink:href="#STFangsong-6a21" x="427.199905"/>
      <use xlink:href="#STFangsong-578b" x="527.19989"/>
      <use xlink:href="#STFangsong-9884" x="627.199875"/>
      <use xlink:href="#STFangsong-6d4b" x="727.19986"/>
      <use xlink:href="#STFangsong-503c" x="827.199844"/>
     </g>
    </g>
    <g id="line2d_22">
     <path d="M 712.476875 312.713438 
L 730.476875 312.713438 
L 748.476875 312.713438 
" style="fill: none; stroke-dasharray: 5.55,2.4; stroke-dashoffset: 0; stroke: #66ccff; stroke-width: 1.5"/>
    </g>
    <g id="text_20">
     <!-- SVM预测值 -->
     <g transform="translate(762.876875 319.013438) scale(0.18 -0.18)">
      <defs>
       <path id="STFangsong-56" d="M 4390 3917 
L 4045 3859 
Q 3853 3821 3782 3648 
L 2310 -147 
L 2176 -147 
L 614 3539 
Q 544 3706 489 3763 
Q 435 3821 339 3840 
L -19 3917 
L -19 4019 
Q 198 4000 909 4000 
Q 1530 4000 1843 4019 
L 1843 3917 
L 1434 3891 
Q 1267 3885 1196 3843 
Q 1126 3802 1126 3712 
Q 1126 3616 1229 3373 
L 2394 570 
L 3418 3411 
Q 3482 3597 3482 3674 
Q 3482 3770 3395 3811 
Q 3309 3853 3066 3885 
L 2810 3917 
L 2810 4019 
Q 2982 4000 3597 4000 
Q 4250 4000 4390 4019 
L 4390 3917 
z
" transform="scale(0.015625)"/>
      </defs>
      <use xlink:href="#STFangsong-53"/>
      <use xlink:href="#STFangsong-56" x="47.899994"/>
      <use xlink:href="#STFangsong-4d" x="115.599976"/>
      <use xlink:href="#STFangsong-9884" x="198.899963"/>
      <use xlink:href="#STFangsong-6d4b" x="298.899948"/>
      <use xlink:href="#STFangsong-503c" x="398.899933"/>
     </g>
    </g>
   </g>
  </g>
 </g>
 <defs>
  <clipPath id="pce6c66e4ad">
   <rect x="53.17625" y="7.2" width="892.8" height="332.64"/>
  </clipPath>
 </defs>
</svg>
